<svg id="Capa_1" enable-background="new 0 0 512 512" height="512" viewBox="0 0 512 512" width="512" xmlns="http://www.w3.org/2000/svg"><g><path d="m337.227 111.18h97.186v30h-97.186z" fill="#283366" transform="matrix(.707 -.707 .707 .707 23.781 309.773)"/><path d="m370.82 337.227h30v97.186h-30z" fill="#283366" transform="matrix(.707 -.707 .707 .707 -159.812 385.82)"/><path d="m77.587 370.82h97.186v30h-97.186z" fill="#404a80" transform="matrix(.707 -.707 .707 .707 -235.859 202.227)"/><path d="m111.18 77.587h30v97.186h-30z" fill="#404a80" transform="matrix(.707 -.707 .707 .707 -52.266 126.18)"/><path d="m391 241h121v30h-121z" fill="#283366"/><path d="m0 241h121v30h-121z" fill="#404a80"/><circle cx="452" cy="60" fill="#f37" r="60"/><circle cx="452" cy="60" fill="#cc295f" r="30"/><circle cx="452" cy="452" fill="#f37" r="60"/><circle cx="452" cy="452" fill="#cc295f" r="30"/><circle cx="60" cy="452" fill="#ff6c6c" r="60"/><circle cx="60" cy="452" fill="#f37" r="30"/><circle cx="60" cy="60" fill="#ff6c6c" r="60"/><circle cx="60" cy="60" fill="#f37" r="30"/><path d="m271 0h-15l-10 121h25z" fill="#283366"/><path d="m241 0h15v121h-15z" fill="#404a80"/><path d="m271 512v-121h-25l10 121z" fill="#283366"/><path d="m241 391h15v121h-15z" fill="#404a80"/><path d="m256 106-20 150 20 150c82.71 0 150-67.29 150-150s-67.29-150-150-150z" fill="#24b3b3"/><path d="m106 256c0 82.71 67.29 150 150 150v-300c-82.71 0-150 67.29-150 150z" fill="#2ee6a8"/><path d="m256 136-20 219.164h87.5c31.669-21.626 52.5-58.006 52.5-99.164 0-66.168-53.832-120-120-120z" fill="#ece6f2"/><path d="m136 256c0 41.158 20.831 77.538 52.5 99.164h67.5v-219.164c-66.168 0-120 53.832-120 120z" fill="#fff5f5"/><path d="m323.5 331c0-26.959-15.892-50.267-38.795-61.075 14.315-9.387 23.795-25.565 23.795-43.925 0-28.949-23.551-52.5-52.5-52.5l-20 114.727 20 87.773c25.011 0 48.255-7.695 67.5-20.836z" fill="#fc6"/><path d="m203.5 226c0 18.36 9.48 34.538 23.795 43.925-22.903 10.808-38.795 34.116-38.795 61.075v24.164c19.245 13.141 42.489 20.836 67.5 20.836v-202.5c-28.949 0-52.5 23.551-52.5 52.5z" fill="#ffe666"/></g></svg>