<svg id="Capa_1" enable-background="new 0 0 512 512" height="512" viewBox="0 0 512 512" width="512" xmlns="http://www.w3.org/2000/svg"><g><path d="m343.9 132.001-87.9-132.001-87.9 132.001h57.9v81.244c10.928 5.83 21.299 14.268 29.854 24.243l.117.146c8.496-9.697 18.516-17.871 29.736-24.229l.293-.161v-81.244h57.9z" fill="#6cf"/><path d="m285.707 213.406.293-.161v-81.244h57.9l-87.9-132.001v237.607c8.491-9.682 18.497-17.851 29.707-24.201z" fill="#59abff"/><path d="m225.824 183.172c-17.754-10.576-38.408-16.172-59.824-16.172h-33.999v-57.9l-132.001 87.9 132.001 87.9v-57.9h33.999c27.92 0 54.258 19.146 60.938 45l41.15-7.386-12.116-56.921.146-.19c-9.024-10.093-19.278-18.399-30.294-24.331z" fill="#ffea80"/><path d="m379.999 284.9v-57.9h-33.999c-32.999 0-60 26.999-60 60v15h-3.9c-5.099-9-14.7-15-26.1-15s-21 6-26.1 15h-3.9v-15c0-29.101 10.499-57.301 30-79.501 9.6-10.499 19.799-18.6 30-24.3 18.6-10.799 39.3-16.199 60-16.199h33.999v-57.9l132.001 87.9z" fill="#ff5959"/><g id="Flexibility_1_"><g><path d="m331 512h-150v-75c0-41.353 33.633-75 75-75s75 33.647 75 75z" fill="#6cf"/></g></g><path d="m331 512v-75c0-41.353-33.633-75-75-75v150z" fill="#59abff"/><path d="m379.999 284.9v-57.9h-33.999c-32.999 0-60 26.999-60 60v15h-3.9c-5.099-9-14.7-15-26.1-15v-79.501c9.6-10.499 19.799-18.6 30-24.3 18.6-10.799 39.3-16.199 60-16.199h33.999v-57.9l132.001 87.9z" fill="#e63a57"/><g><path d="m256 362c-24.814 0-45-20.186-45-45s20.186-45 45-45 45 20.186 45 45-20.186 45-45 45z" fill="#ffd9b3"/></g><path d="m301 317c0-24.814-20.186-45-45-45v90c24.814 0 45-20.186 45-45z" fill="#fb9"/></g></svg>