<svg width="487" height="549" viewBox="0 0 487 549" fill="none" xmlns="http://www.w3.org/2000/svg">
<path d="M363.407 141.284C364.808 142.979 365.476 145.021 365.476 147.037C365.476 150.067 363.967 153.043 361.151 154.779C358.375 156.487 356.825 159.464 356.825 162.52C356.825 163.935 357.159 165.363 357.853 166.699C358.561 168.047 358.881 169.475 358.881 170.875C358.881 172.677 358.335 174.439 357.347 175.921C356.32 177.483 354.784 178.751 352.848 179.431C349.152 180.739 346.816 184.223 346.816 187.973C346.816 188.775 346.923 189.589 347.149 190.403C347.377 191.217 347.484 192.044 347.484 192.845C347.484 197.251 344.225 201.201 339.608 201.815C335.069 202.416 331.733 206.273 331.733 210.797C331.733 210.984 331.733 211.171 331.747 211.359C332.093 216.857 327.489 221.381 322.003 220.955C321.763 220.941 321.523 220.928 321.281 220.928C316.837 220.928 312.993 224.185 312.325 228.656C311.657 233.208 307.735 236.384 303.371 236.384C302.529 236.384 301.661 236.264 300.793 236.011C299.939 235.756 299.072 235.637 298.231 235.637C294.535 235.637 291.091 237.907 289.743 241.536C288.355 245.233 284.883 247.436 281.24 247.436C279.785 247.436 278.304 247.089 276.929 246.341C275.553 245.593 274.072 245.248 272.604 245.248C269.601 245.248 266.677 246.743 264.956 249.437C263.22 252.188 260.271 253.644 257.295 253.644C255.225 253.644 253.144 252.935 251.435 251.48C249.727 250.027 247.631 249.305 245.548 249.305C243.493 249.305 241.465 249.999 239.809 251.361C239.583 251.547 239.356 251.748 239.143 251.961C239.115 251.987 239.101 252.001 239.076 252.028C237.287 253.843 234.937 254.737 232.615 254.737C229.905 254.737 227.223 253.536 225.421 251.201C223.647 248.891 220.963 247.649 218.227 247.649C216.505 247.649 214.757 248.144 213.221 249.172C211.673 250.2 209.937 250.68 208.229 250.68C204.867 250.68 201.609 248.812 200.035 245.515C198.499 242.271 195.256 240.349 191.852 240.349C190.744 240.349 189.624 240.563 188.529 240.989C187.435 241.429 186.3 241.631 185.192 241.631C181.16 241.631 177.397 238.893 176.396 234.689C175.395 230.551 171.712 227.749 167.587 227.749C167.093 227.749 166.587 227.789 166.079 227.868C165.557 227.963 165.051 228.003 164.544 228.003C159.752 228.003 155.655 224.157 155.521 219.18C155.453 216.804 154.467 214.641 152.919 213.067C151.356 211.479 149.22 210.464 146.845 210.357C141.92 210.157 138.169 206.072 138.169 201.321C138.169 200.787 138.209 200.227 138.316 199.665C138.423 199.105 138.463 198.559 138.463 197.997C138.463 193.94 135.74 190.283 131.668 189.241C127.532 188.173 124.876 184.449 124.876 180.459C124.876 179.311 125.089 178.136 125.556 177.003C126.023 175.868 126.251 174.692 126.251 173.532C126.236 173.317 126.236 173.117 126.223 172.904C126.009 169.795 124.195 166.897 121.217 165.429C118.001 163.828 116.187 160.612 116.187 157.301C116.187 155.539 116.707 153.751 117.788 152.176C118.856 150.613 119.376 148.825 119.376 147.051C119.376 144.38 118.201 141.737 115.945 139.949C113.676 138.147 112.529 135.519 112.529 132.863C112.529 130.473 113.449 128.084 115.345 126.283C117.213 124.507 118.161 122.117 118.161 119.715C118.161 117.673 117.481 115.631 116.093 113.949C114.691 112.255 114.011 110.212 114.011 108.196C114.011 105.167 115.519 102.189 118.335 100.455C121.111 98.7466 122.659 95.7693 122.659 92.7133C122.659 91.2986 122.325 89.8693 121.632 88.5346C120.925 87.188 120.604 85.7586 120.604 84.3573C120.604 80.66 122.873 77.1373 126.637 75.8013C130.333 74.4933 132.669 71.024 132.669 67.2733C132.669 66.4586 132.563 65.6453 132.336 64.8306C132.109 64.016 132.003 63.2013 132.003 62.4013C132.003 57.9826 135.26 54.032 139.879 53.4186C144.416 52.8173 147.753 48.96 147.753 44.436C147.753 44.2493 147.753 44.0613 147.739 43.8746C147.725 43.688 147.725 43.5013 147.725 43.3147C147.725 38.0693 152.184 33.8653 157.496 34.2786C157.736 34.2906 157.977 34.3053 158.216 34.3053C162.661 34.3053 166.505 31.048 167.159 26.5773C167.84 22.012 171.777 18.836 176.129 18.836C176.971 18.836 177.837 18.956 178.692 19.2093C179.545 19.4626 180.428 19.5826 181.281 19.5826C184.965 19.5826 188.409 17.3133 189.757 13.6973C191.132 9.99997 194.615 7.79732 198.26 7.79732C199.713 7.79732 201.196 8.14396 202.571 8.89196C203.932 9.63863 205.413 9.9853 206.869 9.9853C209.884 9.9853 212.808 8.49197 214.529 5.7813C216.277 3.0453 219.215 1.5773 222.191 1.5773C224.26 1.5773 226.341 2.28396 228.064 3.75329C229.76 5.20796 231.855 5.92797 233.936 5.92797C235.111 5.92797 236.285 5.70129 237.393 5.24796C237.915 5.02129 238.435 4.7533 238.916 4.4333C238.941 4.41997 238.969 4.40664 238.983 4.3933C239.008 4.37997 239.023 4.36664 239.048 4.3533H239.061C239.543 4.00664 239.984 3.63331 240.411 3.20531C242.199 1.39065 244.547 0.495964 246.871 0.495964C249.58 0.495964 252.263 1.6973 254.064 4.0333C255.84 6.3413 258.536 7.56929 261.26 7.56929C262.981 7.56929 264.729 7.07598 266.265 6.06131C267.813 5.03331 269.547 4.5533 271.256 4.5533C274.62 4.5533 277.877 6.42265 279.451 9.70531C280.999 12.9493 284.229 14.8706 287.633 14.8706C288.741 14.8706 289.863 14.6573 290.956 14.2306C292.051 13.8026 293.172 13.6026 294.28 13.6026C298.324 13.6026 302.089 16.34 303.103 20.544C304.091 24.6813 307.788 27.484 311.899 27.484C312.392 27.484 312.9 27.444 313.407 27.364C313.928 27.2706 314.435 27.2306 314.941 27.2306C319.748 27.2306 323.844 31.0746 323.979 36.0533C324.032 38.4293 325.02 40.5906 326.568 42.1666C328.129 43.756 330.265 44.756 332.641 44.8626C337.58 45.076 341.317 49.1613 341.317 53.8986C341.317 54.4466 341.276 55.0066 341.169 55.5666C341.063 56.128 341.023 56.6746 341.023 57.2226C341.023 61.28 343.76 64.9506 347.817 65.992C351.955 67.06 354.624 70.784 354.624 74.7613C354.624 75.9226 354.397 77.0973 353.931 78.2306C353.463 79.352 353.249 80.5266 353.249 81.688C353.249 85.0253 355.104 88.228 358.268 89.804C361.497 91.4053 363.3 94.6213 363.3 97.932C363.3 98.9466 363.127 99.9746 362.779 100.961C362.525 101.683 362.165 102.376 361.712 103.044C360.631 104.605 360.123 106.395 360.123 108.169C360.123 110.852 361.297 113.496 363.54 115.271C365.809 117.085 366.971 119.728 366.971 122.384C366.971 124.76 366.036 127.149 364.155 128.939C362.285 130.713 361.337 133.103 361.337 135.519C361.337 137.547 362.019 139.603 363.407 141.284Z" fill="#33334F"/>
<mask id="mask0_1197_413" style="mask-type:luminance" maskUnits="userSpaceOnUse" x="112" y="100" width="128" height="155">
<path d="M112.527 100.455H239.929V254.737H112.527V100.455Z" fill="white"/>
</mask>
<g mask="url(#mask0_1197_413)">
<g opacity="0.300003">
<path d="M239.929 208.889V209.317L239.807 251.361C239.581 251.547 239.354 251.747 239.141 251.961C239.114 251.987 239.101 252.001 239.074 252.027C237.286 253.842 234.937 254.737 232.614 254.737C229.903 254.737 227.222 253.537 225.419 251.201C223.645 248.89 220.961 247.65 218.226 247.65C216.505 247.65 214.755 248.143 213.221 249.171C211.673 250.199 209.937 250.679 208.229 250.679C204.865 250.679 201.609 248.811 200.033 245.514C198.498 242.271 195.254 240.349 191.85 240.349C190.742 240.349 189.623 240.562 188.527 240.99C187.433 241.43 186.298 241.63 185.19 241.63C181.159 241.63 177.397 238.893 176.395 234.689C175.394 230.551 171.71 227.749 167.585 227.749C167.091 227.749 166.585 227.789 166.077 227.869C165.557 227.962 165.05 228.002 164.542 228.002C159.75 228.002 155.653 224.158 155.519 219.179C155.453 216.803 154.465 214.641 152.917 213.066C151.354 211.478 149.219 210.463 146.845 210.357C141.918 210.157 138.169 206.073 138.169 201.321C138.169 200.787 138.207 200.226 138.314 199.666C138.421 199.105 138.461 198.558 138.461 197.997C138.461 193.941 135.738 190.282 131.667 189.242C127.53 188.173 124.874 184.449 124.874 180.459C124.874 179.31 125.087 178.137 125.555 177.002C126.021 175.867 126.249 174.693 126.249 173.531C126.249 170.194 124.394 166.991 121.217 165.429C118.001 163.829 116.185 160.611 116.185 157.301C116.185 155.539 116.705 153.75 117.787 152.175C118.854 150.613 119.374 148.826 119.374 147.05C119.374 144.381 118.199 141.738 115.945 139.949C113.675 138.147 112.527 135.518 112.527 132.862C112.527 130.473 113.449 128.083 115.345 126.282C117.213 124.506 118.161 122.117 118.161 119.715C118.161 117.673 117.479 115.63 116.091 113.949C114.689 112.254 114.01 110.211 114.01 108.195C114.01 105.166 115.517 102.19 118.334 100.455C118.334 100.455 166.25 207.047 239.929 208.889Z" fill="#26263D"/>
</g>
</g>
<mask id="mask1_1197_413" style="mask-type:luminance" maskUnits="userSpaceOnUse" x="239" y="100" width="128" height="154">
<path d="M239.035 100.922H366.97V253.643H239.035V100.922Z" fill="white"/>
</mask>
<g mask="url(#mask1_1197_413)">
<g opacity="0.300003">
<path d="M363.406 141.284C364.807 142.979 365.475 145.021 365.475 147.037C365.475 150.067 363.966 153.043 361.15 154.779C358.374 156.487 356.824 159.464 356.824 162.52C356.824 163.935 357.158 165.363 357.852 166.699C358.56 168.047 358.88 169.475 358.88 170.875C358.88 174.572 356.611 178.096 352.847 179.431C349.151 180.739 346.815 184.223 346.815 187.973C346.815 188.775 346.922 189.589 347.148 190.403C347.376 191.217 347.483 192.044 347.483 192.845C347.483 197.251 344.224 201.201 339.607 201.815C335.068 202.416 331.732 206.273 331.732 210.797C331.732 210.984 331.732 211.171 331.746 211.359C332.092 216.857 327.488 221.381 322.002 220.955C321.762 220.941 321.522 220.928 321.28 220.928C316.836 220.928 312.992 224.185 312.324 228.656C311.656 233.208 307.734 236.384 303.37 236.384C302.528 236.384 301.66 236.264 300.792 236.011C299.938 235.756 299.071 235.637 298.23 235.637C294.534 235.637 291.09 237.907 289.742 241.536C288.354 245.233 284.882 247.436 281.239 247.436C279.784 247.436 278.303 247.089 276.928 246.341C275.552 245.593 274.071 245.248 272.603 245.248C269.6 245.248 266.676 246.743 264.955 249.437C263.219 252.188 260.27 253.644 257.294 253.644C255.224 253.644 253.143 252.935 251.434 251.48C249.726 250.027 247.63 249.305 245.547 249.305C243.492 249.305 241.464 249.999 239.808 251.361C239.582 251.547 239.355 251.748 239.142 251.961L239.035 209.356C239.327 209.341 239.635 209.341 239.93 209.316C313.086 206.647 360.615 100.923 360.615 100.923L362.778 100.961C362.524 101.683 362.164 102.376 361.711 103.044C360.63 104.605 360.122 106.395 360.122 108.169C360.122 110.852 361.296 113.496 363.539 115.271C365.808 117.085 366.97 119.728 366.97 122.384C366.97 124.76 366.035 127.149 364.154 128.939C362.284 130.713 361.336 133.103 361.336 135.519C361.336 137.547 362.018 139.603 363.406 141.284Z" fill="#26263D"/>
</g>
</g>
<mask id="mask2_1197_413" style="mask-type:luminance" maskUnits="userSpaceOnUse" x="112" y="1" width="126" height="172">
<path d="M112.527 1.57739H237.393V172.904H112.527V1.57739Z" fill="white"/>
</mask>
<g mask="url(#mask2_1197_413)">
<g opacity="0.0500031">
<path d="M233.935 5.92841C235.11 5.92841 236.285 5.70174 237.393 5.24708C208.322 20.8644 122.591 75.3618 126.222 172.904C126.009 169.794 124.193 166.898 121.217 165.428C118.001 163.828 116.185 160.611 116.185 157.3C116.185 155.539 116.705 153.751 117.787 152.176C118.854 150.614 119.374 148.826 119.374 147.05C119.374 144.38 118.199 141.738 115.945 139.95C113.675 138.147 112.527 135.518 112.527 132.862C112.527 130.472 113.449 128.083 115.345 126.282C117.213 124.507 118.161 122.118 118.161 119.715C118.161 117.672 117.479 115.63 116.091 113.948C114.689 112.254 114.01 110.211 114.01 108.196C114.01 105.166 115.518 102.19 118.334 100.455C121.11 98.7457 122.658 95.7697 122.658 92.7124C122.658 91.2977 122.325 89.8697 121.63 88.5351C120.923 87.1871 120.603 85.7591 120.603 84.3577C120.603 80.6604 122.871 77.1364 126.635 75.8017C130.333 74.4937 132.669 71.0231 132.669 67.2737C132.669 66.4577 132.562 65.6444 132.335 64.8311C132.109 64.0164 132.002 63.2017 132.002 62.4004C132.002 57.9831 135.258 54.0324 139.877 53.4177C144.414 52.8177 147.751 48.9604 147.751 44.4351C147.751 44.2484 147.751 44.0617 147.738 43.8751C147.725 43.6884 147.725 43.5004 147.725 43.3151C147.725 38.0684 152.183 33.8644 157.495 34.2777C157.735 34.2911 157.975 34.3044 158.215 34.3044C162.661 34.3044 166.505 31.0484 167.158 26.5764C167.839 22.0124 171.777 18.8351 176.129 18.8351C176.969 18.8351 177.837 18.9564 178.69 19.2084C179.545 19.4617 180.426 19.5817 181.281 19.5817C184.963 19.5817 188.407 17.3137 189.755 13.6964C191.13 9.99907 194.614 7.79641 198.258 7.79641C199.713 7.79641 201.194 8.14441 202.57 8.89108C203.93 9.63908 205.411 9.98574 206.867 9.98574C209.883 9.98574 212.806 8.49108 214.527 5.78174C216.277 3.04574 219.214 1.57641 222.189 1.57641C224.258 1.57641 226.341 2.28442 228.063 3.75242C229.758 5.20708 231.853 5.92841 233.935 5.92841Z" fill="white"/>
</g>
</g>
<mask id="mask3_1197_413" style="mask-type:luminance" maskUnits="userSpaceOnUse" x="239" y="0" width="128" height="176">
<path d="M239.061 0.496064H366.969V175.921H239.061V0.496064Z" fill="white"/>
</mask>
<g mask="url(#mask3_1197_413)">
<g opacity="0.0500031">
<path d="M363.406 141.284C364.807 142.979 365.475 145.021 365.475 147.037C365.475 150.067 363.966 153.043 361.15 154.779C358.374 156.487 356.825 159.464 356.825 162.52C356.825 163.935 357.158 165.363 357.853 166.699C358.561 168.047 358.881 169.475 358.881 170.875C358.881 172.677 358.334 174.439 357.346 175.921L356.398 175.84C360.79 69.4079 258.789 14.0573 239.061 4.35328C239.542 4.00662 239.983 3.63327 240.41 3.20527C242.198 1.39061 244.546 0.495941 246.87 0.495941C249.579 0.495941 252.262 1.69727 254.063 4.03327C255.839 6.34127 258.535 7.56926 261.259 7.56926C262.981 7.56926 264.729 7.07594 266.265 6.06127C267.813 5.03327 269.546 4.55327 271.255 4.55327C274.619 4.55327 277.877 6.4226 279.45 9.70527C280.998 12.9493 284.229 14.8706 287.633 14.8706C288.741 14.8706 289.862 14.6573 290.955 14.2306C292.05 13.8026 293.171 13.6026 294.279 13.6026C298.323 13.6026 302.089 16.3399 303.102 20.5439C304.09 24.6813 307.787 27.4839 311.898 27.4839C312.391 27.4839 312.899 27.4439 313.406 27.3639C313.927 27.2706 314.434 27.2306 314.941 27.2306C319.747 27.2306 323.843 31.0746 323.978 36.0533C324.031 38.4293 325.019 40.5906 326.567 42.1666C328.129 43.7559 330.265 44.7559 332.641 44.8626C337.579 45.0759 341.317 49.1613 341.317 53.8986C341.317 54.4466 341.275 55.0066 341.169 55.5666C341.062 56.1279 341.022 56.6746 341.022 57.2226C341.022 61.2799 343.759 64.9506 347.817 65.9919C351.954 67.0599 354.623 70.7839 354.623 74.7613C354.623 75.9226 354.397 77.0973 353.93 78.2306C353.462 79.3519 353.249 80.5266 353.249 81.6879C353.249 85.0253 355.103 88.2279 358.267 89.8039C361.497 91.4053 363.299 94.6213 363.299 97.9319C363.299 98.9466 363.126 99.9746 362.778 100.961C362.525 101.683 362.165 102.376 361.711 103.044C360.63 104.605 360.122 106.395 360.122 108.169C360.122 110.852 361.297 113.496 363.539 115.271C365.809 117.085 366.97 119.728 366.97 122.384C366.97 124.76 366.035 127.149 364.154 128.939C362.285 130.713 361.337 133.103 361.337 135.519C361.337 137.547 362.018 139.603 363.406 141.284Z" fill="white"/>
</g>
</g>
<path d="M219.141 263.582L264.969 262.777L258.541 233.013L255.813 220.395L226.298 220.998L220.95 252.798L219.141 263.582Z" fill="#DE786E"/>
<path d="M220.951 252.798C231.105 251.92 246.601 247.91 258.541 233.013L255.813 220.396L226.299 220.997L220.951 252.798Z" fill="#924F4C"/>
<path d="M289.417 188.979C285.261 206.667 273.709 220.899 258.705 227.422C257.578 227.915 256.414 228.378 255.229 228.779C254.773 228.937 254.302 229.102 253.857 229.206C248.989 230.734 243.814 231.453 238.514 231.278C229.505 230.95 220.712 228.03 212.93 223.121C201.601 215.955 192.43 204.673 187.874 191.426C186.412 187.21 185.4 182.823 184.93 178.299C184.705 176.05 184.606 173.739 184.654 171.439C184.744 167.007 185.225 162.711 186.084 158.605C186.409 157.029 186.796 155.489 187.244 153.975C187.605 152.747 187.984 151.535 188.43 150.329C188.43 150.329 188.448 150.299 188.444 150.275C188.708 149.515 188.954 148.833 189.266 148.118C189.37 147.811 189.517 147.515 189.654 147.217C189.718 147.037 189.797 146.839 189.888 146.643L189.912 146.638C190.476 145.263 191.141 143.947 191.849 142.641C192.064 142.246 192.27 141.849 192.51 141.437C196.294 134.843 201.398 129.247 207.689 125.038L207.702 125.03L207.713 125.033C214.218 120.678 221.994 117.787 230.916 116.81C230.929 116.801 230.941 116.803 230.941 116.803C234.094 116.454 237.397 116.343 240.826 116.49C248.516 116.813 255.77 118.949 262.229 122.563C263.08 123.031 263.921 123.531 264.745 124.062C278.468 132.763 288.288 148.179 290.562 166.175C290.977 169.298 291.154 172.458 291.085 175.699C290.993 180.289 290.432 184.737 289.417 188.979Z" fill="#33334F"/>
<path d="M202.368 187.115C193.329 178.07 184.464 179.411 183.34 192.534C182.219 205.657 196.395 213.357 205.464 207.581C214.535 201.803 202.368 187.115 202.368 187.115Z" fill="#DE786E"/>
<path d="M194.286 189.059C189.496 189.161 189.953 203.404 200.172 201.78L198.17 199.087L197.422 196.181L198.24 193.013L194.286 189.059Z" fill="#924F4C"/>
<path d="M202.074 203.356C194.88 198.276 198.24 193.013 198.24 193.013C198.24 193.013 190.257 182.644 189.818 191.937" stroke="#33334F" stroke-width="0.668" stroke-miterlimit="10"/>
<path d="M3.42235 341.201C3.42235 341.201 -0.621654 345.006 7.86635 351.173C15.381 356.658 37.4583 368.497 42.3423 371.086C47.5357 378.654 53.741 385.434 60.8157 391.307C56.9183 389.331 33.3463 377.493 24.2437 374.409C14.301 371.046 13.5397 376.531 13.5397 376.531C13.5397 376.531 11.017 381.483 21.0943 384.406C30.637 387.182 58.213 391.133 61.1103 391.547C65.9143 395.498 71.1077 399.035 76.6597 402.091C81.8783 404.975 87.3783 407.417 93.1303 409.459C87.3917 409.566 56.7717 410.233 45.6677 412.022C33.3997 413.998 35.6423 420.177 35.6423 420.177C35.6423 420.177 35.749 426.743 47.909 424.234C59.2277 421.898 89.393 411.115 93.5703 409.618C94.865 410.073 96.173 410.501 97.4957 410.914C102.714 412.543 108.118 413.825 113.738 414.785C114.673 414.946 115.62 415.091 116.568 415.238C115.793 415.506 114.806 415.839 113.645 416.227C108.721 417.922 100.712 420.698 92.4503 423.701C82.173 427.438 71.5063 431.537 65.9143 434.351C53.0343 440.839 57.6663 446.898 57.6663 446.898C57.6663 446.898 60.0957 454.133 72.681 447.099C74.5637 446.045 76.913 444.577 79.557 442.829C80.357 442.307 81.1837 441.759 82.0383 441.186C84.6277 439.438 87.417 437.489 90.261 435.487C93.505 433.178 96.8143 430.789 99.977 428.479C105.236 424.622 110.081 421.006 113.512 418.429C115.26 417.094 116.634 416.054 117.516 415.386C122.814 416.146 128.274 416.614 133.894 416.786C133.948 416.801 134.001 416.801 134.04 416.801C137.644 416.921 141.301 416.921 145.038 416.786C145.185 416.441 145.318 416.093 145.465 415.746C141.716 415.866 138.044 415.879 134.441 415.785H134.428C134.374 415.773 134.334 415.773 134.281 415.773C128.914 415.613 123.696 415.185 118.624 414.491C118.197 411.982 116.808 403.934 115.046 394.551C114.553 391.961 114.032 389.278 113.498 386.569C113.245 385.261 112.977 383.939 112.725 382.631C112.71 382.618 112.725 382.618 112.725 382.618C111.376 375.985 109.961 369.563 108.668 364.653C108.226 362.97 107.798 361.475 107.398 360.207C102.994 346.473 96.281 350.117 96.281 350.117C96.281 350.117 88.7663 351.385 93.757 364.919C95.1063 368.55 97.521 373.875 100.365 379.709C100.845 380.735 101.352 381.763 101.873 382.805C103.488 386.087 105.196 389.465 106.878 392.749C109.548 397.967 112.164 402.946 114.245 406.883C116.128 410.421 117.582 413.13 118.289 414.451C116.782 414.238 115.286 414.01 113.805 413.743C108.333 412.809 103.048 411.555 97.949 409.953C96.573 409.539 95.1983 409.099 93.8503 408.618C92.7957 403.694 86.0823 373.034 82.1183 362.33C77.793 350.677 72.1743 354.067 72.1743 354.067C72.1743 354.067 65.741 355.443 70.561 366.895C74.9103 377.238 90.5543 403.547 93.517 408.485C87.8037 406.469 82.345 404.041 77.1677 401.183C71.6677 398.141 66.529 394.63 61.777 390.721C61.817 387.89 62.137 359.941 60.8557 350.063C59.5077 339.666 54.2357 341.389 54.2357 341.389C54.2357 341.389 48.6823 341.307 50.485 351.639C52.1797 361.315 60.589 387.342 61.657 390.626C54.689 384.874 48.5757 378.227 43.4383 370.806C44.1317 365.959 47.7757 340.413 47.8157 330.937C47.8423 320.446 42.3957 321.459 42.3957 321.459C42.3957 321.459 36.897 320.646 37.325 331.123C37.6983 340.293 41.997 364.358 43.077 370.273C39.673 365.306 36.697 360.006 34.2157 354.401C31.1983 347.621 28.969 340.601 27.501 333.499C30.6517 328.787 44.3983 308.059 48.4157 299.703C52.9677 290.254 47.6023 288.826 47.6023 288.826C47.6023 288.826 42.9983 285.729 38.873 295.366C35.349 303.589 29.1037 326.185 27.3277 332.698C25.0717 321.353 24.7517 309.861 26.233 298.89C29.409 296.554 46.2143 284.127 51.6997 278.762C57.7597 272.837 54.089 270.259 54.089 270.259C54.089 270.259 51.433 266.642 45.6397 272.837C40.5423 278.282 29.009 294.578 26.2997 298.435C27.5543 289.546 29.9837 281.005 33.5743 273.17C37.645 271.514 52.101 265.534 57.2383 262.545C57.2517 262.531 57.2663 262.531 57.2797 262.517C63.2317 259.034 60.8423 256.271 60.8423 256.271C60.8423 256.271 59.709 253.454 55.1303 255.75C54.6637 255.991 54.1703 256.271 53.621 256.618C48.8837 259.649 37.965 268.911 33.9743 272.329C36.577 266.83 39.7397 261.703 43.4503 257.059C48.0157 253.067 57.3863 244.766 60.8023 240.869C65.3677 235.622 62.205 233.767 62.205 233.767C62.205 233.767 59.801 230.978 55.4637 236.41C52.1677 240.522 45.493 251.534 42.4637 256.618C38.7397 261.33 35.5623 266.509 32.9477 272.062C34.241 266.883 37.5637 253.149 38.153 247.582C38.8863 240.669 35.2157 240.975 35.2157 240.975C35.2157 240.975 31.6517 240.067 31.225 247.007C30.8503 253.121 32.0783 269.511 32.3863 273.302C28.997 280.843 26.6463 289.011 25.393 297.514C24.8717 291.669 23.2037 273.395 21.6157 266.482C19.7197 258.221 15.609 260.007 15.609 260.007C15.609 260.007 11.137 260.383 13.393 268.563C15.4077 275.879 23.537 294.738 25.2317 298.622C23.7903 309.074 23.9903 319.978 25.9263 330.777C23.1103 323.142 15.701 303.294 11.7517 295.886C6.82635 286.637 2.50101 290.107 2.50101 290.107C2.50101 290.107 -2.71765 291.989 2.60768 301.025C7.31968 309.006 22.8023 328.534 26.313 332.939C27.7943 340.373 30.1037 347.729 33.2543 354.829C35.5357 359.953 38.2197 364.813 41.249 369.417C35.7637 363.651 20.8543 348.115 14.221 342.842C6.01168 336.302 3.42235 341.201 3.42235 341.201Z" fill="#02796C"/>
<path d="M68.3682 319.633C68.3682 319.633 68.2349 311.53 83.3402 314.129C98.4429 316.727 140.84 330.489 140.84 330.489C140.84 330.489 96.2722 331.222 81.0682 329.281C65.8669 327.341 68.3682 319.633 68.3682 319.633Z" fill="#4EB572"/>
<path d="M92.2213 213.305C91.7813 216.752 89.8253 224.416 88.5839 229.089C88.2853 234.395 88.3053 241.605 89.4479 249.959C90.8599 245.241 95.3039 230.627 97.7599 225.257C100.708 218.82 103.764 220.984 103.764 220.984C103.764 220.984 107.357 222.04 104.132 228.345C101.321 233.84 91.9199 247.307 89.5506 250.677C90.2106 255.285 91.2079 260.221 92.6879 265.372C93.7119 268.941 95.0079 272.727 96.6319 276.653C98.0039 270.435 102.737 249.368 105.613 241.633C109.005 232.515 113.411 235.173 113.411 235.173C113.411 235.173 118.44 236.259 114.655 245.221C111.352 253.043 99.7973 272.487 96.9079 277.309C100.275 285.299 105.024 293.859 111.715 302.421C112.027 295.479 113.38 267.431 115.316 257.073C117.533 245.212 123.477 247.529 123.477 247.529C123.477 247.529 129.853 247.795 127.123 259.547C124.691 270.017 114.317 297.085 112.081 302.876C119.173 311.861 128.42 320.832 140.449 329.132C139.688 323.403 134.6 284.549 134.732 270.369C134.876 255.044 142.824 256.625 142.824 256.625C142.824 256.625 150.856 255.541 150.047 270.845C149.292 285.12 141.684 324.095 140.663 329.281C148.027 334.344 156.413 339.156 166.004 343.561L165.468 344.732C140.203 333.129 123.109 318.732 111.537 304.263C105.697 303.773 76.3999 301.245 65.8293 298.833C54.0666 296.151 56.6159 290.303 56.6159 290.303C56.6159 290.303 57.1306 283.943 68.7666 287.135C78.9119 289.916 104.659 300.929 111.092 303.707C104.047 294.789 99.0826 285.859 95.6066 277.548C91.7999 276.284 68.5546 268.509 60.5693 264.533C51.8599 260.197 54.9693 256.097 54.9693 256.097C54.9693 256.097 56.5799 251.212 65.0906 255.921C72.7306 260.148 91.6586 274.34 95.4679 277.212C93.8093 273.213 92.4906 269.361 91.4479 265.728C89.9546 260.52 88.9453 255.525 88.2773 250.86C85.1213 248.692 71.3119 239.143 66.7013 234.916C61.4826 230.129 64.4826 227.887 64.4826 227.887C64.4826 227.887 66.5933 224.795 71.5986 229.803C75.8759 234.081 85.4906 246.739 88.2026 250.337C87.0066 241.688 86.9959 234.224 87.3159 228.78C87.0826 223.935 86.7839 216.184 87.0706 212.76C87.5039 207.599 90.1426 208.331 90.1426 208.331C90.1426 208.331 92.8773 208.167 92.2213 213.305Z" fill="#4EB572"/>
<path d="M110.794 513.445C110.794 513.445 107.222 508.416 117.822 503.545C128.425 498.676 160.966 489.065 160.966 489.065C160.966 489.065 133.301 508.711 122.921 514.036C112.542 519.361 110.794 513.445 110.794 513.445Z" fill="#4EB572"/>
<path d="M73.2829 460.981C77.9935 461.647 90.7669 461.702 93.6909 461.702C96.1202 464.343 98.8962 467.041 102.087 469.67C104.302 471.498 106.784 473.353 109.547 475.142C105.918 474.982 87.9242 474.222 81.3175 474.862C73.9362 475.569 75.0309 479.319 75.0309 479.319C75.0309 479.319 74.8442 483.243 82.1855 482.217C88.8989 481.269 106.851 476.143 109.774 475.302C115.54 479.013 122.494 482.483 130.756 485.059C125.524 486.086 104.623 490.251 97.0535 492.867C88.3775 495.87 90.7949 500.089 90.7949 500.089C90.7949 500.089 91.7015 504.866 100.244 501.477C107.919 498.447 127.407 487.421 131.276 485.219C138.699 487.474 147.174 488.997 156.77 489.303C157.811 489.343 158.854 489.37 159.922 489.37H160.534C162.791 489.37 165.099 489.303 167.476 489.157C171.546 488.93 175.804 488.475 180.235 487.783C181.01 487.675 181.783 487.542 182.558 487.407L182.398 486.434C181.77 486.541 181.143 486.647 180.516 486.741C176.124 487.449 171.92 487.902 167.888 488.155C165.3 488.317 162.776 488.383 160.334 488.383C160.174 488.009 159.907 487.367 159.534 486.527C156.343 479.186 146.159 455.989 141.074 447.659C137.136 441.226 133.84 440.679 131.998 441.093C130.983 441.319 130.422 441.841 130.422 441.841C130.422 441.841 128.367 442.722 128.154 445.538C128.007 447.393 128.66 450.102 131.251 453.947C136.736 462.127 153.794 481.309 158.974 487.102C159.479 487.662 159.88 488.102 160.135 488.383C159.319 488.383 158.519 488.369 157.732 488.342C147.614 488.102 138.752 486.514 131.024 484.113C129.942 479.533 124.83 458.23 121.854 450.543C121.84 450.503 121.827 450.475 121.812 450.435C121.454 449.529 121.092 448.754 120.719 448.087V448.074C117.648 442.401 114.352 444.455 114.352 444.455C114.352 444.455 114.179 444.497 113.912 444.63C112.938 445.111 110.803 446.818 112.631 452.171C112.738 452.465 112.844 452.786 112.978 453.106V453.119C113.098 453.386 113.204 453.666 113.338 453.959C116.582 461.301 127.807 479.493 130.596 483.978C122.707 481.482 116.047 478.158 110.495 474.594C110.295 471.498 109.667 461.581 108.827 453.959C108.52 451.09 108.186 448.541 107.826 446.806C106.344 439.545 102.714 441.026 102.714 441.026C102.714 441.026 98.8029 441.253 100.604 448.447C100.912 449.689 101.419 451.317 102.032 453.146C104.435 460.313 108.599 470.725 110.04 474.301C107.331 472.526 104.89 470.711 102.699 468.909C99.5629 466.319 96.8135 463.65 94.4122 461.034C94.4375 459.098 94.4775 453.614 94.3709 448.594C94.3055 445.47 94.1842 442.521 93.9575 440.733C93.2629 435.394 90.5535 436.275 90.5535 436.275C90.5402 436.275 90.4215 436.275 90.2335 436.314C89.5669 436.474 87.8842 437.289 88.6189 441.547C89.3922 445.965 92.8895 457.057 94.0375 460.633C89.7269 455.882 86.6029 451.357 84.5082 447.899C83.8402 446.018 82.9202 443.482 82.0375 441.186C81.2775 439.25 80.5562 437.489 79.9962 436.421C78.1949 432.91 76.5522 434.191 76.5522 434.191C76.5522 434.191 74.5775 434.873 76.5269 438.303C77.1402 439.398 78.2882 441.053 79.5562 442.829C80.9175 444.723 82.4242 446.726 83.5869 448.247C85.7215 451.811 88.9389 456.482 93.4229 461.407C90.1669 460.313 78.6749 456.509 74.1495 455.655C68.8509 454.667 68.8655 457.523 68.8655 457.523C68.8655 457.523 67.9429 460.219 73.2829 460.981Z" fill="#4EB572"/>
<path d="M482.926 341.197C482.926 341.197 486.97 345.001 478.482 351.167C470.967 356.653 448.891 368.491 444.006 371.081C438.814 378.649 432.607 385.429 425.532 391.302C429.43 389.327 453.002 377.487 462.104 374.405C472.048 371.041 472.808 376.526 472.808 376.526C472.808 376.526 475.332 381.478 465.254 384.401C455.711 387.177 428.135 391.129 425.238 391.542C420.434 395.494 415.242 399.03 409.688 402.086C404.47 404.97 398.971 407.413 393.219 409.454C398.958 409.561 429.576 410.227 440.682 412.017C452.948 413.993 450.706 420.173 450.706 420.173C450.706 420.173 450.599 426.739 438.439 424.23C427.12 421.894 396.955 411.11 392.779 409.614C391.483 410.067 390.175 410.497 388.854 410.909C387.947 411.189 387.039 411.455 386.131 411.725C381.767 412.965 377.255 413.979 372.611 414.781C371.675 414.941 370.728 415.087 369.78 415.234C370.555 415.502 371.542 415.835 372.703 416.222C375.346 417.129 378.87 418.343 382.847 419.745C386.291 420.959 390.055 422.294 393.899 423.695C404.176 427.434 414.842 431.531 420.434 434.346C433.314 440.835 428.682 446.893 428.682 446.893C428.682 446.893 426.252 454.129 413.667 447.094C411.786 446.041 409.435 444.571 406.792 442.823C405.992 442.302 405.164 441.755 404.31 441.181C401.722 439.433 398.931 437.485 396.088 435.482C392.844 433.173 389.535 430.783 386.371 428.474C383.783 426.566 381.299 424.737 379.043 423.055C376.694 421.306 374.586 419.731 372.838 418.425C371.088 417.09 369.714 416.049 368.834 415.381C367.204 415.621 365.55 415.822 363.88 415.995C363.467 416.049 363.054 416.089 362.639 416.127C359.65 416.422 356.607 416.635 353.51 416.742C353.163 416.755 352.802 416.769 352.455 416.782C352.402 416.795 352.348 416.795 352.308 416.795C350.667 416.849 348.999 416.89 347.331 416.89C346.996 416.557 346.663 416.194 346.342 415.835C348.211 415.847 350.066 415.835 351.908 415.781H351.922C351.975 415.769 352.015 415.769 352.068 415.769C352.375 415.754 352.682 415.754 352.976 415.727C356.299 415.621 359.57 415.394 362.774 415.059C363.12 415.034 363.467 415.006 363.814 414.966C365.122 414.821 366.43 414.661 367.726 414.486C368.006 412.833 368.699 408.774 369.66 403.514C370.14 400.791 370.702 397.749 371.302 394.546C371.795 391.955 372.316 389.274 372.85 386.563C373.104 385.255 373.371 383.934 373.624 382.626V382.613C374.184 379.891 374.746 377.207 375.306 374.658C376.04 371.322 376.762 368.198 377.468 365.474C377.535 365.194 377.616 364.914 377.682 364.647C377.883 363.887 378.068 363.178 378.27 362.499C378.496 361.67 378.723 360.897 378.951 360.202C383.354 346.467 390.068 350.113 390.068 350.113C390.068 350.113 397.583 351.381 392.591 364.914C391.243 368.545 388.827 373.87 385.984 379.703C385.504 380.73 384.996 381.759 384.476 382.799C383.567 384.642 382.634 386.523 381.686 388.391C380.952 389.846 380.204 391.302 379.47 392.743C378.056 395.519 376.655 398.229 375.334 400.738C374.172 402.954 373.076 405.037 372.103 406.879C370.222 410.415 368.766 413.125 368.059 414.447C369.566 414.233 371.062 414.006 372.543 413.738C377.255 412.939 381.82 411.897 386.251 410.603C386.971 410.39 387.692 410.174 388.399 409.947C389.775 409.535 391.15 409.094 392.498 408.614C393.552 403.689 400.266 373.029 404.231 362.325C408.555 350.671 414.174 354.062 414.174 354.062C414.174 354.062 420.607 355.438 415.788 366.89C411.438 377.234 395.794 403.542 392.831 408.481C398.544 406.465 404.003 404.035 409.182 401.178C414.68 398.135 419.82 394.625 424.571 390.715C424.531 387.885 424.211 359.935 425.492 350.058C426.84 339.661 432.114 341.383 432.114 341.383C432.114 341.383 437.666 341.302 435.863 351.634C434.168 361.31 425.759 387.337 424.691 390.621C431.659 384.869 437.772 378.222 442.911 370.801C442.216 365.955 438.572 340.409 438.532 330.931C438.507 320.441 443.952 321.455 443.952 321.455C443.952 321.455 449.451 320.641 449.023 331.118C448.65 340.287 444.351 364.353 443.271 370.267C446.675 365.301 449.651 360.002 452.134 354.395C455.151 347.615 457.379 340.595 458.847 333.494C455.698 328.782 441.95 308.055 437.932 299.699C433.38 290.249 438.746 288.821 438.746 288.821C438.746 288.821 443.351 285.725 447.475 295.361C451 303.583 457.246 326.181 459.02 332.694C461.278 321.349 461.598 309.855 460.116 298.885C456.939 296.549 440.134 284.122 434.648 278.757C428.588 272.831 432.259 270.254 432.259 270.254C432.259 270.254 434.915 266.637 440.708 272.831C445.807 278.277 457.34 294.573 460.048 298.431C458.794 289.542 456.364 281.001 452.775 273.165C448.703 271.509 434.248 265.529 429.11 262.539C429.096 262.526 429.083 262.526 429.068 262.513C423.118 259.029 425.506 256.266 425.506 256.266C425.506 256.266 426.64 253.45 431.219 255.745C431.686 255.986 432.179 256.266 432.727 256.613C437.464 259.643 448.383 268.906 452.374 272.323C449.771 266.825 446.608 261.698 442.898 257.055C438.332 253.062 428.962 244.762 425.546 240.863C420.98 235.618 424.144 233.763 424.144 233.763C424.144 233.763 426.547 230.974 430.886 236.405C434.18 240.517 440.855 251.529 443.886 256.613C447.61 261.326 450.786 266.503 453.402 272.057C452.107 266.878 448.784 253.143 448.196 247.577C447.462 240.663 451.132 240.97 451.132 240.97C451.132 240.97 454.696 240.062 455.123 247.002C455.498 253.115 454.27 269.506 453.962 273.298C457.352 280.838 459.702 289.007 460.956 297.509C461.476 291.665 463.146 273.391 464.732 266.477C466.628 258.215 470.739 260.003 470.739 260.003C470.739 260.003 475.211 260.378 472.955 268.558C470.94 275.874 462.811 294.733 461.118 298.617C462.559 309.069 462.358 319.974 460.423 330.771C463.238 323.137 470.647 303.289 474.598 295.882C479.522 286.631 483.847 290.102 483.847 290.102C483.847 290.102 489.066 291.985 483.74 301.021C479.028 309.002 463.546 328.529 460.035 332.934C458.554 340.369 456.244 347.723 453.095 354.825C450.812 359.949 448.13 364.807 445.1 369.411C450.586 363.646 465.495 348.11 472.127 342.837C480.338 336.297 482.926 341.197 482.926 341.197Z" fill="#02796C"/>
<path d="M417.978 319.633C417.978 319.633 418.112 311.53 403.008 314.129C387.904 316.727 345.508 330.489 345.508 330.489C345.508 330.489 390.076 331.222 405.278 329.281C420.48 327.341 417.978 319.633 417.978 319.633Z" fill="#4EB572"/>
<path d="M394.126 213.305C394.566 216.752 396.522 224.416 397.764 229.089C398.064 234.395 398.042 241.605 396.901 249.959C395.488 245.241 391.045 230.627 388.588 225.257C385.64 218.82 382.584 220.984 382.584 220.984C382.584 220.984 378.99 222.04 382.216 228.345C385.028 233.84 394.428 247.307 396.797 250.677C396.137 255.285 395.14 260.221 393.661 265.372C392.637 268.941 391.341 272.727 389.716 276.653C388.345 270.435 383.612 249.368 380.734 241.633C377.342 232.515 372.937 235.173 372.937 235.173C372.937 235.173 367.909 236.259 371.694 245.221C374.997 253.043 386.552 272.487 389.44 277.309C386.073 285.299 381.324 293.859 374.633 302.421C374.321 295.479 372.968 267.431 371.032 257.073C368.816 245.212 362.87 247.529 362.87 247.529C362.87 247.529 356.494 247.795 359.225 259.547C361.657 270.017 372.03 297.085 374.268 302.876C367.174 311.861 357.928 320.832 345.9 329.132C346.661 323.403 351.749 284.549 351.616 270.369C351.473 255.044 343.524 256.625 343.524 256.625C343.524 256.625 335.492 255.541 336.301 270.845C337.056 285.12 344.664 324.095 345.685 329.281C338.321 334.344 329.934 339.156 320.344 343.561L320.88 344.732C346.145 333.129 363.238 318.732 374.81 304.263C380.65 303.773 409.948 301.245 420.518 298.833C432.282 296.151 429.733 290.303 429.733 290.303C429.733 290.303 429.217 283.943 417.582 287.135C407.436 289.916 381.689 300.929 375.257 303.707C382.301 294.789 387.265 285.859 390.741 277.548C394.548 276.284 417.793 268.509 425.778 264.533C434.488 260.197 431.38 256.097 431.38 256.097C431.38 256.097 429.769 251.212 421.257 255.921C413.617 260.148 394.689 274.34 390.88 277.212C392.538 273.213 393.857 269.361 394.9 265.728C396.394 260.52 397.402 255.525 398.07 250.86C401.228 248.692 415.036 239.143 419.646 234.916C424.865 230.129 421.866 227.887 421.866 227.887C421.866 227.887 419.756 224.795 414.749 229.803C410.473 234.081 400.857 246.739 398.145 250.337C399.341 241.688 399.352 234.224 399.032 228.78C399.265 223.935 399.565 216.184 399.277 212.76C398.845 207.599 396.205 208.331 396.205 208.331C396.205 208.331 393.47 208.167 394.126 213.305Z" fill="#4EB572"/>
<path d="M375.551 513.445C375.551 513.445 379.124 508.416 368.523 503.545C357.92 498.676 325.379 489.065 325.379 489.065C325.379 489.065 353.044 508.711 363.424 514.036C373.803 519.361 375.551 513.445 375.551 513.445Z" fill="#4EB572"/>
<path d="M413.067 460.975C408.355 461.643 395.582 461.697 392.658 461.697C390.23 464.338 387.452 467.035 384.262 469.666C382.047 471.494 379.564 473.349 376.802 475.137C380.431 474.977 398.426 474.217 405.032 474.857C412.412 475.563 411.318 479.314 411.318 479.314C411.318 479.314 411.504 483.239 404.163 482.211C397.45 481.263 379.498 476.138 376.575 475.297C370.81 479.007 363.855 482.478 355.594 485.055C360.824 486.082 381.727 490.246 389.295 492.862C397.971 495.866 395.555 500.083 395.555 500.083C395.555 500.083 394.648 504.862 386.104 501.471C378.43 498.442 358.943 487.417 355.072 485.215C347.651 487.47 339.175 488.991 329.579 489.298C328.538 489.338 327.496 489.366 326.428 489.366H325.774C325.32 489.366 324.867 489.366 324.414 489.353C322.598 489.338 320.756 489.273 318.874 489.151C314.803 488.925 310.544 488.471 306.114 487.778C305.339 487.67 304.566 487.537 303.791 487.402L303.898 486.789L303.952 486.429C304.579 486.535 305.206 486.642 305.834 486.735C305.954 486.749 306.074 486.777 306.195 486.789C310.452 487.47 314.536 487.91 318.46 488.151C320.463 488.271 322.438 488.337 324.36 488.365C324.907 488.378 325.468 488.378 326.015 488.378C326.162 488.045 326.388 487.498 326.696 486.789C326.736 486.709 326.775 486.615 326.816 486.522C328.096 483.586 330.499 478.101 333.25 472.041C337.347 462.978 342.232 452.647 345.275 447.655C349.212 441.222 352.51 440.674 354.351 441.089C355.366 441.315 355.927 441.837 355.927 441.837C355.927 441.837 357.983 442.717 358.196 445.533C358.342 447.389 357.688 450.098 355.098 453.942C351.135 459.854 341.124 471.506 333.916 479.702C331.327 482.666 329.098 485.162 327.644 486.789C327.55 486.895 327.47 487.003 327.376 487.097C326.87 487.657 326.47 488.097 326.215 488.378C327.03 488.378 327.83 488.365 328.618 488.337C338.735 488.097 347.596 486.509 355.326 484.107C356.407 479.529 361.519 458.225 364.495 450.538C364.508 450.498 364.522 450.471 364.536 450.431C364.896 449.523 365.256 448.749 365.63 448.082V448.069C368.7 442.395 371.996 444.451 371.996 444.451C371.996 444.451 372.17 444.491 372.436 444.625C373.412 445.106 375.547 446.814 373.718 452.167C373.611 452.459 373.504 452.781 373.372 453.101V453.114C373.252 453.381 373.146 453.662 373.011 453.954C369.767 461.295 358.542 479.489 355.754 483.973C363.642 481.477 370.302 478.154 375.855 474.59C376.054 471.494 376.682 461.575 377.523 453.954C377.83 451.085 378.163 448.535 378.524 446.801C380.006 439.539 383.636 441.021 383.636 441.021C383.636 441.021 387.546 441.249 385.744 448.442C385.438 449.683 384.93 451.313 384.316 453.141C381.914 460.309 377.75 470.719 376.308 474.295C379.018 472.521 381.46 470.706 383.65 468.903C386.786 466.314 389.536 463.645 391.938 461.029C391.911 459.094 391.871 453.609 391.978 448.59C392.044 445.465 392.164 442.515 392.391 440.727C393.086 435.389 395.795 436.27 395.795 436.27C395.808 436.27 395.928 436.27 396.115 436.31C396.783 436.47 398.464 437.283 397.731 441.542C396.956 445.959 393.459 457.051 392.312 460.627C396.623 455.877 399.746 451.351 401.842 447.894C402.508 446.013 403.43 443.477 404.311 441.181C405.071 439.246 405.792 437.485 406.354 436.417C408.154 432.906 409.796 434.187 409.796 434.187C409.796 434.187 411.771 434.867 409.823 438.298C409.208 439.393 408.062 441.047 406.794 442.823C405.431 444.718 403.924 446.721 402.762 448.242C400.627 451.806 397.411 456.477 392.926 461.402C396.182 460.309 407.674 456.503 412.199 455.65C417.498 454.662 417.484 457.518 417.484 457.518C417.484 457.518 418.406 460.215 413.067 460.975Z" fill="#4EB572"/>
<path d="M278.547 188.419C287.587 179.374 296.453 180.715 297.575 193.838C298.698 206.961 284.522 214.661 275.451 208.885C266.382 203.107 278.547 188.419 278.547 188.419Z" fill="#DE786E"/>
<path d="M286.629 190.363C291.42 190.465 290.963 204.708 280.744 203.084L282.745 200.392L283.493 197.485L282.676 194.317L286.629 190.363Z" fill="#924F4C"/>
<path d="M278.842 204.66C286.036 199.58 282.676 194.317 282.676 194.317C282.676 194.317 290.659 183.948 291.098 193.241" stroke="#33334F" stroke-width="0.668" stroke-miterlimit="10"/>
<path d="M276.857 205.256C275.833 210.135 274.409 214.82 272.493 219.051C271.617 220.995 270.618 222.873 269.506 224.637C268.606 226.081 267.624 227.443 266.554 228.733C260.002 236.664 250.221 241.563 235.822 240.511C223.465 239.633 215.341 233.48 210.122 224.881C210.054 224.791 210.001 224.691 209.945 224.6L209.94 224.575C209.565 223.931 209.202 223.303 208.858 222.641L208.861 222.629C205.478 216.212 203.488 208.477 202.425 200.509C199.302 177.268 203.937 152.055 203.937 152.055L277.136 150.191C277.136 150.191 282.113 180.26 276.857 205.256Z" fill="#DE786E"/>
<mask id="mask4_1197_413" style="mask-type:luminance" maskUnits="userSpaceOnUse" x="254" y="202" width="23" height="27">
<path d="M254.84 202.092H276.857V228.733H254.84V202.092Z" fill="white"/>
</mask>
<g mask="url(#mask4_1197_413)">
<g opacity="0.300003">
<path d="M276.858 205.256C275.834 210.135 274.41 214.82 272.494 219.051C271.618 220.995 270.62 222.873 269.508 224.637C268.608 226.081 267.625 227.443 266.556 228.733C266.124 228.685 265.684 228.611 265.25 228.512C258.04 226.867 253.534 219.7 255.178 212.489C256.821 205.291 263.988 200.785 271.198 202.431C273.356 202.923 275.274 203.919 276.858 205.256Z" fill="#772C2B"/>
</g>
</g>
<mask id="mask5_1197_413" style="mask-type:luminance" maskUnits="userSpaceOnUse" x="202" y="198" width="22" height="27">
<path d="M202.426 198.12H223.412V224.883H202.426V198.12Z" fill="white"/>
</mask>
<g mask="url(#mask5_1197_413)">
<g opacity="0.300003">
<path d="M223.075 214.479C221.667 220.652 216.207 224.849 210.123 224.881C210.055 224.791 210.002 224.691 209.946 224.6L209.939 224.575C209.566 223.931 209.203 223.303 208.859 222.641L208.862 222.629C205.479 216.212 203.488 208.477 202.426 200.509C205.395 198.447 209.194 197.588 213.003 198.456C220.214 200.101 224.716 207.28 223.075 214.479Z" fill="#772C2B"/>
</g>
</g>
<path d="M256.012 167.003C266.967 171.613 274.376 170.759 265.215 165.995C256.052 161.23 250.335 164.614 256.012 167.003Z" fill="#33334F"/>
<path d="M224.7 166.698C213.524 170.743 206.168 169.514 215.561 165.223C224.953 160.931 230.491 164.602 224.7 166.698Z" fill="#33334F"/>
<path d="M261.52 201.25C254.165 201.357 248.08 195.43 247.986 188.077C247.973 186.674 248.172 185.313 248.56 184.018C250.202 178.586 255.193 174.609 261.158 174.542C262.106 174.515 263.042 174.609 263.949 174.795C266.525 175.303 268.834 176.557 270.65 178.333C271.144 178.799 271.584 179.321 271.985 179.854C273.68 182.03 274.666 184.751 274.708 187.715C274.801 195.07 268.888 201.157 261.52 201.25ZM219.449 201.823H219.249C215.698 201.81 212.441 200.409 210.052 198.126C207.53 195.737 205.954 192.387 205.901 188.65C205.861 184.618 207.597 180.989 210.385 178.506C212.696 176.437 215.738 175.155 219.076 175.102C224.588 175.023 229.392 178.319 231.489 183.071C232.196 184.671 232.597 186.434 232.622 188.289C232.729 195.643 226.817 201.718 219.449 201.823ZM275.428 179.226C274.481 177.678 273.266 176.305 271.878 175.155C269.568 173.247 266.752 171.966 263.668 171.526C262.841 171.405 261.988 171.338 261.12 171.365C253.164 171.473 246.624 177.145 245.116 184.633C245.116 184.671 245.102 184.725 245.102 184.751C245.049 184.725 245.009 184.699 244.956 184.671C243.634 183.751 241.926 182.95 239.95 182.977H239.884C238.589 183.018 237.361 183.39 236.226 184.098C235.933 184.273 235.64 184.473 235.36 184.699C235.292 184.433 235.225 184.151 235.105 183.858V183.845C233.09 176.891 226.63 171.833 219.036 171.939C214.109 171.993 209.692 174.234 206.714 177.718C204.393 180.427 202.952 183.858 202.765 187.609C202.738 187.955 202.738 188.317 202.738 188.677C202.792 192.441 204.112 195.911 206.274 198.661C207.022 199.621 207.877 200.489 208.825 201.263C209.398 201.743 210.012 202.171 210.666 202.571C212.468 203.679 214.51 204.453 216.686 204.801H216.7C217.606 204.947 218.542 205.014 219.489 205.001C220.21 204.987 220.917 204.934 221.61 204.827C229.513 203.693 235.6 196.951 235.772 188.823C236.52 187.862 237.281 187.141 238.082 186.715C238.682 186.354 239.324 186.167 239.964 186.154H239.992C241.86 186.114 243.514 187.422 244.409 188.317C244.582 188.475 244.742 188.623 244.849 188.743C245.289 197.273 252.204 204.079 260.718 204.387C260.998 204.413 261.293 204.413 261.573 204.413C264.524 204.373 267.286 203.559 269.661 202.171C270.636 201.597 271.557 200.929 272.384 200.169C275.401 197.459 277.417 193.655 277.804 189.397C277.857 188.823 277.884 188.25 277.87 187.662C277.817 184.579 276.937 181.682 275.428 179.226Z" fill="white"/>
<path d="M235.336 229.02C235.352 230.224 237.591 231.172 240.336 231.136C243.081 231.1 245.293 230.092 245.277 228.886C245.261 227.681 243.023 226.734 240.277 226.77C237.532 226.808 235.32 227.814 235.336 229.02Z" fill="#924F4C"/>
<path d="M250.826 186.811C251.914 188.247 253.181 189.484 254.593 190.536C256.033 191.528 257.62 192.371 259.465 192.648C261.266 192.965 263.432 192.775 265.334 191.417C267.27 190.136 268.602 187.953 269.452 185.861L269.296 185.737C267.61 187.121 266.245 188.572 264.66 189.281C263.153 190.048 261.578 190.684 259.918 190.679C258.274 190.677 256.688 190.139 255.202 189.412C253.7 188.703 252.265 187.771 250.988 186.619L250.826 186.811Z" fill="#33334F"/>
<path d="M229.832 186.809C228.744 188.245 227.479 189.482 226.067 190.535C224.627 191.527 223.04 192.37 221.195 192.647C219.395 192.966 217.23 192.775 215.326 191.418C213.388 190.138 212.056 187.955 211.207 185.865L211.364 185.741C213.05 187.123 214.415 188.574 216 189.282C217.507 190.049 219.082 190.685 220.742 190.679C222.386 190.677 223.971 190.138 225.458 189.411C226.96 188.701 228.394 187.769 229.672 186.617L229.832 186.809Z" fill="#33334F"/>
<path d="M233.189 202.697C234.279 206.311 236.876 208.86 239.925 208.884C242.839 208.907 245.376 206.616 246.595 203.275" stroke="#33334F" stroke-width="0.668" stroke-miterlimit="10"/>
<path d="M228.029 214.867C228.029 214.867 232.007 224.292 249.131 218.532" stroke="#33334F" stroke-width="0.668" stroke-miterlimit="10"/>
<path d="M158.693 417.469C158.693 417.469 173.161 406.176 175.43 375.738L148.369 362.722L136.746 384.416L158.693 417.469Z" fill="#924F4C"/>
<path d="M364.443 423.297C364.336 423.31 364.23 423.31 364.123 423.325C363.91 423.337 363.708 423.35 363.508 423.364C363.295 423.378 363.068 423.378 362.855 423.378H362.707H362.682C359.572 423.337 356.635 422.416 353.871 420.816C351.656 419.533 349.56 417.838 347.572 415.81C347.492 415.729 347.412 415.649 347.332 415.556C346.998 415.222 346.664 414.861 346.344 414.501C345.45 413.513 344.57 412.473 343.728 411.365C338.296 404.29 333.916 395.16 330.688 387.058C330.594 386.832 330.5 386.592 330.407 386.365C330.355 386.245 330.314 386.138 330.26 386.018C327.338 378.49 325.415 371.99 324.587 369.026C324.547 368.893 324.427 368.64 324.227 368.293C323.747 367.425 322.826 365.984 321.824 364.422C319.783 361.258 317.354 357.656 317.354 357.656L320.624 356.88L323.159 356.266L329.994 354.652L335.452 353.344H359.946L360.212 357.494L360.679 364.822L361.134 371.857L361.479 377.156L361.92 384.016L361.987 385.057L362.082 386.497L362.214 388.701L363.482 408.362L363.615 410.337L363.815 413.633L363.882 414.661L364.443 423.297Z" fill="#924F4C"/>
<path d="M327.922 548.513H254.21C253.911 546.837 253.102 545.331 251.938 544.167C250.459 542.675 248.399 541.765 246.127 541.765C242.093 541.765 238.741 544.677 238.059 548.513H164.162L164.673 539.649L166.393 509.888V509.847L166.406 509.619L167.657 487.956L167.898 483.779H324.171L324.414 487.956L324.443 488.524L325.665 509.619L327.922 548.513Z" fill="#3E3B69"/>
<path d="M254.421 517.635C254.421 519.998 253.46 522.149 251.912 523.71C250.349 525.258 248.201 526.218 245.825 526.218C241.1 526.218 237.229 522.375 237.229 517.635V483.921H254.421V517.635ZM236.949 483.641V517.635C236.949 522.535 240.94 526.513 245.825 526.513C250.736 526.513 254.715 522.535 254.715 517.635V483.641H236.949Z" fill="white"/>
<path d="M166.396 509.895V509.613C177.738 509.613 185.49 500.908 189.438 483.739L189.714 483.801C185.731 501.116 177.886 509.895 166.396 509.895Z" fill="white"/>
<path d="M325.666 509.895C314.176 509.895 306.331 501.116 302.35 483.801L302.624 483.739C306.574 500.908 314.326 509.613 325.666 509.613V509.895Z" fill="white"/>
<mask id="mask6_1197_413" style="mask-type:luminance" maskUnits="userSpaceOnUse" x="164" y="488" width="164" height="61">
<path d="M164.16 488.524H327.922V548.513H164.16V488.524Z" fill="white"/>
</mask>
<g mask="url(#mask6_1197_413)">
<g opacity="0.199997">
<path d="M327.92 548.513H254.208C253.909 546.837 253.1 545.331 251.936 544.167C250.457 542.675 248.397 541.765 246.125 541.765C242.091 541.765 238.739 544.677 238.057 548.513H164.16L164.671 539.649C285.829 545.573 315.973 525.713 321.088 509.377C321.129 509.292 321.159 509.193 321.172 509.107C324.256 498.852 317.536 490.059 317.536 490.059L324.441 488.524L325.663 509.619L327.92 548.513Z" fill="#33334F"/>
</g>
</g>
<path d="M147.414 293.91L118.537 356.605L177.76 394.531L193.478 296.761L147.414 293.91Z" fill="#FFD57B"/>
<path d="M336.831 293.231L319.467 298.024L317.693 298.517L316.745 298.757V298.769L311.939 300.092H311.925L305.346 301.907L305.079 301.987H305.066L304.838 302.053L302.41 302.721L296.79 304.283H296.777L228.303 323.156L206.374 315.375L193.587 310.864L189.998 309.541L147.418 293.912C147.418 293.912 151.063 288.293 160.113 281.271H160.126C166.346 276.44 175.129 270.955 187.034 266.203C188.517 265.615 190.05 265.041 191.626 264.468C193.842 263.68 196.15 262.92 198.567 262.185C201.077 261.425 203.679 260.716 206.402 260.063C207.843 259.703 209.31 259.369 210.819 259.048C210.819 259.048 217.813 256.42 220.95 252.803L262.526 251.44C262.526 251.44 262.541 251.453 262.541 251.481C265.077 255.217 269.161 257.593 273.645 258.008C274.873 258.128 276.289 258.273 277.877 258.501C279.638 258.741 281.586 259.061 283.709 259.476C285.363 259.811 287.113 260.196 288.942 260.649C291.945 261.411 295.162 262.372 298.485 263.573C299.393 263.893 300.313 264.241 301.249 264.613C304.291 265.815 307.402 267.244 310.511 268.912C314.249 270.901 317.971 273.251 321.577 276.013C323.31 277.335 325.006 278.749 326.661 280.284C327.195 280.764 327.729 281.271 328.249 281.779C328.663 282.193 329.078 282.593 329.491 283.02C329.558 283.073 329.625 283.153 329.678 283.235C330.145 283.688 330.573 284.141 330.999 284.608C331.414 285.063 331.826 285.503 332.201 285.957C332.427 286.211 332.654 286.464 332.867 286.731C333.242 287.145 333.602 287.585 333.963 288.039L336.831 293.231Z" fill="#DE786E"/>
<path d="M301.247 264.613L297.643 272.783L243.119 284.969L229.838 279.243C264.715 279.123 277.877 258.501 277.877 258.501C279.638 258.741 281.586 259.061 283.709 259.475C285.363 259.809 287.111 260.196 288.942 260.649C291.943 261.411 295.162 262.372 298.485 263.573C299.391 263.893 300.313 264.241 301.247 264.613Z" fill="#3E3B69"/>
<path d="M336.831 293.231L319.467 298.024L317.693 298.517L316.745 298.757V298.769L311.939 300.092H311.925L305.346 301.907L305.079 301.987H305.066L304.838 302.053L302.41 302.721L296.79 304.283H296.777L228.303 323.156L206.374 315.375L193.587 310.864L189.998 309.541L147.418 293.912C147.418 293.912 151.063 288.293 160.113 281.271H160.126C166.346 276.44 175.129 270.955 187.034 266.203C188.517 265.615 190.05 265.041 191.626 264.468C193.842 263.68 196.15 262.92 198.567 262.185C198.567 262.185 238.222 304.576 288.942 260.649C291.945 261.411 295.162 262.372 298.485 263.573C302.395 264.975 306.454 266.736 310.511 268.912C314.249 270.901 317.971 273.251 321.577 276.013C323.31 277.335 325.006 278.749 326.661 280.284C327.195 280.764 327.729 281.271 328.249 281.779C328.663 282.193 329.078 282.593 329.491 283.02C329.558 283.073 329.625 283.153 329.678 283.235C330.145 283.688 330.573 284.141 330.999 284.608C331.414 285.063 331.826 285.503 332.201 285.957C332.427 286.211 332.654 286.464 332.867 286.731C333.242 287.145 333.602 287.585 333.963 288.039L336.831 293.231Z" fill="#FFD57B"/>
<path d="M379.499 363.181L377.471 364.141L371.918 366.758L361.134 371.857L340.725 381.492L340.579 381.56L330.407 386.365L326.003 388.448L325.67 388.594V388.606L321.385 390.622L306.41 346.697L300.389 329.064L302.725 316.892L303.273 314.076L305.302 303.532L305.635 301.822L307.023 294.589L321.25 291.132L333.958 288.036L340.258 298.42L347.986 311.192L354.273 321.562L354.954 322.685L356.729 325.594L358.958 329.278L378.271 361.165L379.499 363.181Z" fill="#FFD57B"/>
<path d="M271.455 311.718V485.46H159.283L160.739 468.896L174.339 314.547L222.377 313.146L246.923 312.438L271.455 311.718Z" fill="#FFD57B"/>
<path d="M334.544 485.456H222.373V311.712L246.918 312.433L265.257 312.968L271.452 313.141L301.162 314.009L303.272 314.076L308.582 314.221L319.488 314.542L320.116 321.616L320.809 329.532L321.237 334.404L321.864 341.518L321.984 342.878L323.158 356.265L324.226 368.293L326.002 388.448L327.082 400.74V400.753L333.249 470.706L333.916 478.369L334.544 485.456Z" fill="#FFD57B"/>
<mask id="mask7_1197_413" style="mask-type:luminance" maskUnits="userSpaceOnUse" x="159" y="400" width="176" height="86">
<path d="M159.279 400.753H334.543V485.456H159.279V400.753Z" fill="white"/>
</mask>
<g mask="url(#mask7_1197_413)">
<g opacity="0.100006">
<path d="M334.543 485.456H159.279L160.734 468.892C184.518 470.148 204.901 469.56 222.373 467.637C242.273 465.434 258.398 461.525 271.451 456.625C324.146 436.925 327.015 401.568 327.082 400.753L333.249 470.706L333.915 478.369L334.543 485.456Z" fill="#3E3B69"/>
</g>
</g>
<path d="M195.524 301.718L173.16 315.19L178.605 351.294L257.476 364.227L317.359 342.772L304.844 302.044L195.524 301.718Z" fill="#FFD57B"/>
<path d="M167.854 388.188L173.159 339.333" stroke="#33334F" stroke-width="0.668" stroke-miterlimit="10"/>
<path d="M165.191 339.964L171.258 353.977" stroke="#33334F" stroke-width="0.668" stroke-miterlimit="10"/>
<path d="M317.359 336.365L325.666 388.603" stroke="#33334F" stroke-width="0.668" stroke-miterlimit="10"/>
<path d="M321.513 342.412L320.293 354.813" stroke="#33334F" stroke-width="0.668" stroke-miterlimit="10"/>
<path d="M300.578 312.692C300.578 312.692 293.901 309.741 286.73 309.229C279.561 308.718 282.517 302.18 288.946 302.624C288.946 302.624 285.601 301.489 280.897 301.534C276.196 301.58 276.208 296.458 279.284 295.168C279.284 295.168 276.161 294.916 275.982 291.818C275.804 288.72 279.732 287.458 281.13 287.221C281.13 287.221 278.186 280.59 290.872 280.858C303.556 281.125 318.777 285.098 332.322 302.033C341.64 313.684 337.998 323.532 332.865 327.146C323.538 333.71 306.794 327.714 300.578 312.692Z" fill="#DE786E"/>
<path d="M288.947 302.624C299.665 303.488 303.79 305.834 303.79 305.834" stroke="#33334F" stroke-width="0.668" stroke-miterlimit="10"/>
<path d="M303.502 298.621C303.502 298.621 296.55 294.73 279.283 295.168" stroke="#33334F" stroke-width="0.668" stroke-miterlimit="10"/>
<path d="M281.131 287.221C292.522 285.688 304.775 290.616 304.775 290.616" stroke="#33334F" stroke-width="0.668" stroke-miterlimit="10"/>
<path d="M386.253 409.27C386.225 409.656 386.186 410.03 386.133 410.391C385.892 412.166 385.452 413.727 384.85 415.102C384.304 416.356 383.637 417.451 382.849 418.411C382.114 419.347 381.261 420.147 380.34 420.842C379.926 421.162 379.5 421.456 379.045 421.722C377.257 422.816 375.269 423.576 373.225 424.058C370.209 424.792 367.178 424.686 364.377 423.884C363.856 423.739 363.349 423.576 362.854 423.378C358.998 421.908 355.661 419.12 353.512 415.408C353.325 415.075 353.152 414.742 352.978 414.395C352.644 413.74 352.364 413.074 352.11 412.366C351.91 411.764 351.697 411.164 351.484 410.564C351.349 410.178 351.202 409.803 351.069 409.43C350.454 407.707 349.854 406.039 349.254 404.384L348.493 402.302C348.306 401.768 348.118 401.26 347.933 400.752C347.518 399.619 347.105 398.511 346.705 397.39L346.69 397.376C346.424 396.63 346.144 395.895 345.877 395.147C344.102 390.355 342.381 385.804 340.725 381.492C339.044 377.13 337.428 373.018 335.893 369.132C335.306 367.666 334.732 366.224 334.158 364.822C333.264 362.62 332.396 360.498 331.568 358.456C331.034 357.162 330.501 355.88 329.994 354.651C329.82 354.251 329.66 353.851 329.5 353.464C327.658 349.074 325.976 345.148 324.481 341.704C324.308 341.303 324.134 340.904 323.96 340.518C322.96 338.26 322.065 336.219 321.237 334.404C320.33 332.362 319.516 330.586 318.836 329.118L318.822 329.104V329.091C317.06 325.34 316.125 323.418 316.125 323.418L320.116 321.616L321.438 321.016L331.996 316.238L335.025 312.554L336.534 310.726C336.534 310.726 336.881 311.206 337.602 312.287V312.299C337.602 312.314 337.614 312.314 337.628 312.327C338.162 313.115 338.884 314.208 339.804 315.664C340.137 316.196 340.498 316.758 340.885 317.386C341.86 318.974 343.18 320.908 344.769 323.219C345.236 323.886 345.73 324.579 346.237 325.314C346.57 325.807 346.918 326.302 347.278 326.822C347.532 327.17 347.773 327.53 348.026 327.904C348.118 328.023 348.2 328.143 348.28 328.263C348.493 328.571 348.706 328.878 348.934 329.198C349.094 329.424 349.254 329.651 349.414 329.892C350.628 331.668 351.937 333.55 353.298 335.591C353.993 336.646 354.7 337.727 355.434 338.822C355.633 339.168 355.861 339.488 356.061 339.823C357.717 342.346 359.438 345.08 361.24 348.019C361.96 349.206 362.708 350.434 363.469 351.702L363.456 351.715C366.098 356.132 368.836 360.952 371.637 366.224C371.73 366.398 371.825 366.583 371.918 366.758C372.265 367.411 372.613 368.067 372.946 368.719C373.266 369.334 373.6 369.947 373.92 370.575C373.92 370.575 373.933 370.615 373.96 370.668C374.413 371.535 374.854 372.416 375.308 373.324C376.362 375.407 377.417 377.556 378.457 379.758C378.51 379.852 378.578 379.971 378.617 380.078C379.78 382.547 380.808 384.856 381.688 387.059C383.409 391.37 384.612 395.2 385.358 398.604C385.44 398.951 385.505 399.298 385.585 399.631C385.638 399.899 385.678 400.166 385.72 400.419C386.333 403.81 386.48 406.734 386.253 409.27Z" fill="#DE786E"/>
<mask id="mask8_1197_413" style="mask-type:luminance" maskUnits="userSpaceOnUse" x="362" y="398" width="25" height="27">
<path d="M362.59 398.739H386.353V424.552H362.59V398.739Z" fill="white"/>
</mask>
<g mask="url(#mask8_1197_413)">
<g opacity="0.300003">
<path d="M386.252 409.27C386.224 409.656 386.185 410.03 386.132 410.391C385.89 412.166 385.45 413.727 384.849 415.102C384.302 416.356 383.636 417.451 382.848 418.411C382.113 419.347 381.26 420.147 380.338 420.842C379.925 421.162 379.498 421.456 379.044 421.722C377.256 422.816 375.268 423.576 373.224 424.058C370.208 424.792 367.177 424.686 364.376 423.884C364.281 423.698 364.201 423.511 364.121 423.324C363.613 422.202 363.226 421.015 362.96 419.76C362.613 418.092 362.52 416.423 362.64 414.795C362.668 414.435 362.706 414.087 362.774 413.727C362.934 412.567 363.214 411.431 363.613 410.338C364.776 407.094 366.872 404.25 369.661 402.182C371.316 400.94 373.237 399.992 375.334 399.406C375.721 399.286 376.108 399.191 376.508 399.112C379.645 398.459 382.754 398.686 385.584 399.631C385.637 399.899 385.677 400.166 385.718 400.419C386.332 403.81 386.478 406.734 386.252 409.27Z" fill="#772C2B"/>
</g>
</g>
<path d="M334.162 364.822L347.929 400.747" stroke="#33334F" stroke-width="0.668" stroke-miterlimit="10"/>
<path d="M96.4112 299.994C96.4112 299.994 97.0619 292.722 100.086 286.199C103.107 279.679 95.9565 279.1 93.2325 284.94C93.2325 284.94 93.8592 281.463 96.1752 277.37C98.4925 273.278 94.0045 270.808 91.3859 272.876C91.3859 272.876 92.6779 270.022 90.0525 268.364C87.4285 266.71 84.4245 269.536 83.5405 270.644C83.5405 270.644 79.1619 264.859 73.2552 276.087C67.3485 287.316 63.4566 302.559 71.7165 322.608C77.4005 336.403 87.7792 337.983 93.4285 335.24C103.687 330.258 106.547 312.703 96.4112 299.994Z" fill="#DE786E"/>
<path d="M93.2335 284.94C88.8015 294.738 88.8575 299.483 88.8575 299.483" stroke="#33334F" stroke-width="0.668" stroke-miterlimit="10"/>
<path d="M91.3863 272.876C82.6436 287.772 82.6836 295.739 82.6836 295.739" stroke="#33334F" stroke-width="0.668" stroke-miterlimit="10"/>
<path d="M83.5398 270.645C76.6825 279.87 75.0625 292.978 75.0625 292.978" stroke="#33334F" stroke-width="0.668" stroke-miterlimit="10"/>
<path d="M98.2804 318.788C98.2804 318.788 99.4911 320.548 101.934 323.89L101.943 323.898L101.944 323.916C105.178 328.313 110.539 335.488 118.086 345.033C119.171 346.389 120.295 347.814 121.456 349.27C123.71 352.074 126.116 355.06 128.703 358.214C133.982 364.634 139.938 371.781 146.634 379.549C147.151 380.142 147.66 380.744 148.188 381.344L148.198 381.353C148.975 382.25 149.752 383.149 150.54 384.053C150.896 384.474 151.252 384.877 151.616 385.306L151.624 385.297C152.106 385.857 152.586 386.417 153.084 386.976C154.244 388.301 155.414 389.633 156.612 391.008C156.88 391.304 157.14 391.609 157.418 391.913C157.839 392.389 158.252 392.86 158.683 393.344C161.758 396.822 163.315 401.213 163.292 405.565C163.288 409.854 161.766 414.106 158.695 417.469C156.927 419.408 154.835 421.082 152.432 422.148C150.276 423.097 147.882 423.568 145.232 423.31C141.779 422.982 137.856 421.433 133.452 418.134C132.96 417.776 132.467 417.382 131.962 416.965C131.495 416.596 131.027 416.193 130.547 415.764C126.594 412.298 122.286 407.448 117.592 400.897C117.526 400.806 117.455 400.698 117.387 400.606C115.35 397.76 113.431 394.982 111.623 392.269C111.575 392.21 111.564 392.186 111.564 392.186C111.17 391.601 110.784 391.025 110.399 390.449C109.874 389.654 109.367 388.86 108.863 388.082C105.592 383.084 102.703 378.345 100.116 373.9L100.098 373.901C99.3551 372.624 98.6458 371.378 97.9604 370.168C96.2524 367.182 94.6978 364.344 93.2884 361.678C93.0951 361.333 92.9204 360.986 92.7284 360.642C92.1231 359.468 91.5111 358.321 90.9364 357.206C89.8084 355.029 88.7858 352.974 87.8258 351.056C84.8738 345.138 82.6964 340.538 81.0071 337.536C80.6431 336.896 80.3178 336.308 80.0231 335.76C79.1898 334.225 78.5658 333.053 78.1418 332.2L78.1338 332.192C77.5378 331.042 77.2871 330.5 77.2871 330.5L79.6138 330.072L84.3098 329.202L93.5951 322.28L98.2804 318.788Z" fill="#DE786E"/>
<mask id="mask9_1197_413" style="mask-type:luminance" maskUnits="userSpaceOnUse" x="133" y="400" width="31" height="24">
<path d="M133.449 400.395H163.291V423.38H133.449V400.395Z" fill="white"/>
</mask>
<g mask="url(#mask9_1197_413)">
<g opacity="0.300003">
<path d="M162.29 404.622C162.638 404.921 162.977 405.229 163.291 405.565C163.287 409.854 161.765 414.106 158.694 417.469C156.927 419.408 154.834 421.082 152.431 422.148C150.275 423.097 147.881 423.568 145.231 423.31C141.778 422.982 137.855 421.433 133.451 418.134C133.386 413.998 134.759 409.845 137.662 406.47C143.954 399.157 154.978 398.33 162.29 404.622Z" fill="#772C2B"/>
</g>
</g>
<path d="M114.107 339.964L156.611 391.008" stroke="#33334F" stroke-width="0.668" stroke-miterlimit="10"/>
<path d="M201.002 49.1771C199.63 50.5411 197.845 51.2171 196.054 51.2051C195.061 51.2025 194.093 51.4718 193.227 51.9531L202.675 61.4558L211.953 52.2318C212.194 52.8731 212.333 53.5518 212.33 54.2478C212.323 56.0358 212.997 57.8225 214.357 59.1905C217.271 62.1225 222.143 61.9265 224.797 58.5891C226.711 56.1811 226.799 52.6918 224.991 50.2025C223.642 48.3425 221.635 47.3731 219.595 47.2918C218.823 47.2611 218.067 47.1158 217.357 46.8598L226.597 37.6718L217.217 28.2358C216.807 29.0251 216.579 29.9025 216.577 30.8011C216.579 32.5918 215.893 34.3731 214.527 35.7318C211.591 38.6491 206.725 38.4238 204.093 35.0665C202.194 32.6518 202.123 29.1665 203.941 26.6798C205.301 24.8251 207.311 23.8718 209.361 23.8025C210.341 23.7638 211.302 23.5571 212.161 23.1505L202.807 13.7425L194.319 22.1798C194.319 22.1625 194.317 22.1451 194.317 22.1265C194.323 20.3398 193.649 18.5518 192.29 17.1838C189.374 14.2518 184.503 14.4478 181.85 17.7851C179.935 20.1931 179.847 23.6825 181.654 26.1731C183.003 28.0331 185.013 29.0011 187.051 29.0825C187.153 29.0865 187.253 29.0985 187.354 29.1065L178.885 37.5265L188.313 47.0091C188.799 46.0785 189.061 45.0171 189.105 43.9411C189.179 41.8998 190.15 39.8878 192.007 38.5451C194.503 36.7411 197.995 36.8265 200.399 38.7398C203.734 41.3971 203.931 46.2651 201.002 49.1771Z" fill="white"/>
<path d="M322.583 196.753C321.127 198.027 319.301 198.589 317.515 198.462C316.524 198.397 315.541 198.605 314.647 199.03L323.473 209.113L333.317 200.495C333.516 201.151 333.612 201.837 333.565 202.531C333.445 204.314 334.004 206.142 335.276 207.593C337.999 210.703 342.873 210.817 345.732 207.655C347.796 205.373 348.105 201.895 346.459 199.297C345.231 197.355 343.287 196.261 341.259 196.051C340.489 195.971 339.744 195.777 339.051 195.477L348.856 186.893L340.092 176.882C339.632 177.643 339.349 178.505 339.291 179.401C339.179 181.189 338.381 182.922 336.933 184.191C333.817 186.918 328.975 186.385 326.561 182.867C324.82 180.335 324.969 176.854 326.941 174.487C328.416 172.723 330.484 171.898 332.533 171.959C333.513 171.983 334.485 171.837 335.368 171.486L326.629 161.503L317.625 169.387C317.625 169.369 317.624 169.35 317.625 169.333C317.745 167.55 317.187 165.723 315.916 164.271C313.193 161.161 308.319 161.047 305.459 164.21C303.395 166.491 303.087 169.969 304.732 172.569C305.961 174.51 307.904 175.603 309.933 175.814C310.035 175.825 310.133 175.842 310.233 175.857L301.248 183.723L310.055 193.785C310.6 192.886 310.929 191.843 311.04 190.774C311.244 188.741 312.341 186.794 314.279 185.571C316.885 183.93 320.364 184.237 322.643 186.298C325.801 189.162 325.689 194.033 322.583 196.753Z" fill="white"/>
<path d="M309.339 26.2422C310.85 27.4516 311.72 29.1502 311.911 30.9316C312.02 31.9182 312.396 32.8489 312.972 33.6556L321.351 23.1982L311.142 15.0182C311.752 14.7062 312.411 14.4916 313.102 14.4156C314.878 14.2209 316.58 13.3502 317.786 11.8449C320.37 8.61824 319.627 3.79957 316.012 1.53957C313.404 -0.0924303 309.927 0.214237 307.656 2.2889C305.96 3.83957 305.224 5.94357 305.372 7.97957C305.428 8.7489 305.368 9.51824 305.195 10.2529L295.026 2.1049L286.706 12.4876C287.535 12.8062 288.432 12.9342 289.326 12.8356C291.106 12.6316 292.952 13.1129 294.455 14.3169C297.686 16.9062 298.01 21.7676 294.971 24.7596C292.784 26.9182 289.328 27.3809 286.654 25.8542C284.658 24.7129 283.483 22.8222 283.184 20.7942C283.036 19.8236 282.722 18.8929 282.222 18.0849L273.926 28.4369L283.266 35.9209C283.248 35.9236 283.231 35.9289 283.212 35.9302C281.436 36.1249 279.735 36.9956 278.531 38.5009C275.944 41.7276 276.688 46.5462 280.303 48.8062C282.911 50.4382 286.387 50.1316 288.659 48.0556C290.355 46.5062 291.09 44.4022 290.942 42.3662C290.934 42.2662 290.935 42.1649 290.931 42.0636L300.252 49.5302L308.614 39.0956C307.634 38.7169 306.55 38.5756 305.476 38.6542C303.438 38.8102 301.33 38.0702 299.787 36.3782C297.714 34.0996 297.406 30.6209 299.035 28.0169C301.3 24.4036 306.115 23.6596 309.339 26.2422Z" fill="white"/>
<path d="M282.587 131.651C282.685 131.597 282.777 131.536 282.87 131.479L270.502 127.428L275.037 113.579C275.966 114.247 276.741 115.151 277.31 116.179C278.383 118.129 280.314 119.612 282.779 120.011C286.093 120.544 289.45 118.752 290.855 115.711C292.801 111.491 290.609 106.655 286.331 105.253C284.327 104.597 282.258 104.815 280.519 105.703C279.554 106.192 278.481 106.403 277.401 106.359L281.947 92.4798L295.497 96.9172C295.417 96.1745 295.221 95.4465 294.877 94.7692C293.995 93.0332 293.777 90.9612 294.43 88.9638C295.833 84.6825 300.671 82.4878 304.89 84.4372C307.933 85.8452 309.726 89.1998 309.187 92.5092C308.783 94.9798 307.302 96.9065 305.357 97.9838C304.621 98.3918 303.955 98.9038 303.389 99.5025L316.886 103.923L312.407 117.596C313.257 117.545 314.093 117.337 314.862 116.947C316.599 116.065 318.67 115.845 320.667 116.5C324.949 117.901 327.143 122.741 325.194 126.959C323.786 130.003 320.433 131.796 317.122 131.256C314.651 130.853 312.726 129.372 311.649 127.427C311.189 126.596 310.601 125.852 309.902 125.243L305.441 138.871L293.045 134.811C293.054 134.829 293.059 134.847 293.067 134.865C293.949 136.601 294.169 138.673 293.514 140.669C292.113 144.952 287.273 147.147 283.057 145.197C280.011 143.789 278.218 140.435 278.758 137.125C279.162 134.653 280.642 132.728 282.587 131.651Z" fill="white"/>
<path d="M282.587 131.651C282.685 131.597 282.777 131.536 282.87 131.479L270.502 127.428L275.037 113.579C275.966 114.247 276.741 115.151 277.31 116.179C278.383 118.129 280.314 119.612 282.779 120.011C286.093 120.544 289.45 118.752 290.855 115.711C292.801 111.491 290.609 106.655 286.331 105.253C284.327 104.597 282.258 104.815 280.519 105.703C279.554 106.192 278.481 106.403 277.401 106.359L281.947 92.4798L295.497 96.9172C295.417 96.1745 295.221 95.4465 294.877 94.7692C293.995 93.0332 293.777 90.9612 294.43 88.9638C295.833 84.6825 300.671 82.4878 304.89 84.4372C307.933 85.8452 309.726 89.1998 309.187 92.5092C308.783 94.9798 307.302 96.9065 305.357 97.9838C304.621 98.3918 303.955 98.9038 303.389 99.5025L316.886 103.923L312.407 117.596C313.257 117.545 314.093 117.337 314.862 116.947C316.599 116.065 318.67 115.845 320.667 116.5C324.949 117.901 327.143 122.741 325.194 126.959C323.786 130.003 320.433 131.796 317.122 131.256C314.651 130.853 312.726 129.372 311.649 127.427C311.189 126.596 310.601 125.852 309.902 125.243L305.441 138.871L293.045 134.811C293.054 134.829 293.059 134.847 293.067 134.865C293.949 136.601 294.169 138.673 293.514 140.669C292.113 144.952 287.273 147.147 283.057 145.197C280.011 143.789 278.218 140.435 278.758 137.125C279.162 134.653 280.642 132.728 282.587 131.651Z" stroke="#3E3B69" stroke-width="1.04933" stroke-miterlimit="10"/>
<path d="M248.431 120.454C248.528 120.4 248.62 120.339 248.715 120.282L236.346 116.231L240.882 102.382C241.81 103.05 242.584 103.954 243.155 104.982C244.227 106.933 246.159 108.415 248.623 108.814C251.938 109.347 255.295 107.555 256.699 104.515C258.644 100.294 256.454 95.4578 252.175 94.0565C250.171 93.4005 248.102 93.6178 246.364 94.5058C245.399 94.9952 244.324 95.2058 243.246 95.1632L247.792 81.2832L261.342 85.7205C261.262 84.9778 261.064 84.2498 260.72 83.5725C259.84 81.8365 259.62 79.7645 260.275 77.7685C261.678 73.4858 266.515 71.2912 270.734 73.2405C273.778 74.6485 275.57 78.0032 275.031 81.3125C274.627 83.7832 273.147 85.7098 271.202 86.7872C270.464 87.1952 269.799 87.7072 269.234 88.3058L282.73 92.7258L278.251 106.399C279.1 106.348 279.938 106.141 280.707 105.75C282.443 104.869 284.514 104.648 286.512 105.303C290.794 106.704 292.988 111.544 291.038 115.762C289.631 118.806 286.276 120.599 282.967 120.059C280.496 119.656 278.57 118.175 277.492 116.23C277.032 115.399 276.446 114.655 275.747 114.046L271.284 127.674L258.888 123.615C258.898 123.632 258.903 123.65 258.912 123.668C259.792 125.404 260.014 127.476 259.359 129.474C257.956 133.755 253.118 135.95 248.9 134C245.856 132.592 244.063 129.238 244.602 125.928C245.006 123.458 246.486 121.531 248.431 120.454Z" fill="white"/>
<path d="M248.431 120.454C248.528 120.4 248.62 120.339 248.715 120.282L236.346 116.231L240.882 102.382C241.81 103.05 242.584 103.954 243.155 104.982C244.227 106.933 246.159 108.415 248.623 108.814C251.938 109.347 255.295 107.555 256.699 104.515C258.644 100.294 256.454 95.4578 252.175 94.0565C250.171 93.4005 248.102 93.6178 246.364 94.5058C245.399 94.9952 244.324 95.2058 243.246 95.1632L247.792 81.2832L261.342 85.7205C261.262 84.9778 261.064 84.2498 260.72 83.5725C259.84 81.8365 259.62 79.7645 260.275 77.7685C261.678 73.4858 266.515 71.2912 270.734 73.2405C273.778 74.6485 275.57 78.0032 275.031 81.3125C274.627 83.7832 273.147 85.7098 271.202 86.7872C270.464 87.1952 269.799 87.7072 269.234 88.3058L282.73 92.7258L278.251 106.399C279.1 106.348 279.938 106.141 280.707 105.75C282.443 104.869 284.514 104.648 286.512 105.303C290.794 106.704 292.988 111.544 291.038 115.762C289.631 118.806 286.276 120.599 282.967 120.059C280.496 119.656 278.57 118.175 277.492 116.23C277.032 115.399 276.446 114.655 275.747 114.046L271.284 127.674L258.888 123.615C258.898 123.632 258.903 123.65 258.912 123.668C259.792 125.404 260.014 127.476 259.359 129.474C257.956 133.755 253.118 135.95 248.9 134C245.856 132.592 244.063 129.238 244.602 125.928C245.006 123.458 246.486 121.531 248.431 120.454Z" stroke="#3E3B69" stroke-width="1.04933" stroke-miterlimit="10"/>
<path d="M115.142 169.768C115.236 169.826 115.334 169.878 115.429 169.933L113.018 157.142L127.34 154.444C127.202 155.58 126.782 156.694 126.158 157.688C124.964 159.568 124.596 161.976 125.434 164.326C126.562 167.488 129.752 169.568 133.093 169.333C137.728 169.004 140.909 164.753 140.076 160.329C139.685 158.257 138.5 156.548 136.884 155.453C135.989 154.842 135.286 154.004 134.805 153.037L149.158 150.333L151.797 164.344C152.41 163.916 152.953 163.392 153.381 162.765C154.478 161.157 156.188 159.966 158.252 159.577C162.681 158.742 166.936 161.926 167.258 166.561C167.493 169.906 165.417 173.094 162.257 174.216C159.897 175.053 157.496 174.684 155.614 173.498C154.902 173.049 154.132 172.713 153.336 172.505L155.966 186.461L141.826 189.126C142.281 189.846 142.866 190.478 143.578 190.964C145.188 192.061 146.378 193.77 146.768 195.836C147.602 200.264 144.418 204.518 139.784 204.841C136.44 205.074 133.25 203 132.129 199.84C131.29 197.481 131.661 195.078 132.846 193.197C133.352 192.394 133.722 191.521 133.918 190.616L119.828 193.272L117.412 180.454C117.4 180.47 117.388 180.485 117.376 180.501C116.28 182.109 114.569 183.3 112.504 183.689C108.076 184.524 103.822 181.341 103.498 176.706C103.265 173.361 105.338 170.172 108.5 169.05C110.86 168.213 113.261 168.582 115.142 169.768Z" fill="white"/>
<path d="M159.692 84.6342C159.733 84.7369 159.783 84.8356 159.828 84.9369L165.4 73.1742L178.571 79.4142C177.791 80.2529 176.795 80.9076 175.707 81.3436C173.635 82.1623 171.921 83.8916 171.216 86.2862C170.271 89.5076 171.627 93.0636 174.467 94.8396C178.408 97.2996 183.483 95.7329 185.409 91.6649C186.313 89.7596 186.357 87.6796 185.695 85.8436C185.331 84.8236 185.256 83.7329 185.436 82.6676L198.633 88.9209L192.528 101.806C193.275 101.821 194.023 101.717 194.737 101.461C196.569 100.805 198.653 100.848 200.552 101.748C204.624 103.677 206.192 108.753 203.728 112.692C201.949 115.536 198.396 116.893 195.181 115.942C192.78 115.232 191.055 113.52 190.231 111.454C189.919 110.672 189.493 109.949 188.972 109.31L182.891 122.145L169.887 115.984C169.831 116.833 169.935 117.689 170.224 118.501C170.88 120.334 170.837 122.417 169.939 124.316C168.008 128.388 162.932 129.957 158.993 127.493C156.151 125.714 154.792 122.161 155.744 118.945C156.453 116.545 158.165 114.82 160.231 113.996C161.112 113.644 161.924 113.154 162.616 112.538L149.659 106.398L155.243 94.6102C155.224 94.6169 155.205 94.6209 155.185 94.6276C153.353 95.2836 151.271 95.2409 149.372 94.3409C145.299 92.4116 143.731 87.3342 146.195 83.3956C147.973 80.5529 151.527 79.1956 154.741 80.1462C157.144 80.8569 158.868 82.5689 159.692 84.6342Z" fill="white"/>
<path d="M349.901 240.064C349.933 237.585 351.969 235.6 354.447 235.632L357.754 235.673L355.446 233.307C353.714 231.531 353.751 228.688 355.527 226.956C357.302 225.225 360.145 225.261 361.875 227.036L364.183 229.405L364.226 226.097C364.258 223.619 366.293 221.635 368.771 221.665H368.773C371.253 221.697 373.237 223.733 373.206 226.211L373.162 229.519L375.531 227.209C377.306 225.48 380.149 225.515 381.879 227.291C383.61 229.067 383.575 231.909 381.799 233.64L379.431 235.948L382.738 235.989C385.217 236.021 387.203 238.056 387.17 240.536C387.139 243.016 385.103 245 382.625 244.969L379.318 244.927L381.626 247.295C383.358 249.071 383.321 251.913 381.545 253.644C379.77 255.375 376.929 255.339 375.197 253.564L372.887 251.196L372.846 254.503C372.815 256.981 370.779 258.967 368.299 258.935C365.819 258.904 363.835 256.868 363.867 254.388L363.909 251.083L361.541 253.391C359.766 255.121 356.923 255.085 355.193 253.311C353.462 251.535 353.497 248.692 355.273 246.961L357.641 244.652L354.334 244.611C351.854 244.58 349.87 242.543 349.901 240.064Z" fill="#FFD238"/>
<path d="M361.678 240.3C361.678 244.089 364.75 247.16 368.538 247.16C372.324 247.16 375.395 244.089 375.395 240.3C375.395 236.512 372.324 233.441 368.538 233.441C364.75 233.441 361.678 236.512 361.678 240.3Z" fill="white"/>
<path d="M23.5336 196.78C23.5642 194.3 25.6002 192.316 28.0802 192.347L31.3869 192.389L29.0776 190.021C27.3469 188.247 27.3829 185.403 29.1589 183.672C30.9349 181.941 33.7776 181.977 35.5069 183.752L37.8162 186.12L37.8576 182.813C37.8896 180.335 39.9242 178.351 42.4042 178.381C44.8842 178.413 46.8682 180.448 46.8376 182.928L46.7949 186.233L49.1629 183.925C50.9389 182.195 53.7816 182.231 55.5109 184.007C57.2429 185.781 57.2069 188.624 55.4322 190.356L53.0629 192.664L56.3696 192.705C58.8496 192.737 60.8349 194.773 60.8029 197.252C60.7722 199.732 58.7349 201.716 56.2562 201.685L52.9496 201.643L55.2589 204.011C56.9896 205.785 56.9522 208.629 55.1776 210.36C53.4016 212.091 50.5602 212.055 48.8296 210.28L46.5202 207.912L46.4789 211.219C46.4469 213.697 44.4109 215.683 41.9322 215.651C39.4522 215.619 37.4669 213.584 37.5002 211.104L37.5416 207.797L35.1736 210.107C33.3976 211.837 30.5562 211.801 28.8242 210.027C27.0936 208.251 27.1282 205.408 28.9042 203.676L31.2722 201.368L27.9656 201.327C25.4869 201.295 23.5029 199.259 23.5336 196.78Z" fill="#FFD238"/>
<path d="M35.3086 197.016C35.3086 200.804 38.3793 203.875 42.1673 203.875C45.9553 203.875 49.0259 200.804 49.0259 197.016C49.0259 193.228 45.9553 190.156 42.1673 190.156C38.3793 190.156 35.3086 193.228 35.3086 197.016Z" fill="white"/>
<path d="M26.8343 445.33C26.865 442.85 28.901 440.864 31.381 440.898L34.6877 440.939L32.3783 438.571C30.6477 436.796 30.6837 433.954 32.4597 432.222C34.2357 430.491 37.0783 430.526 38.8077 432.302L41.117 434.67L41.1583 431.363C41.1903 428.884 43.225 426.9 45.705 426.931C48.185 426.963 50.169 428.998 50.1383 431.476L50.0957 434.784L52.4637 432.475C54.2397 430.746 57.0823 430.78 58.8117 432.556C60.5437 434.331 60.5077 437.175 58.733 438.906L56.3637 441.214L59.6703 441.255C62.1503 441.287 64.1357 443.322 64.1037 445.802C64.073 448.282 62.0357 450.266 59.557 450.235L56.2503 450.192L58.5597 452.56C60.2903 454.335 60.253 457.179 58.4783 458.91C56.7023 460.64 53.861 460.604 52.1303 458.828L49.821 456.462L49.7797 459.767C49.7477 462.247 47.7117 464.232 45.233 464.2C42.753 464.168 40.7677 462.134 40.801 459.654L40.8423 456.348L38.4743 458.655C36.6983 460.387 33.857 460.351 32.125 458.576C30.3943 456.8 30.4303 453.958 32.205 452.227L34.573 449.918L31.2663 449.875C28.7877 449.844 26.8037 447.808 26.8343 445.33Z" fill="#FFD238"/>
<path d="M38.6113 445.565C38.6113 449.353 41.682 452.425 45.47 452.425C49.258 452.425 52.3287 449.353 52.3287 445.565C52.3287 441.777 49.258 438.705 45.47 438.705C41.682 438.705 38.6113 441.777 38.6113 445.565Z" fill="white"/>
<path d="M401.489 453.421C401.519 450.941 403.555 448.955 406.034 448.987L409.342 449.029L407.033 446.662C405.301 444.887 405.338 442.043 407.114 440.313C408.889 438.582 411.731 438.617 413.462 440.393L415.771 442.761L415.813 439.454C415.845 436.975 417.879 434.99 420.358 435.021C422.838 435.054 424.823 437.089 424.793 439.567L424.75 442.874L427.118 440.566C428.894 438.835 431.737 438.871 433.466 440.647C435.197 442.422 435.162 445.265 433.386 446.997L431.018 449.305L434.325 449.346C436.803 449.378 438.79 451.413 438.757 453.893C438.726 456.373 436.69 458.357 434.211 458.326L430.905 458.283L433.213 460.651C434.945 462.426 434.907 465.27 433.131 467.001C431.357 468.731 428.515 468.695 426.783 466.919L424.475 464.553L424.433 467.858C424.402 470.338 422.366 472.323 419.887 472.29C417.407 472.259 415.422 470.225 415.454 467.745L415.497 464.438L413.127 466.746C411.353 468.478 408.511 468.442 406.779 466.667C405.049 464.891 405.083 462.049 406.859 460.317L409.227 458.007L405.921 457.966C403.442 457.935 401.458 455.899 401.489 453.421Z" fill="#FFD238"/>
<path d="M413.264 453.656C413.264 457.444 416.336 460.516 420.124 460.516C423.91 460.516 426.982 457.444 426.982 453.656C426.982 449.868 423.91 446.796 420.124 446.796C416.336 446.796 413.264 449.868 413.264 453.656Z" fill="white"/>
<path d="M411.95 163.354C411.982 160.874 414.018 158.89 416.496 158.92L419.803 158.963L417.495 156.595C415.763 154.82 415.8 151.978 417.576 150.246C419.351 148.515 422.194 148.551 423.924 150.326L426.232 152.694L426.275 149.388C426.307 146.908 428.342 144.924 430.82 144.955C433.302 144.987 435.286 147.022 435.255 149.502L435.211 152.807L437.58 150.5C439.355 148.768 442.198 148.804 443.928 150.58C445.659 152.355 445.624 155.199 443.848 156.93L441.48 159.238L444.787 159.279C447.266 159.311 449.252 161.347 449.219 163.826C449.188 166.306 447.152 168.29 444.674 168.259L441.366 168.216L443.675 170.584C445.407 172.36 445.37 175.203 443.594 176.934C441.819 178.664 438.978 178.628 437.246 176.854L434.936 174.486L434.895 177.792C434.864 180.271 432.828 182.256 430.348 182.224C427.868 182.192 425.884 180.158 425.916 177.678L425.958 174.371L423.59 176.68C421.814 178.411 418.972 178.375 417.242 176.6C415.511 174.824 415.546 171.982 417.322 170.25L419.69 167.942L416.383 167.9C413.903 167.868 411.919 165.834 411.95 163.354Z" fill="#FFD238"/>
<path d="M423.725 163.59C423.725 167.378 426.797 170.449 430.585 170.449C434.371 170.449 437.442 167.378 437.442 163.59C437.442 159.802 434.371 156.731 430.585 156.731C426.797 156.731 423.725 159.802 423.725 163.59Z" fill="white"/>
</svg>
