<svg id="Capa_1" enable-background="new 0 0 512 512" height="512" viewBox="0 0 512 512" width="512" xmlns="http://www.w3.org/2000/svg"><g><path d="m287.867 257.696v-210.763h-46.867v240.763z" fill="#d45223"/><path d="m256 46.933h-31.867v210.763l31.867 30z" fill="#e56835"/><path d="m226 414.531h61.867v-156.835h-31.867z" fill="#f89a4f"/><g fill="#fab757"><path d="m256 384.531h31.867z"/><path d="m224.133 257.696h31.867v156.836h-31.867z"/><path d="m256 384.531h-31.867z"/><path d="m256 384.531-30 93.735h125.602v-93.735z"/></g><path d="m160.398 384.531h95.602v93.734h-95.602z" fill="#fdd35e"/><path d="m368.598 448.266h-112.598l-45 31.867 45 31.867h176.332c0-35.2-28.535-63.734-63.734-63.734z" fill="#fdd35e"/><path d="m143.402 448.266c-35.2 0-63.734 28.535-63.734 63.734h176.332v-63.734z" fill="#fff066"/><path d="m79.668 35.004-79.668 222.692 28.247 10.105 51.421-143.735 51.422 143.735 28.246-10.105z" fill="#fab757"/><path d="m0 257.696c0 44 35.669 79.668 79.668 79.668s79.668-35.668 79.668-79.668z" fill="#fff066"/><path d="m432.332 35.004-79.668 222.692 28.247 10.105 51.421-143.735 51.421 143.735 28.247-10.105z" fill="#f89a4f"/><path d="m432.332 337.363c43.999 0 79.668-35.668 79.668-79.668h-159.336c0 44 35.668 79.668 79.668 79.668z" fill="#fdd35e"/><path d="m64.668 13.198h191.332v63.734h-191.332z" fill="#fff066"/><path d="m271 13.198-15 63.735h191.332v-63.735z" fill="#fdd35e"/><path d="m301.065 45.066c0 24.889-20.176 45.065-45.065 45.065l-22.533-45.066 22.533-45.065c24.889 0 45.065 20.177 45.065 45.066z" fill="#f89a4f"/><path d="m256 0v90.131c-24.889 0-45.066-20.176-45.066-45.065s20.177-45.066 45.066-45.066z" fill="#fab757"/></g></svg>