<svg id="Layer_1" enable-background="new 0 0 24 24" height="512" viewBox="0 0 24 24" width="512" xmlns="http://www.w3.org/2000/svg"><g><path d="m2.9 21.1 14.2-14.2c-1.8-1.8-4.3-2.9-7.1-2.9-5.5 0-10 4.5-10 10 0 2.8 1.1 5.3 2.9 7.1z" fill="#fd3c65"/><path d="m2.9 21.1c1.8 1.8 4.3 2.9 7.1 2.9 5.5 0 10-4.5 10-10 0-2.8-1.1-5.3-2.9-7.1z" fill="#fd003a"/><path d="m5.1 18.9 9.9-9.9c-1.3-1.2-3.1-2-5-2-3.9 0-7 3.1-7 7 0 1.9.8 3.7 2.1 4.9z" fill="#f0f0f0"/><path d="m5.1 18.9c1.3 1.3 3 2.1 4.9 2.1 3.9 0 7-3.1 7-7 0-1.9-.8-3.7-2.1-4.9z" fill="#cfd3d4"/><path d="m7.2 16.8 5.7-5.7c-.8-.7-1.8-1.1-2.9-1.1-2.2 0-4 1.8-4 4 0 1.1.4 2.1 1.2 2.8z" fill="#fd3c65"/><path d="m7.2 16.8c.7.8 1.7 1.2 2.8 1.2 2.2 0 4-1.8 4-4 0-1.1-.4-2.1-1.2-2.8z" fill="#fd003a"/><path d="m9.3 14.7 1.4-1.4c-.2-.2-.4-.3-.7-.3-.6 0-1 .4-1 1 0 .3.1.5.3.7z" fill="#f0f0f0"/><path d="m9.3 14.7c.2.2.4.3.7.3.6 0 1-.4 1-1 0-.3-.1-.5-.3-.7z" fill="#cfd3d4"/><path d="m9.6 14.4 8.2-8.2c0-.2-.2-.2-.3-.2s-.3 0-.4.1l-7.5 7.5c-.188.188-.217.583 0 .8z" fill="#787780"/><path d="m9.6 14.4c.2.2.5.2.7 0l7.5-7.5c.2-.2.2-.5 0-.7z" fill="#57555c"/><path d="m17.1 6.9 4.8-4.8-.4-1.7c0-.2-.2-.3-.4-.4-.2 0-.4 0-.5.1l-3.5 3.5c0 .1-.1.3-.1.4v2.5c0 .1.1.3.1.4z" fill="#fedb41"/><path d="m23.6 2.5-1.7-.4-4.8 4.8c.1 0 .3.1.4.1h2.5c.1 0 .3-.1.4-.1l3.5-3.5c.1-.2.1-.4.1-.5-.1-.2-.2-.3-.4-.4z" fill="#fcbf29"/></g></svg>