<svg width="48" height="47" viewBox="0 0 48 47" fill="none" xmlns="http://www.w3.org/2000/svg">
<g clip-path="url(#clip0_717_356)">
<path d="M48 23.2889C48 10.4268 37.2548 0 24 0C10.7452 0 0 10.4268 0 23.2889C0 34.9129 8.77641 44.5477 20.25 46.2949V30.0208H14.1562V23.2889H20.25V18.1581C20.25 12.3213 23.8331 9.09722 29.3152 9.09722C31.9402 9.09722 34.6875 9.55208 34.6875 9.55208V15.2833H31.6613C28.68 15.2833 27.75 17.0787 27.75 18.9222V23.2889H34.4062L33.3422 30.0208H27.75V46.2949C39.2236 44.5477 48 34.9129 48 23.2889Z" fill="#363A6C"/>
</g>
<defs>
<clipPath id="clip0_717_356">
<rect width="48" height="46.5778" fill="white"/>
</clipPath>
</defs>
</svg>
