<?xml version="1.0" encoding="UTF-8" standalone="no"?>
<!-- Created with Inkscape (http://www.inkscape.org/) -->

<svg
   version="1.1"
   id="svg2"
   width="300"
   height="189.78127"
   viewBox="0 0 300 189.78126"
   sodipodi:docname="ilustracao-home-mobile6.svg"
   inkscape:version="1.2.2 (1:1.2.2+202212051552+b0a8486541)"
   xmlns:inkscape="http://www.inkscape.org/namespaces/inkscape"
   xmlns:sodipodi="http://sodipodi.sourceforge.net/DTD/sodipodi-0.dtd"
   xmlns="http://www.w3.org/2000/svg"
   xmlns:svg="http://www.w3.org/2000/svg">
  <sodipodi:namedview
     id="namedview1345"
     pagecolor="#ffffff"
     bordercolor="#000000"
     borderopacity="0.25"
     inkscape:showpageshadow="2"
     inkscape:pageopacity="0.0"
     inkscape:pagecheckerboard="0"
     inkscape:deskcolor="#d1d1d1"
     showgrid="false"
     inkscape:zoom="0.71399998"
     inkscape:cx="102.94118"
     inkscape:cy="214.986"
     inkscape:window-width="1292"
     inkscape:window-height="704"
     inkscape:window-x="0"
     inkscape:window-y="0"
     inkscape:window-maximized="1"
     inkscape:current-layer="svg2" />
  <defs
     id="defs6">
    <clipPath
       clipPathUnits="userSpaceOnUse"
       id="clipPath20">
      <path
         d="M 0,500 H 750 V 0 H 0 Z"
         id="path18" />
    </clipPath>
    <clipPath
       clipPathUnits="userSpaceOnUse"
       id="clipPath28">
      <path
         d="M 60.0332,235.232 H 750 V 0.0035553 H 60.0332 Z"
         id="path26" />
    </clipPath>
    <clipPath
       clipPathUnits="userSpaceOnUse"
       id="clipPath152">
      <path
         d="M 0,500 H 750 V 0 H 0 Z"
         id="path150" />
    </clipPath>
    <clipPath
       clipPathUnits="userSpaceOnUse"
       id="clipPath204">
      <path
         d="m 445.896,336.159 h 95.551 V 220.447 h -95.551 z"
         id="path202" />
    </clipPath>
    <clipPath
       clipPathUnits="userSpaceOnUse"
       id="clipPath220">
      <path
         d="m 540.776,335.809 h 95.951 V 221.268 h -95.951 z"
         id="path218" />
    </clipPath>
    <clipPath
       clipPathUnits="userSpaceOnUse"
       id="clipPath236">
      <path
         d="m 445.896,410.317 h 93.649 V 281.822 h -93.649 z"
         id="path234" />
    </clipPath>
    <clipPath
       clipPathUnits="userSpaceOnUse"
       id="clipPath252">
      <path
         d="m 540.796,411.128 h 95.931 V 279.559 h -95.931 z"
         id="path250" />
    </clipPath>
    <clipPath
       clipPathUnits="userSpaceOnUse"
       id="clipPath308">
      <path
         d="m 552.63,259.931 h 16.513 V 239.95 H 552.63 Z"
         id="path306" />
    </clipPath>
    <clipPath
       clipPathUnits="userSpaceOnUse"
       id="clipPath324">
      <path
         d="m 513.32,262.91 h 15.74 v -20.072 h -15.74 z"
         id="path322" />
    </clipPath>
    <clipPath
       clipPathUnits="userSpaceOnUse"
       id="clipPath396">
      <path
         d="M 484.621,45.1072 H 607.442 V 0.115082 H 484.621 Z"
         id="path394" />
    </clipPath>
    <clipPath
       clipPathUnits="userSpaceOnUse"
       id="clipPath440">
      <path
         d="M 480.96,110.935 H 612.408 V 47.4082 H 480.96 Z"
         id="path438" />
    </clipPath>
    <clipPath
       clipPathUnits="userSpaceOnUse"
       id="clipPath496">
      <path
         d="m 633.443,112.446 h 17.822 V 93.0863 h -17.822 z"
         id="path494" />
    </clipPath>
    <clipPath
       clipPathUnits="userSpaceOnUse"
       id="clipPath536">
      <path
         d="m 461.587,111.204 h 22.381 V 93.965 h -22.381 z"
         id="path534" />
    </clipPath>
    <clipPath
       clipPathUnits="userSpaceOnUse"
       id="clipPath2494">
      <rect
         style="fill:#ff0000;fill-opacity:0.242938;stroke-width:0.77313"
         id="rect2496"
         width="580.46796"
         height="442.7644"
         x="168.37907"
         y="-498.70752"
         transform="scale(1,-1)" />
    </clipPath>
    <clipPath
       clipPathUnits="userSpaceOnUse"
       id="clipPath4412">
      <rect
         style="fill:#ff0000;fill-opacity:0.242938;stroke-width:1.45117"
         id="rect4414"
         width="560.4007"
         height="354.51184"
         x="167.42636"
         y="-410.43738"
         transform="scale(1,-1)" />
    </clipPath>
  </defs>
  <g
     id="g10"
     transform="matrix(0.53533124,0,0,-0.53533124,-89.628561,219.71995)"
     clip-path="url(#clipPath4412)">
    <g
       id="g16"
       clip-path="url(#clipPath20)">
      <g
         id="g22">
        <g
           id="g24" />
        <g
           id="g36">
          <g
             clip-path="url(#clipPath28)"
             opacity="0.300003"
             id="g34">
            <g
               transform="translate(60.0332,0.0039)"
               id="g32">
              <path
                 d="m 0,0 h 689.967 v 222.854 c -13.405,2.813 -27.459,5.186 -42.155,7.068 C 302.929,274.108 240.523,27.639 97.333,34.176 52.535,36.218 19.41,22.813 0,0"
                 style="fill:#00b8d0;fill-opacity:1;fill-rule:nonzero;stroke:none"
                 id="path30" />
            </g>
          </g>
        </g>
      </g>
      <g
         id="g38"
         transform="translate(364.0674,155.5996)">
        <path
           d="m 0,0 c 0,0 -3.033,-2.854 3.333,-7.479 5.636,-4.114 22.194,-12.993 25.857,-14.935 3.895,-5.676 8.549,-10.761 13.855,-15.166 -2.923,1.482 -20.602,10.361 -27.429,12.674 -7.457,2.522 -8.028,-1.592 -8.028,-1.592 0,0 -1.892,-3.714 5.666,-5.906 7.157,-2.082 27.839,-5.045 30.012,-5.356 3.603,-2.963 7.498,-5.616 11.662,-7.908 3.914,-2.163 8.039,-3.994 12.353,-5.526 -4.304,-0.08 -27.269,-0.58 -35.597,-1.922 -9.201,-1.482 -7.519,-6.116 -7.519,-6.116 0,0 0.08,-4.925 9.2,-3.043 8.489,1.752 31.113,9.839 34.246,10.962 0.971,-0.341 1.952,-0.662 2.944,-0.972 3.914,-1.222 7.967,-2.183 12.182,-2.903 0.701,-0.121 1.411,-0.23 2.122,-0.34 -0.581,-0.201 -1.321,-0.451 -2.192,-0.742 -3.693,-1.271 -9.7,-3.353 -15.896,-5.605 -7.708,-2.803 -15.708,-5.877 -19.902,-7.988 -9.66,-4.866 -6.186,-9.41 -6.186,-9.41 0,0 1.822,-5.426 11.261,-0.151 1.412,0.791 3.174,1.892 5.157,3.203 0.6,0.391 1.22,0.802 1.861,1.232 1.942,1.311 4.034,2.773 6.167,4.274 2.433,1.732 4.915,3.524 7.287,5.256 3.944,2.893 7.578,5.605 10.151,7.538 1.311,1.001 2.342,1.781 3.003,2.282 3.974,-0.57 8.069,-0.921 12.284,-1.05 0.04,-0.011 0.08,-0.011 0.109,-0.011 2.703,-0.09 5.446,-0.09 8.249,0.011 0.11,0.259 0.21,0.52 0.32,0.78 -2.812,-0.09 -5.566,-0.1 -8.268,-0.029 h -0.01 c -0.04,0.009 -0.07,0.009 -0.11,0.009 -4.025,0.12 -7.939,0.441 -11.743,0.961 -0.32,1.882 -1.362,7.918 -2.683,14.955 -0.37,1.943 -0.761,3.955 -1.161,5.987 -0.19,0.981 -0.391,1.972 -0.58,2.953 -0.011,0.01 0,0.01 0,0.01 -1.012,4.975 -2.073,9.791 -3.043,13.474 -0.331,1.262 -0.652,2.383 -0.952,3.334 -3.303,10.301 -8.338,7.568 -8.338,7.568 0,0 -5.636,-0.951 -1.893,-11.102 1.012,-2.723 2.823,-6.717 4.956,-11.092 0.36,-0.77 0.74,-1.541 1.131,-2.322 1.211,-2.462 2.492,-4.995 3.754,-7.458 2.002,-3.914 3.964,-7.648 5.525,-10.601 1.412,-2.653 2.503,-4.685 3.033,-5.676 -1.13,0.16 -2.252,0.331 -3.363,0.531 -4.104,0.701 -8.068,1.641 -11.892,2.843 -1.032,0.31 -2.063,0.64 -3.074,1.001 -0.791,3.693 -5.826,26.688 -8.799,34.716 -3.244,8.74 -7.458,6.197 -7.458,6.197 0,0 -4.825,-1.032 -1.21,-9.621 3.262,-7.757 14.995,-27.489 17.217,-31.192 -4.285,1.512 -8.379,3.333 -12.262,5.476 -4.125,2.282 -7.979,4.915 -11.543,7.847 0.03,2.123 0.27,23.085 -0.691,30.493 -1.011,7.798 -4.965,6.506 -4.965,6.506 0,0 -4.165,0.061 -2.813,-7.688 1.271,-7.257 7.578,-26.777 8.379,-29.24 -5.226,4.314 -9.811,9.299 -13.664,14.865 0.52,3.635 3.253,22.795 3.283,29.902 0.02,7.868 -4.065,7.108 -4.065,7.108 0,0 -4.124,0.61 -3.803,-7.248 0.28,-6.877 3.504,-24.926 4.314,-29.362 -2.553,3.725 -4.785,7.7 -6.646,11.904 -2.263,5.085 -3.935,10.35 -5.036,15.676 2.363,3.534 12.673,19.08 15.686,25.347 3.414,7.087 -0.61,8.158 -0.61,8.158 0,0 -3.453,2.323 -6.547,-4.905 -2.643,-6.167 -7.327,-23.114 -8.659,-27.999 -1.692,8.509 -1.932,17.128 -0.821,25.356 2.382,1.752 14.986,11.072 19.1,15.096 4.545,4.444 1.792,6.377 1.792,6.377 0,0 -1.992,2.713 -6.337,-1.933 C 27.84,47.189 19.19,34.967 17.158,32.074 c 0.941,6.667 2.763,13.073 5.456,18.949 3.053,1.242 13.895,5.727 17.748,7.969 0.01,0.01 0.021,0.01 0.031,0.021 4.464,2.612 2.672,4.684 2.672,4.684 0,0 -0.85,2.113 -4.284,0.391 -0.35,-0.181 -0.72,-0.391 -1.132,-0.651 -3.553,-2.273 -11.742,-9.22 -14.735,-11.783 1.952,4.124 4.324,7.969 7.107,11.452 3.424,2.994 10.452,9.22 13.014,12.143 3.424,3.935 1.052,5.326 1.052,5.326 0,0 -1.803,2.092 -5.056,-1.982 -2.472,-3.084 -7.478,-11.343 -9.75,-15.156 -2.793,-3.534 -5.176,-7.418 -7.137,-11.583 0.97,3.884 3.462,14.185 3.904,18.36 0.55,5.185 -2.203,4.955 -2.203,4.955 0,0 -2.673,0.681 -2.993,-4.524 -0.281,-4.585 0.64,-16.878 0.871,-19.721 -2.542,-5.656 -4.305,-11.782 -5.245,-18.159 -0.391,4.384 -1.642,18.089 -2.833,23.274 -1.422,6.196 -4.505,4.856 -4.505,4.856 0,0 -3.354,-0.282 -1.662,-6.417 C 8.989,48.991 15.086,34.847 16.357,31.934 15.276,24.095 15.426,15.917 16.878,7.818 14.766,13.544 9.209,28.43 6.247,33.986 c -3.694,6.937 -6.938,4.334 -6.938,4.334 0,0 -3.914,-1.411 0.08,-8.188 C 2.923,24.146 14.535,9.5 17.168,6.196 c 1.111,-5.575 2.843,-11.092 5.206,-16.417 1.711,-3.843 3.724,-7.488 5.996,-10.941 C 24.256,-16.838 13.074,-5.186 8.099,-1.231 1.942,3.674 0,0 0,0"
           style="fill:#02796c;fill-opacity:1;fill-rule:nonzero;stroke:none"
           id="path40" />
      </g>
      <g
         id="g42"
         transform="translate(412.7764,171.7754)">
        <path
           d="m 0,0 c 0,0 -0.1,6.077 11.229,4.128 11.327,-1.949 43.125,-12.27 43.125,-12.27 0,0 -33.426,-0.55 -44.829,0.906 C -1.876,-5.781 0,0 0,0"
           style="fill:#4eb572;fill-opacity:1;fill-rule:nonzero;stroke:none"
           id="path44" />
      </g>
      <g
         id="g46"
         transform="translate(430.666,251.521)">
        <path
           d="m 0,0 c -0.33,-2.585 -1.797,-8.333 -2.728,-11.838 -0.224,-3.979 -0.209,-9.387 0.648,-15.652 1.059,3.538 4.392,14.499 6.234,18.526 2.211,4.828 4.503,3.205 4.503,3.205 0,0 2.695,-0.792 0.276,-5.521 -2.108,-4.121 -9.159,-14.221 -10.936,-16.749 0.495,-3.456 1.243,-7.158 2.353,-11.021 0.768,-2.677 1.74,-5.516 2.958,-8.461 1.029,4.664 4.579,20.464 6.736,26.265 2.544,6.839 5.848,4.845 5.848,4.845 0,0 3.772,-0.814 0.933,-7.536 -2.477,-5.866 -11.143,-20.449 -13.31,-24.066 2.525,-5.992 6.087,-12.412 11.105,-18.834 0.234,5.207 1.249,26.243 2.701,34.011 1.663,8.896 6.121,7.158 6.121,7.158 0,0 4.782,-0.199 2.734,-9.013 -1.824,-7.853 -9.604,-28.154 -11.281,-32.497 5.319,-6.739 12.254,-13.467 21.276,-19.692 -0.571,4.297 -4.387,33.437 -4.288,44.072 0.108,11.494 6.069,10.308 6.069,10.308 0,0 6.024,0.813 5.417,-10.665 -0.566,-10.706 -6.272,-39.937 -7.038,-43.827 5.523,-3.797 11.813,-7.406 19.006,-10.71 l -0.402,-0.878 c -18.949,8.702 -31.769,19.5 -40.448,30.352 -4.38,0.367 -26.353,2.263 -34.281,4.072 -8.822,2.012 -6.91,6.398 -6.91,6.398 0,0 0.386,4.77 9.113,2.376 7.609,-2.086 26.919,-10.346 31.744,-12.429 -5.284,6.688 -9.007,13.386 -11.614,19.619 -2.855,0.948 -20.289,6.779 -26.278,9.761 -6.532,3.252 -4.2,6.327 -4.2,6.327 0,0 1.208,3.664 7.591,0.132 5.73,-3.17 19.926,-13.814 22.783,-15.968 -1.244,2.999 -2.233,5.888 -3.015,8.613 -1.12,3.906 -1.877,7.652 -2.378,11.151 -2.367,1.626 -12.724,8.788 -16.182,11.958 -3.914,3.59 -1.664,5.272 -1.664,5.272 0,0 1.583,2.319 5.337,-1.437 3.208,-3.209 10.419,-12.702 12.453,-15.401 -0.897,6.487 -0.905,12.085 -0.665,16.168 -0.175,3.634 -0.399,9.447 -0.184,12.015 0.325,3.871 2.304,3.322 2.304,3.322 0,0 2.051,0.123 1.559,-3.731"
           style="fill:#4eb572;fill-opacity:1;fill-rule:nonzero;stroke:none"
           id="path48" />
      </g>
      <g
         id="g50"
         transform="translate(444.5967,26.416)">
        <path
           d="m 0,0 c 0,0 -2.679,3.772 5.271,7.425 7.952,3.652 32.358,10.86 32.358,10.86 0,0 -20.749,-14.734 -28.534,-18.728 C 1.311,-4.437 0,0 0,0"
           style="fill:#4eb572;fill-opacity:1;fill-rule:nonzero;stroke:none"
           id="path52" />
      </g>
      <g
         id="g54"
         transform="translate(416.4629,65.7646)">
        <path
           d="m 0,0 c 3.533,-0.5 13.113,-0.541 15.306,-0.541 1.822,-1.981 3.904,-4.004 6.297,-5.976 1.661,-1.371 3.523,-2.762 5.595,-4.104 -2.722,0.12 -16.217,0.69 -21.172,0.21 -5.536,-0.53 -4.715,-3.343 -4.715,-3.343 0,0 -0.14,-2.943 5.366,-2.173 5.035,0.711 18.499,4.555 20.691,5.186 4.325,-2.783 9.54,-5.386 15.737,-7.318 -3.924,-0.77 -19.6,-3.894 -25.277,-5.856 -6.507,-2.252 -4.694,-5.416 -4.694,-5.416 0,0 0.68,-3.583 7.087,-1.041 5.756,2.272 20.372,10.542 23.274,12.193 5.567,-1.691 11.923,-2.833 19.12,-3.063 0.781,-0.03 1.563,-0.05 2.364,-0.05 h 0.459 c 1.693,0 3.424,0.05 5.207,0.16 3.052,0.17 6.246,0.511 9.569,1.03 0.581,0.081 1.161,0.181 1.742,0.282 l -0.12,0.73 c -0.471,-0.08 -0.941,-0.16 -1.411,-0.23 -3.294,-0.531 -6.447,-0.871 -9.471,-1.061 -1.941,-0.121 -3.834,-0.171 -5.666,-0.171 -0.12,0.281 -0.32,0.762 -0.6,1.392 -2.393,5.506 -10.031,22.904 -13.845,29.151 -2.953,4.825 -5.425,5.235 -6.807,4.925 -0.761,-0.17 -1.182,-0.561 -1.182,-0.561 0,0 -1.541,-0.661 -1.701,-2.773 -0.11,-1.391 0.38,-3.423 2.323,-6.307 4.114,-6.135 16.907,-20.521 20.792,-24.866 0.379,-0.42 0.68,-0.75 0.871,-0.961 -0.612,0 -1.212,0.011 -1.802,0.031 -7.589,0.18 -14.235,1.371 -20.031,3.172 -0.812,3.435 -4.646,19.412 -6.878,25.177 -0.01,0.03 -0.02,0.051 -0.031,0.081 -0.269,0.68 -0.54,1.261 -0.82,1.761 v 0.01 c -2.303,4.255 -4.775,2.714 -4.775,2.714 0,0 -0.13,-0.031 -0.33,-0.131 -0.731,-0.361 -2.332,-1.641 -0.961,-5.656 0.08,-0.22 0.16,-0.461 0.26,-0.701 v -0.01 c 0.09,-0.2 0.17,-0.41 0.27,-0.63 2.433,-5.506 10.852,-19.15 12.944,-22.514 -5.917,1.872 -10.912,4.365 -15.076,7.038 -0.15,2.322 -0.621,9.76 -1.251,15.476 -0.23,2.152 -0.481,4.064 -0.751,5.365 -1.111,5.446 -3.834,4.335 -3.834,4.335 0,0 -2.933,-0.17 -1.582,-5.566 0.231,-0.931 0.611,-2.152 1.071,-3.524 1.802,-5.375 4.925,-13.184 6.006,-15.866 -2.032,1.331 -3.863,2.692 -5.506,4.044 -2.352,1.942 -4.414,3.944 -6.215,5.906 0.019,1.452 0.049,5.565 -0.031,9.33 -0.049,2.343 -0.14,4.555 -0.31,5.896 -0.521,4.004 -2.553,3.343 -2.553,3.343 -0.01,0 -0.099,0 -0.24,-0.029 -0.5,-0.12 -1.762,-0.731 -1.211,-3.925 0.58,-3.313 3.203,-11.632 4.064,-14.314 -3.233,3.563 -5.576,6.957 -7.147,9.55 -0.501,1.411 -1.191,3.313 -1.853,5.035 -0.57,1.452 -1.111,2.773 -1.531,3.574 -1.351,2.633 -2.583,1.672 -2.583,1.672 0,0 -1.481,-0.511 -0.019,-3.084 0.46,-0.821 1.321,-2.062 2.272,-3.394 C 5.726,12.193 6.856,10.691 7.728,9.55 9.329,6.877 11.742,3.374 15.105,-0.32 12.663,0.501 4.044,3.354 0.65,3.994 -3.324,4.735 -3.313,2.593 -3.313,2.593 -3.313,2.593 -4.005,0.571 0,0"
           style="fill:#4eb572;fill-opacity:1;fill-rule:nonzero;stroke:none"
           id="path56" />
      </g>
      <g
         id="g58"
         transform="translate(723.6953,155.6025)">
        <path
           d="m 0,0 c 0,0 3.033,-2.853 -3.333,-7.478 -5.636,-4.114 -22.193,-12.993 -25.857,-14.935 -3.894,-5.676 -8.549,-10.761 -13.855,-15.166 2.923,1.481 20.602,10.361 27.429,12.673 7.458,2.523 8.028,-1.591 8.028,-1.591 0,0 1.893,-3.714 -5.666,-5.906 -7.157,-2.082 -27.839,-5.046 -30.012,-5.356 -3.603,-2.964 -7.497,-5.616 -11.662,-7.908 -3.914,-2.163 -8.038,-3.995 -12.352,-5.526 4.304,-0.08 27.268,-0.58 35.597,-1.922 9.2,-1.482 7.518,-6.117 7.518,-6.117 0,0 -0.08,-4.925 -9.2,-3.043 -8.489,1.752 -31.113,9.84 -34.245,10.962 -0.972,-0.34 -1.953,-0.662 -2.944,-0.971 -0.68,-0.21 -1.361,-0.41 -2.042,-0.612 -3.273,-0.93 -6.657,-1.691 -10.14,-2.292 -0.702,-0.12 -1.412,-0.23 -2.123,-0.34 0.581,-0.201 1.321,-0.451 2.192,-0.741 1.982,-0.68 4.625,-1.591 7.608,-2.642 2.583,-0.911 5.406,-1.912 8.289,-2.963 7.708,-2.804 15.707,-5.877 19.901,-7.988 9.66,-4.867 6.186,-9.41 6.186,-9.41 0,0 -1.822,-5.427 -11.261,-0.151 -1.411,0.79 -3.174,1.892 -5.156,3.203 -0.6,0.391 -1.221,0.801 -1.862,1.232 -1.941,1.311 -4.034,2.772 -6.166,4.274 -2.433,1.732 -4.915,3.524 -7.288,5.256 -1.941,1.431 -3.804,2.803 -5.496,4.064 -1.762,1.312 -3.343,2.493 -4.654,3.473 -1.312,1.001 -2.343,1.782 -3.003,2.283 -1.222,-0.18 -2.463,-0.331 -3.715,-0.461 -0.31,-0.04 -0.62,-0.07 -0.931,-0.099 -2.242,-0.221 -4.524,-0.381 -6.847,-0.461 -0.26,-0.01 -0.531,-0.02 -0.791,-0.03 -0.04,-0.01 -0.08,-0.01 -0.11,-0.01 -1.231,-0.04 -2.482,-0.071 -3.733,-0.071 -0.251,0.25 -0.501,0.522 -0.742,0.791 1.402,-0.009 2.793,0 4.175,0.041 h 0.01 c 0.04,0.009 0.07,0.009 0.11,0.009 0.23,0.011 0.46,0.011 0.681,0.031 2.492,0.08 4.945,0.25 7.348,0.501 0.26,0.019 0.52,0.04 0.78,0.07 0.981,0.109 1.962,0.229 2.934,0.36 0.21,1.24 0.73,4.284 1.451,8.229 0.36,2.042 0.781,4.324 1.231,6.726 0.37,1.943 0.761,3.954 1.161,5.987 0.191,0.981 0.391,1.972 0.581,2.953 v 0.01 c 0.42,2.041 0.841,4.054 1.261,5.966 0.551,2.502 1.092,4.845 1.622,6.888 0.05,0.21 0.111,0.42 0.16,0.62 0.151,0.57 0.29,1.102 0.441,1.611 0.17,0.622 0.34,1.202 0.511,1.723 3.302,10.301 8.338,7.567 8.338,7.567 0,0 5.636,-0.951 1.892,-11.101 -1.011,-2.723 -2.823,-6.717 -4.955,-11.092 -0.36,-0.77 -0.741,-1.542 -1.131,-2.322 -0.682,-1.382 -1.382,-2.793 -2.093,-4.194 -0.55,-1.091 -1.111,-2.183 -1.662,-3.264 -1.06,-2.082 -2.111,-4.114 -3.102,-5.996 -0.871,-1.662 -1.693,-3.224 -2.423,-4.606 -1.411,-2.652 -2.503,-4.684 -3.033,-5.676 1.13,0.161 2.252,0.331 3.363,0.532 3.534,0.599 6.958,1.381 10.281,2.351 0.54,0.16 1.081,0.322 1.611,0.492 1.032,0.309 2.063,0.64 3.074,1 0.791,3.694 5.826,26.689 8.8,34.717 3.243,8.74 7.457,6.197 7.457,6.197 0,0 4.825,-1.032 1.211,-9.621 -3.263,-7.758 -14.996,-27.489 -17.218,-31.193 4.285,1.512 8.379,3.334 12.263,5.477 4.124,2.282 7.979,4.915 11.542,7.847 -0.03,2.123 -0.27,23.085 0.691,30.493 1.011,7.798 4.966,6.506 4.966,6.506 0,0 4.164,0.061 2.812,-7.688 -1.271,-7.257 -7.578,-26.777 -8.379,-29.24 5.226,4.314 9.811,9.299 13.665,14.865 -0.521,3.634 -3.254,22.794 -3.284,29.902 -0.019,7.868 4.065,7.107 4.065,7.107 0,0 4.124,0.611 3.803,-7.247 -0.28,-6.877 -3.504,-24.926 -4.314,-29.362 2.553,3.725 4.785,7.699 6.647,11.904 2.263,5.085 3.934,10.35 5.035,15.676 -2.362,3.534 -12.673,19.079 -15.686,25.346 -3.414,7.088 0.61,8.159 0.61,8.159 0,0 3.454,2.322 6.547,-4.905 2.644,-6.167 7.328,-23.115 8.659,-28 1.693,8.509 1.933,17.129 0.822,25.357 -2.383,1.752 -14.987,11.072 -19.101,15.096 -4.545,4.444 -1.792,6.377 -1.792,6.377 0,0 1.992,2.713 6.337,-1.933 3.824,-4.084 12.474,-16.306 14.505,-19.2 -0.941,6.667 -2.763,13.073 -5.455,18.95 -3.054,1.242 -13.895,5.727 -17.749,7.969 -0.01,0.01 -0.02,0.01 -0.031,0.02 -4.463,2.613 -2.672,4.685 -2.672,4.685 0,0 0.851,2.112 4.285,0.391 0.35,-0.181 0.72,-0.391 1.131,-0.651 3.553,-2.273 11.742,-9.22 14.735,-11.783 -1.952,4.124 -4.324,7.969 -7.107,11.451 -3.424,2.995 -10.452,9.22 -13.014,12.144 -3.424,3.934 -1.051,5.325 -1.051,5.325 0,0 1.802,2.092 5.056,-1.981 2.471,-3.084 7.477,-11.343 9.75,-15.156 2.793,-3.535 5.175,-7.418 7.137,-11.583 -0.971,3.884 -3.463,14.185 -3.904,18.36 -0.551,5.185 2.202,4.955 2.202,4.955 0,0 2.673,0.681 2.993,-4.524 0.281,-4.585 -0.64,-16.878 -0.871,-19.722 2.543,-5.655 4.305,-11.782 5.246,-18.158 0.39,4.383 1.642,18.088 2.832,23.274 1.422,6.196 4.505,4.855 4.505,4.855 0,0 3.354,-0.281 1.662,-6.416 -1.511,-5.487 -7.608,-19.631 -8.878,-22.544 1.081,-7.839 0.93,-16.018 -0.521,-24.116 2.111,5.726 7.668,20.612 10.631,26.167 3.693,6.938 6.937,4.335 6.937,4.335 0,0 3.914,-1.412 -0.08,-8.189 -3.534,-5.986 -15.146,-20.631 -17.779,-23.935 -1.111,-5.576 -2.843,-11.092 -5.205,-16.418 -1.712,-3.843 -3.724,-7.487 -5.996,-10.94 4.114,4.324 15.296,15.976 20.27,19.931 C -1.941,3.675 0,0 0,0"
           style="fill:#02796c;fill-opacity:1;fill-rule:nonzero;stroke:none"
           id="path60" />
      </g>
      <g
         id="g62"
         transform="translate(674.9844,171.7754)">
        <path
           d="m 0,0 c 0,0 0.1,6.077 -11.228,4.128 -11.328,-1.949 -43.125,-12.27 -43.125,-12.27 0,0 33.426,-0.55 44.828,0.906 C 1.876,-5.781 0,0 0,0"
           style="fill:#4eb572;fill-opacity:1;fill-rule:nonzero;stroke:none"
           id="path64" />
      </g>
      <g
         id="g66"
         transform="translate(657.0947,251.521)">
        <path
           d="m 0,0 c 0.33,-2.585 1.797,-8.333 2.728,-11.838 0.225,-3.979 0.209,-9.387 -0.647,-15.652 -1.06,3.538 -4.392,14.499 -6.235,18.526 -2.211,4.828 -4.503,3.205 -4.503,3.205 0,0 -2.695,-0.792 -0.276,-5.521 2.109,-4.121 9.159,-14.221 10.936,-16.749 -0.495,-3.456 -1.243,-7.158 -2.352,-11.021 -0.768,-2.677 -1.74,-5.516 -2.959,-8.461 -1.028,4.664 -4.578,20.464 -6.736,26.265 -2.544,6.839 -5.848,4.845 -5.848,4.845 0,0 -3.771,-0.814 -0.932,-7.536 2.477,-5.866 11.143,-20.449 13.309,-24.066 -2.525,-5.992 -6.087,-12.412 -11.105,-18.834 -0.234,5.207 -1.249,26.243 -2.701,34.011 -1.662,8.896 -6.121,7.158 -6.121,7.158 0,0 -4.782,-0.199 -2.734,-9.013 1.824,-7.853 9.604,-28.154 11.282,-32.497 -5.32,-6.739 -12.255,-13.467 -21.276,-19.692 0.571,4.297 4.387,33.437 4.287,44.072 -0.107,11.494 -6.069,10.308 -6.069,10.308 0,0 -6.024,0.813 -5.417,-10.665 0.566,-10.706 6.272,-39.937 7.038,-43.827 -5.523,-3.797 -11.813,-7.406 -19.006,-10.71 l 0.402,-0.878 c 18.949,8.702 31.769,19.5 40.448,30.352 4.38,0.367 26.353,2.263 34.281,4.072 8.823,2.012 6.911,6.398 6.911,6.398 0,0 -0.387,4.77 -9.113,2.376 -7.61,-2.086 -26.92,-10.346 -31.744,-12.429 5.283,6.688 9.006,13.386 11.613,19.619 2.855,0.948 20.289,6.779 26.278,9.761 6.532,3.252 4.201,6.327 4.201,6.327 0,0 -1.208,3.664 -7.592,0.132 -5.73,-3.17 -19.926,-13.814 -22.783,-15.968 1.244,2.999 2.233,5.888 3.015,8.613 1.121,3.906 1.877,7.652 2.378,11.151 2.368,1.626 12.724,8.788 16.182,11.958 3.914,3.59 1.665,5.272 1.665,5.272 0,0 -1.583,2.319 -5.338,-1.437 -3.207,-3.209 -10.419,-12.702 -12.453,-15.401 0.897,6.487 0.905,12.085 0.665,16.168 0.175,3.634 0.4,9.447 0.184,12.015 C 3.539,4.28 1.559,3.731 1.559,3.731 1.559,3.731 -0.492,3.854 0,0"
           style="fill:#4eb572;fill-opacity:1;fill-rule:nonzero;stroke:none"
           id="path68" />
      </g>
      <g
         id="g70"
         transform="translate(643.1641,26.416)">
        <path
           d="m 0,0 c 0,0 2.68,3.772 -5.271,7.425 -7.952,3.652 -32.358,10.86 -32.358,10.86 0,0 20.749,-14.734 28.534,-18.728 C -1.311,-4.437 0,0 0,0"
           style="fill:#4eb572;fill-opacity:1;fill-rule:nonzero;stroke:none"
           id="path72" />
      </g>
      <g
         id="g74"
         transform="translate(671.3008,65.7686)">
        <path
           d="m 0,0 c -3.534,-0.501 -13.114,-0.541 -15.307,-0.541 -1.821,-1.981 -3.904,-4.004 -6.297,-5.977 -1.661,-1.371 -3.523,-2.762 -5.595,-4.103 2.722,0.12 16.218,0.69 21.173,0.21 5.535,-0.53 4.714,-3.343 4.714,-3.343 0,0 0.14,-2.944 -5.366,-2.173 -5.035,0.711 -18.499,4.555 -20.691,5.186 -4.324,-2.783 -9.54,-5.386 -15.736,-7.319 3.923,-0.77 19.6,-3.893 25.276,-5.855 6.507,-2.253 4.695,-5.416 4.695,-5.416 0,0 -0.68,-3.584 -7.088,-1.041 -5.756,2.272 -20.371,10.541 -23.274,12.192 -5.566,-1.691 -11.923,-2.832 -19.12,-3.062 -0.781,-0.03 -1.562,-0.051 -2.363,-0.051 h -0.491 c -0.34,0 -0.68,0 -1.02,0.01 -1.362,0.011 -2.743,0.06 -4.155,0.151 -3.053,0.17 -6.247,0.51 -9.57,1.03 -0.581,0.081 -1.161,0.181 -1.742,0.282 l 0.08,0.46 0.041,0.27 c 0.47,-0.08 0.94,-0.16 1.411,-0.23 0.09,-0.01 0.18,-0.031 0.271,-0.04 3.193,-0.511 6.256,-0.841 9.199,-1.022 1.502,-0.09 2.983,-0.139 4.425,-0.16 0.41,-0.01 0.831,-0.01 1.241,-0.01 0.11,0.25 0.28,0.66 0.511,1.192 0.03,0.06 0.059,0.13 0.09,0.2 0.96,2.202 2.762,6.316 4.825,10.861 3.073,6.797 6.737,14.545 9.019,18.289 2.953,4.825 5.426,5.236 6.807,4.925 0.761,-0.17 1.182,-0.561 1.182,-0.561 0,0 1.542,-0.66 1.702,-2.772 0.109,-1.392 -0.381,-3.424 -2.324,-6.307 -2.972,-4.434 -10.48,-13.173 -15.886,-19.32 -1.942,-2.223 -3.614,-4.095 -4.704,-5.315 -0.071,-0.08 -0.131,-0.161 -0.201,-0.231 -0.38,-0.42 -0.68,-0.75 -0.871,-0.961 0.611,0 1.211,0.01 1.802,0.031 7.588,0.18 14.234,1.371 20.031,3.172 0.811,3.434 4.645,19.412 6.877,25.177 0.01,0.03 0.02,0.05 0.031,0.08 0.27,0.681 0.54,1.262 0.82,1.762 v 0.01 c 2.303,4.255 4.775,2.713 4.775,2.713 0,0 0.13,-0.03 0.33,-0.13 0.732,-0.361 2.333,-1.642 0.961,-5.657 -0.08,-0.219 -0.16,-0.46 -0.259,-0.7 v -0.01 c -0.09,-0.2 -0.17,-0.411 -0.271,-0.63 -2.433,-5.506 -10.852,-19.151 -12.943,-22.514 5.916,1.872 10.911,4.364 15.076,7.037 0.149,2.322 0.62,9.761 1.251,15.477 0.23,2.152 0.48,4.064 0.751,5.365 1.111,5.446 3.834,4.335 3.834,4.335 0,0 2.932,-0.171 1.581,-5.566 -0.23,-0.931 -0.611,-2.153 -1.071,-3.524 -1.802,-5.376 -4.925,-13.184 -6.006,-15.866 2.032,1.331 3.864,2.692 5.506,4.044 2.352,1.942 4.415,3.944 6.216,5.906 -0.02,1.451 -0.05,5.565 0.03,9.329 0.05,2.344 0.14,4.556 0.31,5.897 0.521,4.004 2.553,3.343 2.553,3.343 0.01,0 0.1,0 0.24,-0.03 0.501,-0.12 1.762,-0.73 1.212,-3.924 -0.581,-3.313 -3.204,-11.632 -4.064,-14.314 3.233,3.563 5.575,6.957 7.147,9.55 0.5,1.411 1.191,3.313 1.852,5.035 0.57,1.451 1.111,2.772 1.532,3.573 1.35,2.633 2.582,1.672 2.582,1.672 0,0 1.481,-0.51 0.02,-3.083 C -2.894,16.187 -3.754,14.946 -4.705,13.614 -5.727,12.193 -6.857,10.691 -7.729,9.55 -9.33,6.877 -11.742,3.374 -15.106,-0.32 -12.664,0.5 -4.045,3.354 -0.651,3.994 3.323,4.735 3.313,2.593 3.313,2.593 3.313,2.593 4.004,0.57 0,0"
           style="fill:#4eb572;fill-opacity:1;fill-rule:nonzero;stroke:none"
           id="path76" />
      </g>
    </g>
    <g
       id="g146">
      <g
         id="g148"
         clip-path="url(#clipPath152)">
        <g
           id="g186"
           transform="translate(393.2812,37.874)" />
        <g
           id="g190"
           transform="translate(419.5371,37.874)" />
        <g
           id="g194"
           transform="translate(634.0547,305.5371)">
          <path
             d="m 0,0 c 1.051,-1.271 1.552,-2.803 1.552,-4.315 0,-2.272 -1.132,-4.504 -3.244,-5.806 -2.082,-1.281 -3.244,-3.514 -3.244,-5.806 0,-1.061 0.25,-2.132 0.771,-3.134 0.531,-1.011 0.771,-2.082 0.771,-3.132 0,-1.352 -0.41,-2.673 -1.151,-3.785 -0.77,-1.171 -1.922,-2.122 -3.374,-2.632 -2.772,-0.981 -4.524,-3.594 -4.524,-6.407 0,-0.601 0.08,-1.212 0.25,-1.822 0.171,-0.611 0.251,-1.231 0.251,-1.832 0,-3.304 -2.444,-6.267 -5.907,-6.727 -3.404,-0.451 -5.906,-3.344 -5.906,-6.737 0,-0.14 0,-0.28 0.01,-0.421 0.26,-4.124 -3.193,-7.517 -7.308,-7.197 -0.18,0.01 -0.36,0.02 -0.541,0.02 -3.333,0 -6.216,-2.443 -6.717,-5.796 -0.501,-3.414 -3.443,-5.796 -6.716,-5.796 -0.631,0 -1.282,0.09 -1.933,0.28 -0.641,0.191 -1.291,0.28 -1.922,0.28 -2.772,0 -5.355,-1.702 -6.366,-4.424 -1.041,-2.773 -3.645,-4.425 -6.377,-4.425 -1.091,0 -2.202,0.26 -3.233,0.821 -1.032,0.561 -2.143,0.82 -3.244,0.82 -2.252,0 -4.445,-1.121 -5.736,-3.142 -1.302,-2.063 -3.514,-3.155 -5.746,-3.155 -1.552,0 -3.113,0.532 -4.395,1.623 -1.281,1.09 -2.853,1.631 -4.415,1.631 -1.541,0 -3.062,-0.52 -4.304,-1.542 -0.17,-0.139 -0.34,-0.29 -0.5,-0.45 -0.021,-0.019 -0.031,-0.03 -0.05,-0.05 -1.342,-1.361 -3.104,-2.032 -4.846,-2.032 -2.032,0 -4.044,0.901 -5.395,2.652 -1.331,1.733 -3.344,2.664 -5.396,2.664 -1.291,0 -2.602,-0.371 -3.754,-1.142 -1.161,-0.771 -2.463,-1.131 -3.744,-1.131 -2.522,0 -4.965,1.401 -6.146,3.874 -1.152,2.433 -3.584,3.874 -6.137,3.874 -0.831,0 -1.671,-0.16 -2.492,-0.48 -0.821,-0.33 -1.672,-0.481 -2.503,-0.481 -3.024,0 -5.846,2.053 -6.597,5.206 -0.751,3.104 -3.513,5.205 -6.607,5.205 -0.37,0 -0.75,-0.03 -1.131,-0.089 -0.391,-0.071 -0.771,-0.101 -1.151,-0.101 -3.594,0 -6.667,2.884 -6.767,6.617 -0.051,1.782 -0.791,3.404 -1.952,4.585 -1.172,1.191 -2.774,1.952 -4.555,2.032 -3.694,0.15 -6.507,3.214 -6.507,6.777 0,0.401 0.03,0.821 0.11,1.242 0.08,0.42 0.11,0.83 0.11,1.251 0,3.043 -2.042,5.786 -5.096,6.567 -3.102,0.801 -5.094,3.594 -5.094,6.587 0,0.861 0.16,1.742 0.51,2.592 0.35,0.851 0.521,1.733 0.521,2.603 -0.011,0.161 -0.011,0.311 -0.021,0.471 -0.16,2.332 -1.521,4.505 -3.754,5.606 -2.412,1.201 -3.773,3.613 -3.773,6.096 0,1.322 0.39,2.663 1.201,3.844 0.801,1.172 1.191,2.513 1.191,3.844 0,2.003 -0.881,3.985 -2.573,5.326 -1.702,1.352 -2.562,3.323 -2.562,5.315 0,1.792 0.69,3.584 2.112,4.935 1.401,1.332 2.112,3.124 2.112,4.926 0,1.531 -0.51,3.063 -1.551,4.324 -1.052,1.271 -1.562,2.803 -1.562,4.315 0,2.272 1.131,4.505 3.243,5.806 2.082,1.281 3.243,3.514 3.243,5.806 0,1.061 -0.25,2.133 -0.77,3.134 -0.53,1.01 -0.771,2.082 -0.771,3.133 0,2.773 1.702,5.415 4.525,6.417 2.772,0.981 4.524,3.583 4.524,6.396 0,0.611 -0.08,1.221 -0.25,1.832 -0.17,0.611 -0.25,1.222 -0.25,1.822 0,3.314 2.443,6.277 5.907,6.737 3.403,0.451 5.906,3.344 5.906,6.737 0,0.14 0,0.281 -0.011,0.421 -0.01,0.14 -0.01,0.28 -0.01,0.42 0,3.934 3.344,7.087 7.328,6.777 0.18,-0.009 0.361,-0.02 0.54,-0.02 3.334,0 6.217,2.443 6.707,5.796 0.511,3.424 3.464,5.806 6.728,5.806 0.631,0 1.281,-0.09 1.922,-0.28 0.64,-0.19 1.302,-0.28 1.942,-0.28 2.763,0 5.346,1.702 6.357,4.414 1.031,2.773 3.643,4.425 6.377,4.425 1.09,0 2.202,-0.26 3.233,-0.821 1.021,-0.56 2.132,-0.82 3.224,-0.82 2.261,0 4.454,1.12 5.745,3.153 1.311,2.052 3.514,3.153 5.746,3.153 1.552,0 3.113,-0.53 4.405,-1.632 1.272,-1.091 2.843,-1.631 4.404,-1.631 0.881,0 1.762,0.17 2.593,0.51 0.391,0.17 0.781,0.371 1.142,0.611 0.019,0.01 0.04,0.02 0.05,0.03 0.019,0.01 0.03,0.02 0.049,0.03 h 0.01 c 0.361,0.26 0.692,0.54 1.012,0.861 1.341,1.361 3.102,2.032 4.845,2.032 2.032,0 4.044,-0.901 5.395,-2.653 1.332,-1.731 3.354,-2.652 5.397,-2.652 1.291,0 2.602,0.37 3.754,1.131 1.161,0.771 2.461,1.131 3.743,1.131 2.523,0 4.966,-1.402 6.146,-3.864 1.161,-2.433 3.584,-3.874 6.137,-3.874 0.831,0 1.672,0.16 2.492,0.48 0.821,0.321 1.662,0.471 2.493,0.471 3.033,0 5.857,-2.053 6.617,-5.206 0.741,-3.103 3.514,-5.205 6.597,-5.205 0.37,0 0.751,0.03 1.131,0.09 0.391,0.07 0.771,0.1 1.151,0.1 3.605,0 6.677,-2.883 6.778,-6.617 0.04,-1.782 0.781,-3.403 1.942,-4.585 1.171,-1.192 2.773,-1.942 4.555,-2.022 3.704,-0.16 6.507,-3.224 6.507,-6.777 0,-0.411 -0.031,-0.831 -0.111,-1.251 -0.08,-0.421 -0.11,-0.831 -0.11,-1.242 0,-3.043 2.053,-5.796 5.096,-6.577 3.103,-0.801 5.105,-3.594 5.105,-6.577 0,-0.871 -0.17,-1.752 -0.52,-2.602 -0.351,-0.841 -0.511,-1.722 -0.511,-2.593 0,-2.503 1.391,-4.905 3.764,-6.087 2.422,-1.201 3.774,-3.613 3.774,-6.096 0,-0.761 -0.13,-1.532 -0.391,-2.272 -0.19,-0.541 -0.46,-1.061 -0.8,-1.562 -0.811,-1.171 -1.192,-2.513 -1.192,-3.844 0,-2.012 0.881,-3.995 2.563,-5.326 1.702,-1.361 2.573,-3.343 2.573,-5.335 0,-1.782 -0.701,-3.574 -2.112,-4.916 C -0.841,7.928 -1.552,6.136 -1.552,4.324 -1.552,2.803 -1.041,1.261 0,0"
             style="fill:#33334f;fill-opacity:1;fill-rule:nonzero;stroke:none"
             id="path196" />
        </g>
        <g
           id="g198">
          <g
             id="g200" />
          <g
             id="g212">
            <g
               clip-path="url(#clipPath204)"
               opacity="0.300003"
               id="g210">
              <g
                 transform="translate(541.4473,254.8335)"
                 id="g208">
                <path
                   d="m 0,0 v -0.321 l -0.091,-31.533 c -0.17,-0.14 -0.34,-0.29 -0.5,-0.45 -0.02,-0.02 -0.03,-0.03 -0.05,-0.05 -1.341,-1.361 -3.103,-2.032 -4.845,-2.032 -2.033,0 -4.044,0.9 -5.396,2.652 -1.331,1.733 -3.344,2.663 -5.395,2.663 -1.291,0 -2.603,-0.37 -3.754,-1.141 -1.161,-0.771 -2.463,-1.131 -3.744,-1.131 -2.523,0 -4.965,1.401 -6.147,3.874 -1.151,2.432 -3.584,3.874 -6.137,3.874 -0.831,0 -1.67,-0.16 -2.492,-0.481 -0.821,-0.33 -1.672,-0.48 -2.503,-0.48 -3.023,0 -5.845,2.053 -6.596,5.206 -0.751,3.103 -3.514,5.205 -6.608,5.205 -0.37,0 -0.75,-0.03 -1.131,-0.09 -0.39,-0.07 -0.77,-0.1 -1.151,-0.1 -3.594,0 -6.667,2.883 -6.767,6.617 -0.05,1.782 -0.791,3.404 -1.952,4.585 -1.172,1.191 -2.773,1.952 -4.554,2.032 -3.695,0.15 -6.507,3.213 -6.507,6.777 0,0.4 0.029,0.821 0.109,1.241 0.08,0.421 0.11,0.831 0.11,1.252 0,3.042 -2.042,5.786 -5.095,6.566 -3.103,0.802 -5.095,3.595 -5.095,6.587 0,0.862 0.16,1.742 0.511,2.593 0.349,0.851 0.52,1.732 0.52,2.603 0,2.503 -1.391,4.905 -3.774,6.077 -2.412,1.2 -3.774,3.613 -3.774,6.096 0,1.321 0.39,2.663 1.202,3.844 0.8,1.172 1.19,2.512 1.19,3.844 0,2.002 -0.881,3.984 -2.572,5.326 -1.702,1.351 -2.563,3.323 -2.563,5.315 0,1.792 0.691,3.584 2.113,4.935 1.401,1.332 2.112,3.124 2.112,4.925 0,1.532 -0.511,3.064 -1.552,4.325 -1.052,1.271 -1.561,2.803 -1.561,4.315 0,2.272 1.13,4.504 3.243,5.805 0,0 35.937,-79.944 91.196,-81.325"
                   style="fill:#26263d;fill-opacity:1;fill-rule:nonzero;stroke:none"
                   id="path206" />
              </g>
            </g>
          </g>
        </g>
        <g
           id="g214">
          <g
             id="g216" />
          <g
             id="g228">
            <g
               clip-path="url(#clipPath220)"
               opacity="0.300003"
               id="g226">
              <g
                 transform="translate(634.0547,305.5371)"
                 id="g224">
                <path
                   d="m 0,0 c 1.051,-1.271 1.552,-2.803 1.552,-4.315 0,-2.272 -1.132,-4.504 -3.244,-5.806 -2.082,-1.281 -3.244,-3.514 -3.244,-5.806 0,-1.061 0.25,-2.132 0.771,-3.134 0.531,-1.011 0.771,-2.082 0.771,-3.132 0,-2.773 -1.702,-5.416 -4.525,-6.417 -2.772,-0.981 -4.524,-3.594 -4.524,-6.407 0,-0.601 0.08,-1.212 0.25,-1.822 0.171,-0.611 0.251,-1.231 0.251,-1.832 0,-3.304 -2.444,-6.267 -5.907,-6.727 -3.404,-0.451 -5.906,-3.344 -5.906,-6.737 0,-0.14 0,-0.28 0.01,-0.421 0.26,-4.124 -3.193,-7.517 -7.308,-7.197 -0.18,0.01 -0.36,0.02 -0.541,0.02 -3.333,0 -6.216,-2.443 -6.717,-5.796 -0.501,-3.414 -3.443,-5.796 -6.716,-5.796 -0.631,0 -1.282,0.09 -1.933,0.28 -0.641,0.191 -1.291,0.28 -1.922,0.28 -2.772,0 -5.355,-1.702 -6.366,-4.424 -1.041,-2.773 -3.645,-4.425 -6.377,-4.425 -1.091,0 -2.202,0.26 -3.233,0.821 -1.032,0.561 -2.143,0.82 -3.244,0.82 -2.252,0 -4.445,-1.121 -5.736,-3.142 -1.302,-2.063 -3.514,-3.155 -5.746,-3.155 -1.552,0 -3.113,0.532 -4.395,1.623 -1.281,1.09 -2.853,1.631 -4.415,1.631 -1.541,0 -3.062,-0.52 -4.304,-1.542 -0.17,-0.139 -0.34,-0.29 -0.5,-0.45 l -0.08,31.954 c 0.219,0.011 0.45,0.011 0.671,0.03 54.867,2.002 90.514,81.295 90.514,81.295 l 1.622,-0.029 c -0.19,-0.541 -0.46,-1.061 -0.8,-1.562 -0.811,-1.171 -1.192,-2.513 -1.192,-3.844 0,-2.012 0.881,-3.995 2.563,-5.326 1.702,-1.361 2.573,-3.343 2.573,-5.335 0,-1.782 -0.701,-3.574 -2.112,-4.916 C -0.841,7.928 -1.552,6.136 -1.552,4.324 -1.552,2.803 -1.041,1.261 0,0"
                   style="fill:#26263d;fill-opacity:1;fill-rule:nonzero;stroke:none"
                   id="path222" />
              </g>
            </g>
          </g>
        </g>
        <g
           id="g230">
          <g
             id="g232" />
          <g
             id="g244">
            <g
               clip-path="url(#clipPath236)"
               opacity="0.0500031"
               id="g242">
              <g
                 transform="translate(536.9521,407.0537)"
                 id="g240">
                <path
                   d="m 0,0 c 0.881,0 1.762,0.17 2.593,0.511 -21.803,-11.713 -86.101,-52.586 -83.378,-125.743 -0.16,2.333 -1.522,4.505 -3.754,5.607 -2.412,1.2 -3.774,3.613 -3.774,6.096 0,1.321 0.39,2.662 1.202,3.843 0.8,1.172 1.19,2.513 1.19,3.845 0,2.002 -0.881,3.984 -2.572,5.325 -1.702,1.352 -2.563,3.324 -2.563,5.316 0,1.792 0.691,3.584 2.113,4.935 1.401,1.331 2.112,3.123 2.112,4.925 0,1.532 -0.511,3.064 -1.552,4.325 -1.052,1.271 -1.561,2.803 -1.561,4.314 0,2.273 1.131,4.505 3.243,5.806 2.082,1.282 3.243,3.514 3.243,5.807 0,1.061 -0.25,2.132 -0.771,3.133 -0.53,1.011 -0.77,2.082 -0.77,3.133 0,2.773 1.701,5.416 4.524,6.417 2.773,0.981 4.525,3.584 4.525,6.396 0,0.612 -0.08,1.222 -0.25,1.832 -0.17,0.611 -0.25,1.222 -0.25,1.823 0,3.313 2.442,6.276 5.906,6.737 3.403,0.45 5.906,3.343 5.906,6.737 0,0.14 0,0.28 -0.01,0.42 -0.01,0.14 -0.01,0.281 -0.01,0.42 0,3.935 3.344,7.088 7.328,6.778 0.18,-0.01 0.36,-0.02 0.54,-0.02 3.334,0 6.217,2.442 6.707,5.796 0.511,3.423 3.464,5.806 6.728,5.806 0.63,0 1.281,-0.091 1.921,-0.28 0.641,-0.19 1.302,-0.28 1.943,-0.28 2.762,0 5.345,1.701 6.356,4.414 1.031,2.773 3.644,4.425 6.377,4.425 1.091,0 2.202,-0.261 3.234,-0.821 1.02,-0.561 2.131,-0.821 3.223,-0.821 2.262,0 4.454,1.121 5.745,3.153 1.312,2.052 3.515,3.154 5.746,3.154 1.552,0 3.114,-0.531 4.406,-1.632 C -3.133,0.541 -1.562,0 0,0"
                   style="fill:#ffffff;fill-opacity:1;fill-rule:nonzero;stroke:none"
                   id="path238" />
              </g>
            </g>
          </g>
        </g>
        <g
           id="g246">
          <g
             id="g248" />
          <g
             id="g260">
            <g
               clip-path="url(#clipPath252)"
               opacity="0.0500031"
               id="g258">
              <g
                 transform="translate(634.0547,305.5371)"
                 id="g256">
                <path
                   d="m 0,0 c 1.051,-1.271 1.552,-2.803 1.552,-4.315 0,-2.272 -1.132,-4.504 -3.244,-5.806 -2.082,-1.281 -3.244,-3.514 -3.244,-5.806 0,-1.061 0.25,-2.132 0.771,-3.134 0.531,-1.011 0.771,-2.082 0.771,-3.132 0,-1.352 -0.41,-2.673 -1.151,-3.785 l -0.711,0.061 c 3.294,79.824 -73.207,121.337 -88.003,128.615 0.361,0.26 0.692,0.54 1.012,0.861 1.341,1.361 3.102,2.032 4.845,2.032 2.032,0 4.044,-0.901 5.395,-2.653 1.332,-1.731 3.354,-2.652 5.397,-2.652 1.291,0 2.602,0.37 3.754,1.131 1.161,0.771 2.461,1.131 3.743,1.131 2.523,0 4.966,-1.402 6.146,-3.864 1.161,-2.433 3.584,-3.874 6.137,-3.874 0.831,0 1.672,0.16 2.492,0.48 0.821,0.321 1.662,0.471 2.493,0.471 3.033,0 5.857,-2.053 6.617,-5.206 0.741,-3.103 3.514,-5.205 6.597,-5.205 0.37,0 0.751,0.03 1.131,0.09 0.391,0.07 0.771,0.1 1.151,0.1 3.605,0 6.677,-2.883 6.778,-6.617 0.04,-1.782 0.781,-3.403 1.942,-4.585 1.171,-1.192 2.773,-1.942 4.555,-2.022 3.704,-0.16 6.507,-3.224 6.507,-6.777 0,-0.411 -0.031,-0.831 -0.111,-1.251 -0.08,-0.421 -0.11,-0.831 -0.11,-1.242 0,-3.043 2.053,-5.796 5.096,-6.577 3.103,-0.801 5.105,-3.594 5.105,-6.577 0,-0.871 -0.17,-1.752 -0.52,-2.602 -0.351,-0.841 -0.511,-1.722 -0.511,-2.593 0,-2.503 1.391,-4.905 3.764,-6.087 2.422,-1.201 3.774,-3.613 3.774,-6.096 0,-0.761 -0.13,-1.532 -0.391,-2.272 -0.19,-0.541 -0.46,-1.061 -0.8,-1.562 -0.811,-1.171 -1.192,-2.513 -1.192,-3.844 0,-2.012 0.881,-3.995 2.563,-5.326 1.702,-1.361 2.573,-3.343 2.573,-5.335 0,-1.782 -0.701,-3.574 -2.112,-4.916 C -0.841,7.928 -1.552,6.136 -1.552,4.324 -1.552,2.803 -1.041,1.261 0,0"
                   style="fill:#ffffff;fill-opacity:1;fill-rule:nonzero;stroke:none"
                   id="path254" />
              </g>
            </g>
          </g>
        </g>
        <g
           id="g262"
           transform="translate(525.8555,213.8135)">
          <path
             d="M 0,0 34.371,0.604 29.55,22.927 27.504,32.39 5.368,31.938 1.357,8.088 Z"
             style="fill:#de786e;fill-opacity:1;fill-rule:nonzero;stroke:none"
             id="path264" />
        </g>
        <g
           id="g266"
           transform="translate(527.2129,221.9014)">
          <path
             d="M 0,0 C 7.615,0.659 19.237,3.666 28.192,14.839 L 26.146,24.302 4.011,23.851 Z"
             style="fill:#924f4c;fill-opacity:1;fill-rule:nonzero;stroke:none"
             id="path268" />
        </g>
        <g
           id="g270"
           transform="translate(578.5625,269.7656)">
          <path
             d="m 0,0 c -3.117,-13.266 -11.781,-23.94 -23.034,-28.832 -0.845,-0.37 -1.718,-0.717 -2.607,-1.018 -0.342,-0.118 -0.695,-0.242 -1.029,-0.32 -3.651,-1.146 -7.532,-1.685 -11.507,-1.554 -6.757,0.246 -13.352,2.436 -19.188,6.118 -8.497,5.374 -15.375,13.836 -18.792,23.771 -1.097,3.162 -1.856,6.452 -2.208,9.845 -0.169,1.687 -0.243,3.42 -0.207,5.145 0.067,3.324 0.428,6.546 1.072,9.626 0.244,1.182 0.534,2.337 0.87,3.472 0.271,0.921 0.555,1.83 0.89,2.735 0,0 0.013,0.022 0.01,0.04 0.198,0.57 0.383,1.082 0.617,1.618 0.078,0.23 0.188,0.452 0.291,0.676 0.048,0.135 0.107,0.283 0.175,0.43 l 0.018,0.004 c 0.423,1.031 0.922,2.018 1.453,2.998 0.161,0.296 0.316,0.594 0.496,0.903 2.838,4.945 6.666,9.142 11.384,12.299 l 0.01,0.006 0.008,-0.002 c 4.879,3.266 10.711,5.434 17.402,6.167 0.01,0.007 0.019,0.005 0.019,0.005 2.365,0.262 4.842,0.345 7.414,0.235 5.767,-0.242 11.208,-1.844 16.052,-4.555 0.638,-0.351 1.269,-0.726 1.887,-1.124 C -8.212,42.162 -0.847,30.6 0.859,17.103 1.17,14.761 1.303,12.391 1.251,9.96 1.182,6.518 0.761,3.182 0,0"
             style="fill:#33334f;fill-opacity:1;fill-rule:nonzero;stroke:none"
             id="path272" />
        </g>
        <g
           id="g274"
           transform="translate(513.2764,271.1636)">
          <path
             d="M 0,0 C -6.779,6.784 -13.428,5.778 -14.271,-4.064 -15.112,-13.906 -4.48,-19.681 2.322,-15.349 9.125,-11.016 0,0 0,0"
             style="fill:#de786e;fill-opacity:1;fill-rule:nonzero;stroke:none"
             id="path276" />
        </g>
        <g
           id="g278"
           transform="translate(507.2158,269.7061)">
          <path
             d="m 0,0 c -3.593,-0.077 -3.25,-10.759 4.414,-9.541 l -1.501,2.02 -0.561,2.179 0.613,2.376 z"
             style="fill:#924f4c;fill-opacity:1;fill-rule:nonzero;stroke:none"
             id="path280" />
        </g>
        <g
           id="g282"
           transform="translate(513.0566,258.9834)">
          <path
             d="m 0,0 c -5.396,3.81 -2.876,7.757 -2.876,7.757 0,0 -5.987,7.777 -6.316,0.807"
             style="fill:none;stroke:#33334f;stroke-width:0.501;stroke-linecap:butt;stroke-linejoin:miter;stroke-miterlimit:10;stroke-dasharray:none;stroke-opacity:1"
             id="path284" />
        </g>
        <g
           id="g286"
           transform="translate(570.4111,270.1855)">
          <path
             d="M 0,0 C 6.78,6.784 13.429,5.778 14.271,-4.064 15.113,-13.906 4.481,-19.681 -2.322,-15.349 -9.124,-11.016 0,0 0,0"
             style="fill:#de786e;fill-opacity:1;fill-rule:nonzero;stroke:none"
             id="path288" />
        </g>
        <g
           id="g290"
           transform="translate(576.4727,268.728)">
          <path
             d="m 0,0 c 3.593,-0.077 3.25,-10.759 -4.414,-9.541 l 1.501,2.019 0.561,2.18 -0.613,2.376 z"
             style="fill:#924f4c;fill-opacity:1;fill-rule:nonzero;stroke:none"
             id="path292" />
        </g>
        <g
           id="g294"
           transform="translate(570.6318,258.0054)">
          <path
             d="m 0,0 c 5.396,3.81 2.876,7.757 2.876,7.757 0,0 5.987,7.777 6.316,0.807"
             style="fill:none;stroke:#33334f;stroke-width:0.501;stroke-linecap:butt;stroke-linejoin:miter;stroke-miterlimit:10;stroke-dasharray:none;stroke-opacity:1"
             id="path296" />
        </g>
        <g
           id="g298"
           transform="translate(569.1436,257.5581)">
          <path
             d="m 0,0 c -0.768,-3.659 -1.836,-7.173 -3.273,-10.346 -0.657,-1.458 -1.406,-2.867 -2.24,-4.19 -0.675,-1.083 -1.412,-2.104 -2.214,-3.072 -4.914,-5.948 -12.25,-9.622 -23.049,-8.833 -9.268,0.658 -15.361,5.273 -19.275,11.722 -0.051,0.068 -0.091,0.143 -0.133,0.211 l -0.004,0.019 c -0.281,0.483 -0.553,0.954 -0.811,1.45 l 0.002,0.009 c -2.537,4.813 -4.03,10.614 -4.827,16.59 -2.342,17.431 1.134,36.341 1.134,36.341 L 0.209,41.299 C 0.209,41.299 3.942,18.747 0,0"
             style="fill:#de786e;fill-opacity:1;fill-rule:nonzero;stroke:none"
             id="path300" />
        </g>
        <g
           id="g302">
          <g
             id="g304" />
          <g
             id="g316">
            <g
               clip-path="url(#clipPath308)"
               opacity="0.300003"
               id="g314">
              <g
                 transform="translate(569.1436,257.5581)"
                 id="g312">
                <path
                   d="m 0,0 c -0.768,-3.659 -1.836,-7.173 -3.273,-10.346 -0.657,-1.458 -1.406,-2.867 -2.24,-4.19 -0.675,-1.083 -1.412,-2.104 -2.214,-3.072 -0.324,0.036 -0.654,0.092 -0.979,0.166 -5.408,1.234 -8.787,6.609 -7.554,12.017 1.232,5.399 6.607,8.778 12.015,7.544 C -2.627,1.75 -1.188,1.003 0,0"
                   style="fill:#772c2b;fill-opacity:1;fill-rule:nonzero;stroke:none"
                   id="path310" />
              </g>
            </g>
          </g>
        </g>
        <g
           id="g318">
          <g
             id="g320" />
          <g
             id="g332">
            <g
               clip-path="url(#clipPath324)"
               opacity="0.300003"
               id="g330">
              <g
                 transform="translate(528.8066,250.6411)"
                 id="g328">
                <path
                   d="m 0,0 c -1.056,-4.63 -5.151,-7.778 -9.714,-7.802 -0.051,0.068 -0.091,0.143 -0.133,0.211 l -0.005,0.019 c -0.28,0.483 -0.552,0.954 -0.81,1.45 l 0.002,0.009 c -2.537,4.813 -4.03,10.614 -4.827,16.59 2.227,1.547 5.076,2.191 7.933,1.54 C -2.146,10.783 1.231,5.399 0,0"
                   style="fill:#772c2b;fill-opacity:1;fill-rule:nonzero;stroke:none"
                   id="path326" />
              </g>
            </g>
          </g>
        </g>
        <g
           id="g334"
           transform="translate(553.5098,286.2476)">
          <path
             d="M 0,0 C 8.216,-3.457 13.773,-2.817 6.902,0.756 0.03,4.33 -4.258,1.792 0,0"
             style="fill:#33334f;fill-opacity:1;fill-rule:nonzero;stroke:none"
             id="path336" />
        </g>
        <g
           id="g338"
           transform="translate(530.0254,286.4766)">
          <path
             d="M 0,0 C -8.382,-3.034 -13.899,-2.112 -6.854,1.106 0.19,4.325 4.343,1.572 0,0"
             style="fill:#33334f;fill-opacity:1;fill-rule:nonzero;stroke:none"
             id="path340" />
        </g>
        <g
           id="g342"
           transform="translate(557.6406,260.5625)">
          <path
             d="m 0,0 c -5.516,-0.08 -10.08,4.365 -10.15,9.88 -0.01,1.052 0.139,2.073 0.43,3.044 1.232,4.074 4.975,7.057 9.449,7.107 0.711,0.02 1.413,-0.05 2.093,-0.19 1.932,-0.381 3.664,-1.321 5.026,-2.653 0.37,-0.35 0.7,-0.741 1.001,-1.141 C 9.12,14.415 9.86,12.374 9.891,10.151 9.961,4.635 5.526,0.07 0,0 m -31.553,-0.43 h -0.15 c -2.663,0.01 -5.106,1.061 -6.898,2.773 -1.891,1.792 -3.073,4.304 -3.113,7.107 -0.03,3.024 1.272,5.746 3.363,7.608 1.733,1.552 4.015,2.513 6.518,2.553 4.134,0.059 7.737,-2.413 9.31,-5.977 0.53,-1.2 0.831,-2.522 0.85,-3.913 0.08,-5.516 -4.354,-10.072 -9.88,-10.151 m 41.984,16.948 c -0.71,1.161 -1.621,2.191 -2.662,3.053 -1.733,1.431 -3.845,2.392 -6.158,2.722 -0.62,0.091 -1.26,0.141 -1.911,0.121 -5.967,-0.081 -10.872,-4.335 -12.003,-9.951 0,-0.029 -0.01,-0.069 -0.01,-0.089 -0.04,0.02 -0.07,0.039 -0.11,0.06 -0.991,0.69 -2.272,1.291 -3.754,1.271 h -0.05 c -0.971,-0.031 -1.892,-0.31 -2.743,-0.841 -0.22,-0.131 -0.44,-0.281 -0.65,-0.451 -0.051,0.2 -0.101,0.411 -0.191,0.631 v 0.01 c -1.511,5.215 -6.356,9.009 -12.052,8.929 -3.695,-0.04 -7.008,-1.721 -9.241,-4.334 -1.741,-2.032 -2.822,-4.605 -2.962,-7.418 -0.02,-0.26 -0.02,-0.531 -0.02,-0.801 0.04,-2.823 1.03,-5.426 2.652,-7.488 0.561,-0.72 1.202,-1.371 1.913,-1.952 0.43,-0.36 0.89,-0.681 1.381,-0.981 1.351,-0.831 2.883,-1.411 4.515,-1.672 h 0.01 c 0.68,-0.11 1.382,-0.16 2.092,-0.15 0.541,0.01 1.071,0.05 1.591,0.13 5.927,0.851 10.492,5.907 10.621,12.003 0.561,0.721 1.132,1.262 1.733,1.581 0.45,0.271 0.931,0.411 1.411,0.421 h 0.021 c 1.401,0.03 2.642,-0.951 3.313,-1.622 0.13,-0.119 0.25,-0.23 0.33,-0.32 0.33,-6.397 5.516,-11.502 11.902,-11.733 0.21,-0.019 0.431,-0.019 0.641,-0.019 2.213,0.03 4.285,0.64 6.066,1.681 0.731,0.431 1.422,0.932 2.042,1.502 2.263,2.032 3.775,4.885 4.065,8.079 0.04,0.43 0.06,0.86 0.05,1.301 -0.04,2.312 -0.7,4.485 -1.832,6.327"
             style="fill:#ffffff;fill-opacity:1;fill-rule:nonzero;stroke:none"
             id="path344" />
        </g>
        <g
           id="g346"
           transform="translate(538.002,239.7354)">
          <path
             d="M 0,0 C 0.012,-0.903 1.691,-1.614 3.75,-1.587 5.809,-1.56 7.468,-0.804 7.456,0.1 7.444,1.004 5.765,1.714 3.706,1.687 1.647,1.659 -0.012,0.904 0,0"
             style="fill:#924f4c;fill-opacity:1;fill-rule:nonzero;stroke:none"
             id="path348" />
        </g>
        <g
           id="g350"
           transform="translate(549.6201,271.3921)">
          <path
             d="m 0,0 c 0.816,-1.077 1.766,-2.005 2.825,-2.794 1.08,-0.744 2.27,-1.376 3.654,-1.584 1.351,-0.238 2.975,-0.095 4.402,0.923 1.452,0.961 2.451,2.598 3.088,4.167 L 13.852,0.805 C 12.588,-0.233 11.564,-1.321 10.375,-1.853 9.245,-2.428 8.064,-2.905 6.819,-2.901 5.586,-2.9 4.396,-2.496 3.282,-1.951 2.155,-1.419 1.079,-0.72 0.121,0.144 Z"
             style="fill:#33334f;fill-opacity:1;fill-rule:nonzero;stroke:none"
             id="path352" />
        </g>
        <g
           id="g354"
           transform="translate(533.875,271.3936)">
          <path
             d="m 0,0 c -0.816,-1.077 -1.765,-2.005 -2.824,-2.795 -1.08,-0.744 -2.27,-1.376 -3.654,-1.584 -1.35,-0.239 -2.974,-0.096 -4.402,0.922 -1.453,0.96 -2.452,2.597 -3.089,4.165 l 0.118,0.093 c 1.264,-1.037 2.288,-2.125 3.477,-2.656 1.13,-0.575 2.311,-1.052 3.556,-1.048 1.233,0.002 2.422,0.406 3.537,0.951 1.127,0.533 2.202,1.232 3.161,2.096 z"
             style="fill:#33334f;fill-opacity:1;fill-rule:nonzero;stroke:none"
             id="path356" />
        </g>
        <g
           id="g358"
           transform="translate(536.3916,259.4771)">
          <path
             d="m 0,0 c 0.817,-2.71 2.765,-4.622 5.052,-4.64 2.185,-0.017 4.088,1.701 5.002,4.207"
             style="fill:none;stroke:#33334f;stroke-width:0.501;stroke-linecap:butt;stroke-linejoin:miter;stroke-miterlimit:10;stroke-dasharray:none;stroke-opacity:1"
             id="path360" />
        </g>
        <g
           id="g362"
           transform="translate(532.5225,250.3501)">
          <path
             d="M 0,0 C 0,0 2.983,-7.069 15.826,-2.749"
             style="fill:none;stroke:#33334f;stroke-width:0.501;stroke-linecap:butt;stroke-linejoin:miter;stroke-miterlimit:10;stroke-dasharray:none;stroke-opacity:1"
             id="path364" />
        </g>
        <g
           id="g366"
           transform="translate(480.5205,98.3984)">
          <path
             d="M 0,0 C 0,0 10.851,8.47 12.553,31.298 L -7.743,41.06 -16.46,24.79 Z"
             style="fill:#924f4c;fill-opacity:1;fill-rule:nonzero;stroke:none"
             id="path368" />
        </g>
        <g
           id="g370"
           transform="translate(634.832,94.0273)">
          <path
             d="M 0,0 C -0.08,-0.01 -0.16,-0.01 -0.24,-0.021 -0.4,-0.03 -0.551,-0.04 -0.701,-0.05 c -0.16,-0.011 -0.33,-0.011 -0.49,-0.011 h -0.111 -0.019 c -2.332,0.031 -4.535,0.722 -6.608,1.922 -1.661,0.962 -3.233,2.233 -4.724,3.754 -0.06,0.061 -0.12,0.121 -0.18,0.191 -0.251,0.25 -0.501,0.521 -0.741,0.791 -0.671,0.741 -1.331,1.521 -1.962,2.352 -4.074,5.306 -7.359,12.154 -9.78,18.23 -0.071,0.17 -0.141,0.35 -0.211,0.52 -0.039,0.09 -0.07,0.17 -0.11,0.26 -2.192,5.646 -3.634,10.521 -4.255,12.744 -0.03,0.1 -0.12,0.29 -0.27,0.55 -0.36,0.651 -1.051,1.732 -1.802,2.903 -1.531,2.373 -3.353,5.075 -3.353,5.075 l 2.453,0.582 1.901,0.46 5.126,1.211 4.094,0.981 h 18.37 l 0.2,-3.113 0.35,-5.496 0.341,-5.276 0.259,-3.974 0.331,-5.145 0.05,-0.781 0.071,-1.08 0.099,-1.653 0.951,-14.746 0.1,-1.481 0.15,-2.472 0.05,-0.771 z"
             style="fill:#924f4c;fill-opacity:1;fill-rule:nonzero;stroke:none"
             id="path372" />
        </g>
        <g
           id="g374"
           transform="translate(607.4414,0.1152)">
          <path
             d="m 0,0 h -55.284 c -0.224,1.257 -0.831,2.387 -1.704,3.26 -1.109,1.119 -2.654,1.801 -4.358,1.801 -3.026,0 -5.54,-2.184 -6.051,-5.061 h -55.423 l 0.383,6.648 1.29,22.321 V 29 l 0.01,0.171 0.938,16.247 0.181,3.133 H -2.813 l 0.182,-3.133 0.022,-0.426 0.916,-15.821 z"
             style="fill:#3e3b69;fill-opacity:1;fill-rule:nonzero;stroke:none"
             id="path376" />
        </g>
        <g
           id="g378"
           transform="translate(552.3154,23.2734)">
          <path
             d="m 0,0 c 0,-1.772 -0.721,-3.385 -1.882,-4.556 -1.172,-1.161 -2.783,-1.881 -4.565,-1.881 -3.544,0 -6.447,2.882 -6.447,6.437 V 25.286 H 0 Z M -13.104,25.496 V 0 c 0,-3.675 2.993,-6.658 6.657,-6.658 3.683,0 6.667,2.983 6.667,6.658 v 25.496 z"
             style="fill:#ffffff;fill-opacity:1;fill-rule:nonzero;stroke:none"
             id="path380" />
        </g>
        <g
           id="g382"
           transform="translate(486.2969,29.0791)">
          <path
             d="m 0,0 v 0.211 c 8.506,0 14.32,6.529 17.281,19.406 L 17.488,19.57 C 14.501,6.584 8.617,0 0,0"
             style="fill:#ffffff;fill-opacity:1;fill-rule:nonzero;stroke:none"
             id="path384" />
        </g>
        <g
           id="g386"
           transform="translate(605.75,29.0791)">
          <path
             d="m 0,0 c -8.617,0 -14.501,6.584 -17.487,19.57 l 0.206,0.047 C -14.319,6.74 -8.505,0.211 0,0.211 Z"
             style="fill:#ffffff;fill-opacity:1;fill-rule:nonzero;stroke:none"
             id="path388" />
        </g>
        <g
           id="g390">
          <g
             id="g392" />
          <g
             id="g404">
            <g
               clip-path="url(#clipPath396)"
               opacity="0.199997"
               id="g402">
              <g
                 transform="translate(607.4414,0.1152)"
                 id="g400">
                <path
                   d="m 0,0 h -55.284 c -0.224,1.257 -0.831,2.387 -1.704,3.26 -1.109,1.119 -2.654,1.801 -4.358,1.801 -3.026,0 -5.54,-2.184 -6.051,-5.061 h -55.423 l 0.383,6.648 C -31.568,2.205 -8.96,17.1 -5.124,29.352 c 0.031,0.064 0.053,0.138 0.063,0.203 2.313,7.691 -2.727,14.286 -2.727,14.286 l 5.179,1.151 0.916,-15.821 z"
                   style="fill:#33334f;fill-opacity:1;fill-rule:nonzero;stroke:none"
                   id="path398" />
              </g>
            </g>
          </g>
        </g>
        <g
           id="g406"
           transform="translate(472.0615,191.0674)">
          <path
             d="M 0,0 -21.658,-47.021 22.759,-75.466 34.548,-2.138 Z"
             style="fill:#ffd57b;fill-opacity:1;fill-rule:nonzero;stroke:none"
             id="path408" />
        </g>
        <g
           id="g410"
           transform="translate(614.123,191.5771)">
          <path
             d="m 0,0 -13.023,-3.595 -1.331,-0.37 -0.711,-0.18 v -0.009 l -3.604,-0.992 h -0.011 l -4.934,-1.361 -0.2,-0.06 h -0.01 l -0.171,-0.05 -1.821,-0.501 -4.215,-1.171 h -0.01 l -51.355,-14.155 -16.447,5.836 -9.59,3.383 -2.692,0.992 -31.935,11.722 c 0,0 2.734,4.214 9.521,9.481 h 0.01 c 4.665,3.623 11.252,7.737 20.181,11.301 1.112,0.441 2.262,0.871 3.444,1.301 1.662,0.591 3.393,1.161 5.206,1.712 1.882,0.57 3.834,1.102 5.876,1.592 1.081,0.27 2.181,0.52 3.313,0.761 0,0 5.245,1.971 7.598,4.684 l 31.182,1.022 c 0,0 0.011,-0.01 0.011,-0.031 1.902,-2.802 4.965,-4.584 8.328,-4.895 0.921,-0.09 1.983,-0.199 3.174,-0.37 1.321,-0.18 2.782,-0.42 4.374,-0.731 1.241,-0.251 2.553,-0.54 3.925,-0.88 2.252,-0.571 4.665,-1.292 7.157,-2.193 0.681,-0.24 1.371,-0.501 2.073,-0.78 2.282,-0.901 4.615,-1.973 6.947,-3.224 2.803,-1.492 5.595,-3.254 8.299,-5.326 1.3,-0.991 2.572,-2.052 3.813,-3.203 0.401,-0.36 0.801,-0.74 1.191,-1.121 0.311,-0.311 0.622,-0.611 0.932,-0.931 0.05,-0.04 0.1,-0.1 0.14,-0.161 0.35,-0.34 0.671,-0.68 0.991,-1.03 0.311,-0.341 0.62,-0.671 0.901,-1.012 0.17,-0.19 0.34,-0.38 0.5,-0.58 0.281,-0.311 0.551,-0.641 0.822,-0.981 z"
             style="fill:#de786e;fill-opacity:1;fill-rule:nonzero;stroke:none"
             id="path412" />
        </g>
        <g
           id="g414"
           transform="translate(587.4355,213.04)">
          <path
             d="m 0,0 -2.703,-6.127 -40.893,-9.14 -9.961,4.295 c 26.158,0.09 36.029,15.556 36.029,15.556 1.321,-0.18 2.782,-0.42 4.374,-0.73 1.241,-0.251 2.552,-0.541 3.925,-0.881 C -6.978,2.402 -4.564,1.681 -2.072,0.78 -1.392,0.54 -0.701,0.279 0,0"
             style="fill:#3e3b69;fill-opacity:1;fill-rule:nonzero;stroke:none"
             id="path416" />
        </g>
        <g
           id="g418"
           transform="translate(614.123,191.5771)">
          <path
             d="m 0,0 -13.023,-3.595 -1.331,-0.37 -0.711,-0.18 v -0.009 l -3.604,-0.992 h -0.011 l -4.934,-1.361 -0.2,-0.06 h -0.01 l -0.171,-0.05 -1.821,-0.501 -4.215,-1.171 h -0.01 l -51.355,-14.155 -16.447,5.836 -9.59,3.383 -2.692,0.992 -31.935,11.722 c 0,0 2.734,4.214 9.521,9.481 h 0.01 c 4.665,3.623 11.252,7.737 20.181,11.301 1.112,0.441 2.262,0.871 3.444,1.301 1.662,0.591 3.393,1.161 5.206,1.712 0,0 29.741,-31.793 67.781,1.152 2.252,-0.571 4.665,-1.292 7.157,-2.193 2.933,-1.051 5.977,-2.372 9.02,-4.004 2.803,-1.492 5.595,-3.254 8.299,-5.326 1.3,-0.991 2.572,-2.052 3.813,-3.203 0.401,-0.36 0.801,-0.74 1.191,-1.121 0.311,-0.311 0.622,-0.611 0.932,-0.931 0.05,-0.04 0.1,-0.1 0.14,-0.161 0.35,-0.34 0.671,-0.68 0.991,-1.03 0.311,-0.341 0.62,-0.671 0.901,-1.012 0.17,-0.19 0.34,-0.38 0.5,-0.58 0.281,-0.311 0.551,-0.641 0.822,-0.981 z"
             style="fill:#ffd57b;fill-opacity:1;fill-rule:nonzero;stroke:none"
             id="path420" />
        </g>
        <g
           id="g422"
           transform="translate(646.124,139.1143)">
          <path
             d="m 0,0 -1.521,-0.72 -4.165,-1.963 -8.088,-3.824 -15.307,-7.226 -0.109,-0.051 -7.629,-3.604 -3.303,-1.562 -0.25,-0.11 v -0.009 l -3.214,-1.512 -11.231,32.944 -4.516,13.225 1.752,9.129 0.411,2.112 1.522,7.908 0.25,1.282 1.041,5.425 10.67,2.593 9.531,2.322 4.725,-7.788 5.796,-9.579 4.715,-7.778 0.511,-0.842 1.331,-2.182 1.672,-2.763 14.485,-23.915 z"
             style="fill:#ffd57b;fill-opacity:1;fill-rule:nonzero;stroke:none"
             id="path424" />
        </g>
        <g
           id="g426"
           transform="translate(565.0918,177.7119)">
          <path
             d="m 0,0 v -130.307 h -84.129 l 1.092,12.423 10.2,115.762 36.028,1.051 18.41,0.531 z"
             style="fill:#ffd57b;fill-opacity:1;fill-rule:nonzero;stroke:none"
             id="path428" />
        </g>
        <g
           id="g430"
           transform="translate(612.4082,47.4082)">
          <path
             d="m 0,0 h -84.128 v 130.308 l 18.409,-0.541 13.754,-0.401 4.646,-0.13 22.283,-0.651 1.582,-0.05 3.983,-0.109 8.179,-0.241 0.471,-5.305 0.52,-5.937 0.321,-3.654 0.47,-5.336 0.09,-1.02 0.881,-10.04 0.801,-9.021 1.332,-15.116 0.81,-9.219 v -0.01 l 4.625,-52.465 0.5,-5.747 z"
             style="fill:#ffd57b;fill-opacity:1;fill-rule:nonzero;stroke:none"
             id="path432" />
        </g>
        <g
           id="g434">
          <g
             id="g436" />
          <g
             id="g448">
            <g
               clip-path="url(#clipPath440)"
               opacity="0.100006"
               id="g446">
              <g
                 transform="translate(612.4082,47.4082)"
                 id="g444">
                <path
                   d="m 0,0 h -131.448 l 1.091,12.423 c 17.838,-0.942 33.125,-0.501 46.229,0.941 14.925,1.652 27.019,4.584 36.809,8.259 39.521,14.775 41.673,41.293 41.723,41.904 l 4.625,-52.465 0.5,-5.747 z"
                   style="fill:#3e3b69;fill-opacity:1;fill-rule:nonzero;stroke:none"
                   id="path442" />
              </g>
            </g>
          </g>
        </g>
        <g
           id="g450"
           transform="translate(508.1436,185.2119)">
          <path
             d="m 0,0 -16.773,-10.104 4.084,-27.078 59.153,-9.7 44.912,16.091 -9.386,30.546 z"
             style="fill:#ffd57b;fill-opacity:1;fill-rule:nonzero;stroke:none"
             id="path452" />
        </g>
        <g
           id="g454"
           transform="translate(487.3906,120.3594)">
          <path
             d="M 0,0 3.979,36.641"
             style="fill:none;stroke:#33334f;stroke-width:0.501;stroke-linecap:butt;stroke-linejoin:miter;stroke-miterlimit:10;stroke-dasharray:none;stroke-opacity:1"
             id="path456" />
        </g>
        <g
           id="g458"
           transform="translate(485.3945,156.5273)">
          <path
             d="M 0,0 4.55,-10.51"
             style="fill:none;stroke:#33334f;stroke-width:0.501;stroke-linecap:butt;stroke-linejoin:miter;stroke-miterlimit:10;stroke-dasharray:none;stroke-opacity:1"
             id="path460" />
        </g>
        <g
           id="g462"
           transform="translate(599.5195,159.2266)">
          <path
             d="M 0,0 6.23,-39.179"
             style="fill:none;stroke:#33334f;stroke-width:0.501;stroke-linecap:butt;stroke-linejoin:miter;stroke-miterlimit:10;stroke-dasharray:none;stroke-opacity:1"
             id="path464" />
        </g>
        <g
           id="g466"
           transform="translate(602.6348,154.6914)">
          <path
             d="M 0,0 -0.915,-9.301"
             style="fill:none;stroke:#33334f;stroke-width:0.501;stroke-linecap:butt;stroke-linejoin:miter;stroke-miterlimit:10;stroke-dasharray:none;stroke-opacity:1"
             id="path468" />
        </g>
        <g
           id="g470"
           transform="translate(586.9336,176.9814)">
          <path
             d="m 0,0 c 0,0 -5.008,2.213 -10.386,2.597 -5.377,0.383 -3.16,5.287 1.662,4.954 0,0 -2.509,0.851 -6.037,0.817 -3.526,-0.034 -3.517,3.807 -1.21,4.775 0,0 -2.342,0.189 -2.476,2.512 -0.134,2.324 2.812,3.27 3.861,3.448 0,0 -2.208,4.973 7.306,4.772 9.513,-0.2 20.929,-3.18 31.088,-15.881 6.988,-8.738 4.257,-16.124 0.407,-18.835 C 17.22,-15.764 4.662,-11.267 0,0"
             style="fill:#de786e;fill-opacity:1;fill-rule:nonzero;stroke:none"
             id="path472" />
        </g>
        <g
           id="g474"
           transform="translate(578.21,184.5322)">
          <path
             d="M 0,0 C 8.038,-0.648 11.132,-2.408 11.132,-2.408"
             style="fill:none;stroke:#33334f;stroke-width:0.501;stroke-linecap:butt;stroke-linejoin:miter;stroke-miterlimit:10;stroke-dasharray:none;stroke-opacity:1"
             id="path476" />
        </g>
        <g
           id="g478"
           transform="translate(589.127,187.5342)">
          <path
             d="M 0,0 C 0,0 -5.214,2.918 -18.164,2.59"
             style="fill:none;stroke:#33334f;stroke-width:0.501;stroke-linecap:butt;stroke-linejoin:miter;stroke-miterlimit:10;stroke-dasharray:none;stroke-opacity:1"
             id="path480" />
        </g>
        <g
           id="g482"
           transform="translate(572.3477,196.084)">
          <path
             d="M 0,0 C 8.543,1.15 17.733,-2.546 17.733,-2.546"
             style="fill:none;stroke:#33334f;stroke-width:0.501;stroke-linecap:butt;stroke-linejoin:miter;stroke-miterlimit:10;stroke-dasharray:none;stroke-opacity:1"
             id="path484" />
        </g>
        <g
           id="g486"
           transform="translate(651.1895,104.5479)">
          <path
             d="m 0,0 c -0.021,-0.29 -0.05,-0.57 -0.09,-0.841 -0.181,-1.331 -0.511,-2.502 -0.962,-3.533 -0.41,-0.941 -0.91,-1.762 -1.501,-2.482 -0.551,-0.702 -1.191,-1.302 -1.882,-1.823 -0.31,-0.24 -0.63,-0.461 -0.971,-0.66 -1.341,-0.821 -2.832,-1.391 -4.365,-1.752 -2.262,-0.551 -4.535,-0.471 -6.636,0.13 -0.391,0.109 -0.771,0.231 -1.142,0.38 -2.892,1.102 -5.395,3.193 -7.007,5.977 -0.14,0.25 -0.27,0.5 -0.4,0.76 -0.251,0.491 -0.461,0.991 -0.651,1.522 -0.15,0.451 -0.31,0.901 -0.47,1.351 -0.101,0.29 -0.211,0.571 -0.311,0.851 -0.461,1.292 -0.911,2.543 -1.361,3.784 l -0.571,1.562 c -0.14,0.4 -0.281,0.781 -0.42,1.162 -0.311,0.85 -0.621,1.681 -0.921,2.522 l -0.011,0.01 c -0.2,0.56 -0.41,1.111 -0.61,1.672 -1.331,3.594 -2.622,7.007 -3.864,10.241 -1.261,3.272 -2.473,6.356 -3.624,9.27 -0.44,1.1 -0.871,2.181 -1.301,3.233 -0.671,1.651 -1.322,3.243 -1.943,4.774 -0.4,0.971 -0.8,1.932 -1.18,2.854 -0.131,0.3 -0.251,0.6 -0.371,0.89 -1.381,3.293 -2.643,6.237 -3.764,8.82 -0.13,0.301 -0.26,0.6 -0.391,0.89 -0.75,1.693 -1.421,3.224 -2.042,4.585 -0.68,1.532 -1.291,2.864 -1.801,3.965 l -0.01,0.01 v 0.01 c -1.322,2.813 -2.023,4.255 -2.023,4.255 l 2.993,1.351 0.992,0.45 7.918,3.584 2.272,2.763 1.132,1.371 c 0,0 0.26,-0.36 0.801,-1.171 v -0.009 c 0,-0.011 0.009,-0.011 0.019,-0.021 0.401,-0.591 0.942,-1.411 1.632,-2.503 0.25,-0.399 0.521,-0.82 0.811,-1.291 0.731,-1.191 1.721,-2.642 2.913,-4.375 0.35,-0.5 0.721,-1.02 1.101,-1.571 0.25,-0.37 0.511,-0.741 0.781,-1.131 0.19,-0.261 0.371,-0.531 0.561,-0.812 0.069,-0.089 0.13,-0.179 0.19,-0.269 0.16,-0.231 0.32,-0.461 0.491,-0.701 0.12,-0.17 0.24,-0.34 0.36,-0.521 0.91,-1.332 1.892,-2.743 2.913,-4.274 0.521,-0.791 1.051,-1.602 1.602,-2.423 0.149,-0.26 0.32,-0.5 0.47,-0.751 1.242,-1.892 2.533,-3.943 3.884,-6.147 0.54,-0.89 1.101,-1.811 1.672,-2.762 l -0.01,-0.01 c 1.982,-3.313 4.035,-6.928 6.136,-10.882 0.07,-0.13 0.141,-0.269 0.211,-0.4 0.26,-0.49 0.521,-0.982 0.771,-1.471 0.24,-0.461 0.49,-0.921 0.73,-1.392 0,0 0.01,-0.03 0.03,-0.07 0.34,-0.65 0.671,-1.311 1.011,-1.992 0.791,-1.562 1.582,-3.174 2.362,-4.825 0.04,-0.071 0.091,-0.16 0.12,-0.24 0.872,-1.852 1.643,-3.584 2.303,-5.236 1.291,-3.233 2.193,-6.106 2.753,-8.659 0.061,-0.26 0.11,-0.52 0.17,-0.77 C -0.461,7.028 -0.431,6.828 -0.4,6.638 0.06,4.095 0.17,1.902 0,0"
             style="fill:#de786e;fill-opacity:1;fill-rule:nonzero;stroke:none"
             id="path488" />
        </g>
        <g
           id="g490">
          <g
             id="g492" />
          <g
             id="g504">
            <g
               clip-path="url(#clipPath496)"
               opacity="0.300003"
               id="g502">
              <g
                 transform="translate(651.1895,104.5479)"
                 id="g500">
                <path
                   d="m 0,0 c -0.021,-0.29 -0.05,-0.57 -0.09,-0.841 -0.181,-1.331 -0.511,-2.502 -0.962,-3.533 -0.41,-0.941 -0.91,-1.762 -1.501,-2.482 -0.551,-0.702 -1.191,-1.302 -1.882,-1.823 -0.31,-0.24 -0.63,-0.461 -0.971,-0.66 -1.341,-0.821 -2.832,-1.391 -4.365,-1.752 -2.262,-0.551 -4.535,-0.471 -6.636,0.13 -0.071,0.14 -0.131,0.28 -0.191,0.42 -0.381,0.842 -0.671,1.732 -0.871,2.673 -0.26,1.251 -0.33,2.503 -0.24,3.724 0.021,0.27 0.05,0.531 0.101,0.801 0.12,0.87 0.33,1.722 0.629,2.542 0.872,2.433 2.444,4.566 4.536,6.117 1.241,0.931 2.682,1.642 4.255,2.082 0.29,0.09 0.58,0.161 0.88,0.22 2.353,0.49 4.685,0.32 6.807,-0.389 C -0.461,7.028 -0.431,6.828 -0.4,6.638 0.06,4.095 0.17,1.902 0,0"
                   style="fill:#772c2b;fill-opacity:1;fill-rule:nonzero;stroke:none"
                   id="path498" />
              </g>
            </g>
          </g>
        </g>
        <g
           id="g506"
           transform="translate(612.1221,137.8838)">
          <path
             d="M 0,0 10.325,-26.944"
             style="fill:none;stroke:#33334f;stroke-width:0.501;stroke-linecap:butt;stroke-linejoin:miter;stroke-miterlimit:10;stroke-dasharray:none;stroke-opacity:1"
             id="path508" />
        </g>
        <g
           id="g510"
           transform="translate(433.8086,186.5049)">
          <path
             d="m 0,0 c 0,0 0.488,5.454 2.756,10.346 2.266,4.89 -3.097,5.324 -5.14,0.944 0,0 0.47,2.608 2.207,5.678 1.738,3.069 -1.628,4.921 -3.592,3.37 0,0 0.969,2.141 -1,3.384 -1.968,1.241 -4.221,-0.879 -4.884,-1.71 0,0 -3.284,4.339 -7.714,-4.082 -4.43,-8.422 -7.349,-19.854 -1.154,-34.891 4.263,-10.346 12.047,-11.531 16.284,-9.474 C 5.457,-22.698 7.602,-9.532 0,0"
             style="fill:#de786e;fill-opacity:1;fill-rule:nonzero;stroke:none"
             id="path512" />
        </g>
        <g
           id="g514"
           transform="translate(431.4248,197.7949)">
          <path
             d="M 0,0 C -3.324,-7.348 -3.282,-10.907 -3.282,-10.907"
             style="fill:none;stroke:#33334f;stroke-width:0.501;stroke-linecap:butt;stroke-linejoin:miter;stroke-miterlimit:10;stroke-dasharray:none;stroke-opacity:1"
             id="path516" />
        </g>
        <g
           id="g518"
           transform="translate(430.04,206.8428)">
          <path
             d="M 0,0 C -6.557,-11.172 -6.527,-17.147 -6.527,-17.147"
             style="fill:none;stroke:#33334f;stroke-width:0.501;stroke-linecap:butt;stroke-linejoin:miter;stroke-miterlimit:10;stroke-dasharray:none;stroke-opacity:1"
             id="path520" />
        </g>
        <g
           id="g522"
           transform="translate(424.1553,208.5166)">
          <path
             d="M 0,0 C -5.143,-6.919 -6.358,-16.75 -6.358,-16.75"
             style="fill:none;stroke:#33334f;stroke-width:0.501;stroke-linecap:butt;stroke-linejoin:miter;stroke-miterlimit:10;stroke-dasharray:none;stroke-opacity:1"
             id="path524" />
        </g>
        <g
           id="g526"
           transform="translate(435.21,172.4092)">
          <path
             d="m 0,0 c 0,0 0.908,-1.32 2.74,-3.827 l 0.007,-0.006 0.001,-0.013 c 2.425,-3.298 6.446,-8.679 12.106,-15.838 0.814,-1.017 1.657,-2.086 2.528,-3.178 1.69,-2.103 3.495,-4.342 5.435,-6.708 3.959,-4.815 8.426,-10.175 13.448,-16.001 0.388,-0.445 0.77,-0.896 1.166,-1.346 l 0.007,-0.007 c 0.583,-0.673 1.166,-1.347 1.757,-2.025 0.267,-0.316 0.534,-0.618 0.807,-0.94 l 0.006,0.007 c 0.361,-0.42 0.721,-0.84 1.095,-1.259 0.87,-0.994 1.747,-1.993 2.646,-3.024 0.201,-0.222 0.396,-0.451 0.604,-0.679 0.316,-0.357 0.626,-0.71 0.949,-1.073 2.306,-2.609 3.474,-5.902 3.457,-9.166 -0.003,-3.217 -1.145,-6.406 -3.448,-8.928 -1.326,-1.454 -2.895,-2.71 -4.697,-3.509 -1.617,-0.712 -3.413,-1.065 -5.4,-0.872 -2.59,0.246 -5.532,1.408 -8.835,3.882 -0.369,0.269 -0.739,0.564 -1.118,0.877 -0.35,0.277 -0.701,0.579 -1.061,0.901 -2.965,2.599 -6.196,6.237 -9.716,11.15 -0.05,0.068 -0.103,0.149 -0.154,0.218 -1.528,2.135 -2.967,4.218 -4.323,6.253 -0.036,0.044 -0.044,0.062 -0.044,0.062 -0.296,0.439 -0.585,0.871 -0.874,1.303 -0.394,0.596 -0.774,1.192 -1.152,1.775 -2.453,3.749 -4.62,7.303 -6.56,10.637 l -0.014,-10e-4 c -0.557,0.958 -1.089,1.892 -1.603,2.8 -1.281,2.239 -2.447,4.368 -3.504,6.367 -0.145,0.259 -0.276,0.519 -0.42,0.777 -0.454,0.881 -0.913,1.741 -1.344,2.577 -0.846,1.633 -1.613,3.174 -2.333,4.613 -2.214,4.438 -3.847,7.888 -5.114,10.14 -0.273,0.48 -0.517,0.921 -0.738,1.332 -0.625,1.151 -1.093,2.03 -1.411,2.67 l -0.006,0.006 c -0.447,0.862 -0.635,1.269 -0.635,1.269 l 1.745,0.321 3.522,0.652 6.964,5.192 z"
             style="fill:#de786e;fill-opacity:1;fill-rule:nonzero;stroke:none"
             id="path528" />
        </g>
        <g
           id="g530">
          <g
             id="g532" />
          <g
             id="g544">
            <g
               clip-path="url(#clipPath536)"
               opacity="0.300003"
               id="g542">
              <g
                 transform="translate(483.2178,108.0332)"
                 id="g540">
                <path
                   d="m 0,0 c 0.261,-0.224 0.515,-0.455 0.751,-0.707 -0.003,-3.217 -1.145,-6.406 -3.448,-8.928 -1.325,-1.454 -2.895,-2.71 -4.697,-3.509 -1.617,-0.712 -3.413,-1.065 -5.4,-0.872 -2.59,0.246 -5.532,1.408 -8.835,3.882 -0.049,3.102 0.981,6.217 3.158,8.748 C -13.752,4.099 -5.484,4.719 0,0"
                   style="fill:#772c2b;fill-opacity:1;fill-rule:nonzero;stroke:none"
                   id="path538" />
              </g>
            </g>
          </g>
        </g>
        <g
           id="g546"
           transform="translate(447.0811,156.5273)">
          <path
             d="M 0,0 31.878,-38.283"
             style="fill:none;stroke:#33334f;stroke-width:0.501;stroke-linecap:butt;stroke-linejoin:miter;stroke-miterlimit:10;stroke-dasharray:none;stroke-opacity:1"
             id="path548" />
        </g>
        <g
           id="g550"
           transform="translate(512.252,374.6172)">
          <path
             d="m 0,0 c -1.029,-1.023 -2.368,-1.53 -3.711,-1.521 -0.745,0.002 -1.471,-0.2 -2.12,-0.561 l 7.086,-7.127 6.958,6.918 c 0.181,-0.481 0.285,-0.99 0.283,-1.512 -0.005,-1.341 0.5,-2.681 1.52,-3.707 2.186,-2.199 5.84,-2.052 7.83,0.451 1.436,1.806 1.502,4.423 0.146,6.29 -1.012,1.395 -2.517,2.122 -4.047,2.183 -0.579,0.023 -1.146,0.132 -1.679,0.324 l 6.93,6.891 -7.035,7.077 c -0.307,-0.592 -0.478,-1.25 -0.48,-1.924 0.002,-1.343 -0.513,-2.679 -1.537,-3.698 -2.202,-2.188 -5.852,-2.019 -7.826,0.499 -1.424,1.811 -1.477,4.425 -0.114,6.29 1.02,1.391 2.528,2.106 4.065,2.158 0.735,0.029 1.456,0.184 2.1,0.489 l -7.015,7.056 -6.366,-6.328 c 0,0.013 -0.002,0.026 -0.002,0.04 0.005,1.34 -0.501,2.681 -1.52,3.707 -2.187,2.199 -5.84,2.052 -7.83,-0.451 -1.436,-1.806 -1.502,-4.423 -0.147,-6.291 1.012,-1.395 2.519,-2.121 4.048,-2.182 0.076,-0.003 0.151,-0.012 0.227,-0.018 l -6.352,-6.315 7.071,-7.112 c 0.365,0.698 0.561,1.494 0.594,2.301 0.056,1.531 0.784,3.04 2.177,4.047 1.872,1.353 4.491,1.289 6.294,-0.146 C 2.049,5.835 2.197,2.184 0,0"
             style="fill:#ffffff;fill-opacity:1;fill-rule:nonzero;stroke:none"
             id="path552" />
        </g>
        <g
           id="g554"
           transform="translate(603.4365,263.9355)">
          <path
             d="m 0,0 c -1.092,-0.956 -2.461,-1.377 -3.801,-1.282 -0.743,0.049 -1.48,-0.107 -2.151,-0.426 l 6.62,-7.562 7.383,6.463 C 8.2,-3.299 8.272,-3.813 8.237,-4.334 8.147,-5.671 8.566,-7.042 9.52,-8.13 c 2.042,-2.333 5.698,-2.418 7.842,-0.047 1.548,1.712 1.78,4.32 0.545,6.269 -0.921,1.456 -2.379,2.277 -3.9,2.434 -0.577,0.06 -1.136,0.206 -1.656,0.431 l 7.354,6.438 -6.573,7.508 C 12.787,14.332 12.575,13.686 12.531,13.014 12.447,11.673 11.849,10.373 10.763,9.421 8.426,7.376 4.794,7.776 2.984,10.414 c -1.306,1.899 -1.194,4.51 0.285,6.285 1.106,1.323 2.657,1.942 4.194,1.896 0.735,-0.018 1.464,0.092 2.126,0.355 l -6.554,7.487 -6.753,-5.913 c 0,0.014 -10e-4,0.028 0,0.041 0.09,1.337 -0.329,2.707 -1.282,3.796 -2.042,2.333 -5.698,2.418 -7.843,0.046 -1.548,-1.711 -1.779,-4.319 -0.545,-6.269 0.922,-1.456 2.379,-2.276 3.901,-2.434 0.076,-0.008 0.15,-0.021 0.225,-0.032 l -6.739,-5.9 6.605,-7.546 c 0.409,0.674 0.656,1.456 0.739,2.258 0.153,1.525 0.976,2.985 2.429,3.902 1.955,1.231 4.564,1.001 6.273,-0.545 C 2.414,5.693 2.33,2.04 0,0"
             style="fill:#ffffff;fill-opacity:1;fill-rule:nonzero;stroke:none"
             id="path556" />
        </g>
        <g
           id="g558"
           transform="translate(593.5049,391.8184)">
          <path
             d="M 0,0 C 1.133,-0.907 1.786,-2.181 1.929,-3.517 2.011,-4.257 2.293,-4.955 2.725,-5.56 L 9.009,2.283 1.352,8.418 c 0.458,0.234 0.952,0.395 1.47,0.452 1.332,0.146 2.609,0.799 3.513,1.928 1.938,2.42 1.381,6.034 -1.33,7.729 -1.956,1.224 -4.564,0.994 -6.267,-0.562 -1.272,-1.163 -1.824,-2.741 -1.713,-4.268 0.042,-0.577 -0.003,-1.154 -0.133,-1.705 l -7.627,6.111 -6.24,-7.787 c 0.622,-0.239 1.295,-0.335 1.965,-0.261 1.335,0.153 2.72,-0.208 3.847,-1.111 2.423,-1.942 2.666,-5.588 0.387,-7.832 -1.64,-1.619 -4.232,-1.966 -6.238,-0.821 -1.497,0.856 -2.378,2.274 -2.602,3.795 -0.111,0.728 -0.347,1.426 -0.722,2.032 l -6.222,-7.764 7.005,-5.613 c -0.013,-0.002 -0.026,-0.006 -0.04,-0.007 -1.332,-0.146 -2.608,-0.799 -3.511,-1.928 -1.94,-2.42 -1.382,-6.034 1.329,-7.729 1.956,-1.224 4.563,-0.994 6.267,0.563 1.272,1.162 1.823,2.74 1.712,4.267 -0.006,0.075 -0.005,0.151 -0.008,0.227 l 6.991,-5.6 6.271,7.826 c -0.735,0.284 -1.548,0.39 -2.353,0.331 -1.529,-0.117 -3.11,0.438 -4.267,1.707 -1.555,1.709 -1.786,4.318 -0.564,6.271 C -6.029,1.379 -2.418,1.937 0,0"
             style="fill:#ffffff;fill-opacity:1;fill-rule:nonzero;stroke:none"
             id="path560" />
        </g>
        <g
           id="g562"
           transform="translate(573.4414,312.7622)">
          <path
             d="m 0,0 c 0.073,0.04 0.142,0.086 0.212,0.129 l -9.276,3.038 3.401,10.387 c 0.697,-0.501 1.278,-1.179 1.705,-1.95 C -3.153,10.141 -1.705,9.029 0.144,8.73 2.629,8.33 5.147,9.674 6.201,11.955 7.66,15.12 6.016,18.747 2.808,19.798 1.305,20.29 -0.247,20.127 -1.551,19.461 -2.275,19.094 -3.08,18.936 -3.89,18.969 L -0.48,29.378 9.682,26.05 c -0.06,0.557 -0.207,1.103 -0.465,1.611 -0.661,1.302 -0.825,2.856 -0.335,4.354 1.052,3.211 4.681,4.857 7.845,3.395 2.282,-1.056 3.627,-3.572 3.223,-6.054 -0.303,-1.853 -1.414,-3.298 -2.873,-4.106 -0.552,-0.306 -1.051,-0.69 -1.476,-1.139 L 25.724,20.796 22.365,10.541 c 0.637,0.038 1.264,0.194 1.841,0.487 1.303,0.661 2.856,0.826 4.354,0.335 3.211,-1.051 4.857,-4.681 3.395,-7.844 C 30.899,1.236 28.384,-0.109 25.901,0.296 24.048,0.598 22.604,1.709 21.796,3.168 21.451,3.791 21.01,4.349 20.486,4.806 L 17.14,-5.415 7.843,-2.37 C 7.85,-2.384 7.854,-2.397 7.86,-2.411 8.521,-3.713 8.686,-5.267 8.195,-6.764 7.144,-9.976 3.514,-11.622 0.352,-10.16 -1.932,-9.104 -3.277,-6.588 -2.872,-4.106 -2.569,-2.252 -1.459,-0.808 0,0"
             style="fill:#ffffff;fill-opacity:1;fill-rule:nonzero;stroke:none"
             id="path564" />
        </g>
        <g
           id="g566"
           transform="translate(573.4414,312.7622)">
          <path
             d="m 0,0 c 0.073,0.04 0.142,0.086 0.212,0.129 l -9.276,3.038 3.401,10.387 c 0.697,-0.501 1.278,-1.179 1.705,-1.95 C -3.153,10.141 -1.705,9.029 0.144,8.73 2.629,8.33 5.147,9.674 6.201,11.955 7.66,15.12 6.016,18.747 2.808,19.798 1.305,20.29 -0.247,20.127 -1.551,19.461 -2.275,19.094 -3.08,18.936 -3.89,18.969 L -0.48,29.378 9.682,26.05 c -0.06,0.557 -0.207,1.103 -0.465,1.611 -0.661,1.302 -0.825,2.856 -0.335,4.354 1.052,3.211 4.681,4.857 7.845,3.395 2.282,-1.056 3.627,-3.572 3.223,-6.054 -0.303,-1.853 -1.414,-3.298 -2.873,-4.106 -0.552,-0.306 -1.051,-0.69 -1.476,-1.139 L 25.724,20.796 22.365,10.541 c 0.637,0.038 1.264,0.194 1.841,0.487 1.303,0.661 2.856,0.826 4.354,0.335 3.211,-1.051 4.857,-4.681 3.395,-7.844 C 30.899,1.236 28.384,-0.109 25.901,0.296 24.048,0.598 22.604,1.709 21.796,3.168 21.451,3.791 21.01,4.349 20.486,4.806 L 17.14,-5.415 7.843,-2.37 C 7.85,-2.384 7.854,-2.397 7.86,-2.411 8.521,-3.713 8.686,-5.267 8.195,-6.764 7.144,-9.976 3.514,-11.622 0.352,-10.16 -1.932,-9.104 -3.277,-6.588 -2.872,-4.106 -2.569,-2.252 -1.459,-0.808 0,0 Z"
             style="fill:none;stroke:#3e3b69;stroke-width:0.787;stroke-linecap:butt;stroke-linejoin:miter;stroke-miterlimit:10;stroke-dasharray:none;stroke-opacity:1"
             id="path568" />
        </g>
        <g
           id="g570"
           transform="translate(547.8242,321.1597)">
          <path
             d="m 0,0 c 0.073,0.04 0.142,0.086 0.213,0.129 l -9.277,3.038 3.402,10.387 c 0.696,-0.501 1.277,-1.179 1.705,-1.95 C -3.153,10.141 -1.704,9.029 0.144,8.73 2.63,8.33 5.148,9.674 6.201,11.954 7.66,15.12 6.017,18.747 2.808,19.798 1.305,20.29 -0.247,20.127 -1.55,19.461 -2.274,19.094 -3.08,18.936 -3.889,18.968 l 3.41,10.41 10.162,-3.328 c -0.06,0.557 -0.208,1.103 -0.466,1.611 -0.66,1.302 -0.825,2.856 -0.334,4.353 1.052,3.212 4.68,4.858 7.844,3.396 2.283,-1.056 3.627,-3.572 3.223,-6.054 -0.303,-1.853 -1.413,-3.298 -2.872,-4.106 -0.553,-0.306 -1.052,-0.69 -1.476,-1.139 L 25.724,20.796 22.365,10.541 c 0.637,0.038 1.265,0.194 1.842,0.487 1.302,0.661 2.855,0.826 4.354,0.335 3.211,-1.051 4.857,-4.681 3.394,-7.844 C 30.9,1.236 28.384,-0.109 25.902,0.296 24.049,0.598 22.604,1.709 21.796,3.168 21.451,3.791 21.011,4.349 20.487,4.806 L 17.14,-5.415 7.843,-2.371 C 7.85,-2.384 7.854,-2.397 7.861,-2.411 8.521,-3.713 8.687,-5.267 8.196,-6.765 7.144,-9.976 3.515,-11.622 0.352,-10.16 -1.931,-9.104 -3.276,-6.588 -2.872,-4.106 -2.569,-2.253 -1.459,-0.808 0,0"
             style="fill:#ffffff;fill-opacity:1;fill-rule:nonzero;stroke:none"
             id="path572" />
        </g>
        <g
           id="g574"
           transform="translate(547.8242,321.1597)">
          <path
             d="m 0,0 c 0.073,0.04 0.142,0.086 0.213,0.129 l -9.277,3.038 3.402,10.387 c 0.696,-0.501 1.277,-1.179 1.705,-1.95 C -3.153,10.141 -1.704,9.029 0.144,8.73 2.63,8.33 5.148,9.674 6.201,11.954 7.66,15.12 6.017,18.747 2.808,19.798 1.305,20.29 -0.247,20.127 -1.55,19.461 -2.274,19.094 -3.08,18.936 -3.889,18.968 l 3.41,10.41 10.162,-3.328 c -0.06,0.557 -0.208,1.103 -0.466,1.611 -0.66,1.302 -0.825,2.856 -0.334,4.353 1.052,3.212 4.68,4.858 7.844,3.396 2.283,-1.056 3.627,-3.572 3.223,-6.054 -0.303,-1.853 -1.413,-3.298 -2.872,-4.106 -0.553,-0.306 -1.052,-0.69 -1.476,-1.139 L 25.724,20.796 22.365,10.541 c 0.637,0.038 1.265,0.194 1.842,0.487 1.302,0.661 2.855,0.826 4.354,0.335 3.211,-1.051 4.857,-4.681 3.394,-7.844 C 30.9,1.236 28.384,-0.109 25.902,0.296 24.049,0.598 22.604,1.709 21.796,3.168 21.451,3.791 21.011,4.349 20.487,4.806 L 17.14,-5.415 7.843,-2.371 C 7.85,-2.384 7.854,-2.397 7.861,-2.411 8.521,-3.713 8.687,-5.267 8.196,-6.765 7.144,-9.976 3.515,-11.622 0.352,-10.16 -1.931,-9.104 -3.276,-6.588 -2.872,-4.106 -2.569,-2.253 -1.459,-0.808 0,0 Z"
             style="fill:none;stroke:#3e3b69;stroke-width:0.787;stroke-linecap:butt;stroke-linejoin:miter;stroke-miterlimit:10;stroke-dasharray:none;stroke-opacity:1"
             id="path576" />
        </g>
        <g
           id="g578"
           transform="translate(447.8564,284.1743)">
          <path
             d="M 0,0 C 0.07,-0.044 0.144,-0.083 0.215,-0.124 L -1.593,9.469 9.148,11.493 C 9.045,10.641 8.73,9.805 8.262,9.06 7.366,7.65 7.09,5.844 7.719,4.081 8.565,1.71 10.957,0.15 13.463,0.326 c 3.476,0.247 5.862,3.435 5.237,6.753 -0.293,1.554 -1.182,2.836 -2.394,3.657 -0.671,0.458 -1.198,1.087 -1.559,1.812 l 10.765,2.028 1.979,-10.508 c 0.46,0.321 0.867,0.714 1.188,1.184 0.823,1.206 2.105,2.099 3.653,2.391 3.322,0.626 6.513,-1.762 6.755,-5.238 0.176,-2.509 -1.381,-4.9 -3.751,-5.741 -1.77,-0.628 -3.571,-0.351 -4.982,0.538 -0.534,0.337 -1.112,0.589 -1.709,0.745 l 1.973,-10.467 -10.605,-1.999 c 0.341,-0.54 0.78,-1.014 1.314,-1.378 1.207,-0.823 2.1,-2.105 2.392,-3.654 0.626,-3.321 -1.762,-6.512 -5.238,-6.754 -2.508,-0.175 -4.9,1.381 -5.741,3.751 -0.629,1.769 -0.351,3.571 0.538,4.982 0.379,0.602 0.657,1.257 0.804,1.936 L 3.514,-17.628 1.702,-8.015 C 1.693,-8.027 1.684,-8.038 1.675,-8.05 0.853,-9.256 -0.43,-10.149 -1.979,-10.441 -5.3,-11.067 -8.49,-8.68 -8.733,-5.204 c -0.175,2.509 1.38,4.901 3.751,5.742 C -3.212,1.166 -1.411,0.889 0,0"
             style="fill:#ffffff;fill-opacity:1;fill-rule:nonzero;stroke:none"
             id="path580" />
        </g>
        <g
           id="g582"
           transform="translate(481.2686,348.0244)">
          <path
             d="m 0,0 c 0.031,-0.077 0.068,-0.151 0.102,-0.227 l 4.179,8.822 9.878,-4.68 C 13.574,3.286 12.827,2.795 12.011,2.468 10.457,1.854 9.172,0.557 8.643,-1.239 c -0.709,-2.416 0.308,-5.083 2.438,-6.415 2.956,-1.845 6.762,-0.67 8.207,2.381 0.678,1.429 0.711,2.989 0.214,4.366 -0.273,0.765 -0.329,1.583 -0.194,2.382 l 9.898,-4.69 -4.579,-9.664 c 0.56,-0.011 1.121,0.067 1.657,0.259 1.374,0.492 2.937,0.46 4.361,-0.215 3.054,-1.447 4.23,-5.254 2.382,-8.208 -1.334,-2.133 -3.999,-3.151 -6.41,-2.438 -1.801,0.533 -3.095,1.817 -3.713,3.366 -0.234,0.587 -0.553,1.129 -0.944,1.608 l -4.561,-9.626 -9.753,4.621 c -0.042,-0.637 0.036,-1.279 0.253,-1.888 0.492,-1.375 0.46,-2.937 -0.214,-4.361 -1.448,-3.054 -5.255,-4.231 -8.209,-2.383 -2.132,1.334 -3.151,3.999 -2.437,6.411 0.532,1.8 1.816,3.094 3.365,3.712 0.661,0.264 1.27,0.631 1.789,1.093 l -9.718,4.605 4.188,8.841 c -0.014,-0.005 -0.028,-0.008 -0.043,-0.013 -1.374,-0.492 -2.936,-0.46 -4.36,0.215 -3.055,1.447 -4.231,5.255 -2.383,8.209 1.334,2.132 3.999,3.15 6.41,2.437 C -1.911,2.833 -0.618,1.549 0,0"
             style="fill:#ffffff;fill-opacity:1;fill-rule:nonzero;stroke:none"
             id="path584" />
        </g>
        <g
           id="g586"
           transform="translate(623.9258,231.4521)">
          <path
             d="M 0,0 C 0.024,1.859 1.551,3.348 3.41,3.324 L 5.89,3.293 4.159,5.068 C 2.86,6.4 2.888,8.532 4.22,9.831 c 1.331,1.298 3.463,1.271 4.761,-0.06 l 1.731,-1.777 0.032,2.481 c 0.024,1.859 1.55,3.347 3.409,3.324 h 10e-4 c 1.86,-0.024 3.348,-1.551 3.325,-3.409 l -0.033,-2.481 1.777,1.732 c 1.331,1.297 3.463,1.271 4.761,-0.061 1.298,-1.332 1.272,-3.464 -0.06,-4.762 l -1.776,-1.731 2.48,-0.031 c 1.859,-0.024 3.349,-1.55 3.324,-3.41 -0.023,-1.86 -1.55,-3.348 -3.409,-3.325 l -2.48,0.032 1.731,-1.776 c 1.299,-1.332 1.271,-3.464 -0.061,-4.762 -1.331,-1.298 -3.462,-1.271 -4.761,0.06 l -1.732,1.776 -0.031,-2.48 c -0.023,-1.859 -1.55,-3.348 -3.41,-3.324 -1.86,0.023 -3.348,1.55 -3.324,3.41 l 0.031,2.479 -1.776,-1.731 c -1.331,-1.298 -3.463,-1.271 -4.761,0.06 -1.298,1.332 -1.272,3.464 0.06,4.762 l 1.776,1.732 -2.48,0.031 C 1.465,-3.387 -0.023,-1.859 0,0"
             style="fill:#ffd238;fill-opacity:1;fill-rule:nonzero;stroke:none"
             id="path588" />
        </g>
        <g
           id="g590"
           transform="translate(632.7578,231.2754)">
          <path
             d="m 0,0 c 0,-2.842 2.304,-5.145 5.145,-5.145 2.84,0 5.143,2.303 5.143,5.145 0,2.841 -2.303,5.144 -5.143,5.144 C 2.304,5.144 0,2.841 0,0"
             style="fill:#ffffff;fill-opacity:1;fill-rule:nonzero;stroke:none"
             id="path592" />
        </g>
        <g
           id="g594"
           transform="translate(379.1504,263.915)">
          <path
             d="M 0,0 C 0.023,1.86 1.55,3.348 3.41,3.325 L 5.89,3.293 4.158,5.069 C 2.86,6.4 2.887,8.533 4.219,9.831 5.551,11.129 7.683,11.102 8.98,9.771 l 1.732,-1.776 0.031,2.48 c 0.024,1.859 1.55,3.347 3.41,3.324 1.86,-0.024 3.348,-1.55 3.325,-3.41 L 17.446,7.91 19.222,9.641 c 1.332,1.298 3.464,1.271 4.761,-0.061 1.299,-1.331 1.272,-3.463 -0.059,-4.762 l -1.777,-1.731 2.48,-0.031 c 1.86,-0.024 3.349,-1.551 3.325,-3.41 -0.023,-1.86 -1.551,-3.348 -3.41,-3.325 l -2.48,0.032 1.732,-1.776 c 1.298,-1.331 1.27,-3.464 -0.061,-4.762 -1.332,-1.298 -3.463,-1.271 -4.761,0.06 l -1.732,1.776 -0.031,-2.48 c -0.024,-1.859 -1.551,-3.348 -3.41,-3.324 -1.86,0.024 -3.349,1.55 -3.324,3.41 l 0.031,2.48 -1.776,-1.732 c -1.332,-1.298 -3.463,-1.271 -4.762,0.06 -1.298,1.332 -1.272,3.464 0.06,4.763 l 1.776,1.731 -2.48,0.031 C 1.465,-3.386 -0.023,-1.859 0,0"
             style="fill:#ffd238;fill-opacity:1;fill-rule:nonzero;stroke:none"
             id="path596" />
        </g>
        <g
           id="g598"
           transform="translate(387.9824,263.7378)">
          <path
             d="m 0,0 c 0,-2.841 2.303,-5.144 5.144,-5.144 2.841,0 5.144,2.303 5.144,5.144 0,2.841 -2.303,5.145 -5.144,5.145 C 2.303,5.145 0,2.841 0,0"
             style="fill:#ffffff;fill-opacity:1;fill-rule:nonzero;stroke:none"
             id="path600" />
        </g>
        <g
           id="g602"
           transform="translate(381.626,77.5029)">
          <path
             d="M 0,0 C 0.023,1.86 1.55,3.349 3.41,3.324 L 5.89,3.293 4.158,5.069 C 2.86,6.4 2.887,8.532 4.219,9.831 5.551,11.129 7.683,11.103 8.98,9.771 l 1.732,-1.776 0.031,2.48 c 0.024,1.859 1.55,3.347 3.41,3.324 1.86,-0.024 3.348,-1.55 3.325,-3.409 l -0.032,-2.481 1.776,1.732 c 1.332,1.297 3.464,1.271 4.761,-0.061 1.299,-1.331 1.272,-3.464 -0.059,-4.762 l -1.777,-1.731 2.48,-0.031 c 1.86,-0.024 3.349,-1.55 3.325,-3.41 -0.023,-1.86 -1.551,-3.348 -3.41,-3.325 l -2.48,0.032 1.732,-1.776 c 1.298,-1.331 1.27,-3.464 -0.061,-4.762 -1.332,-1.298 -3.463,-1.271 -4.761,0.061 l -1.732,1.775 -0.031,-2.479 c -0.024,-1.86 -1.551,-3.349 -3.41,-3.325 -1.86,0.024 -3.349,1.55 -3.324,3.41 l 0.031,2.479 -1.776,-1.73 c -1.332,-1.299 -3.463,-1.272 -4.762,0.059 -1.298,1.332 -1.271,3.464 0.06,4.762 l 1.776,1.732 -2.48,0.032 C 1.465,-3.386 -0.023,-1.859 0,0"
             style="fill:#ffd238;fill-opacity:1;fill-rule:nonzero;stroke:none"
             id="path604" />
        </g>
        <g
           id="g606"
           transform="translate(390.458,77.3262)">
          <path
             d="m 0,0 c 0,-2.841 2.303,-5.145 5.144,-5.145 2.841,0 5.144,2.304 5.144,5.145 0,2.841 -2.303,5.145 -5.144,5.145 C 2.303,5.145 0,2.841 0,0"
             style="fill:#ffffff;fill-opacity:1;fill-rule:nonzero;stroke:none"
             id="path608" />
        </g>
        <g
           id="g610"
           transform="translate(662.6172,71.4346)">
          <path
             d="M 0,0 C 0.023,1.86 1.55,3.349 3.409,3.325 L 5.89,3.294 4.158,5.069 C 2.859,6.4 2.887,8.533 4.219,9.831 5.55,11.129 7.682,11.103 8.98,9.771 l 1.732,-1.776 0.031,2.48 c 0.024,1.859 1.55,3.348 3.409,3.325 h 0.001 c 1.86,-0.025 3.348,-1.551 3.325,-3.41 l -0.032,-2.48 1.776,1.731 c 1.332,1.298 3.464,1.271 4.761,-0.061 1.298,-1.331 1.272,-3.463 -0.06,-4.762 l -1.776,-1.731 2.48,-0.031 c 1.859,-0.024 3.349,-1.55 3.324,-3.41 -0.023,-1.86 -1.55,-3.348 -3.409,-3.325 l -2.48,0.032 1.731,-1.776 c 1.299,-1.331 1.271,-3.464 -0.061,-4.762 -1.331,-1.298 -3.462,-1.271 -4.761,0.061 l -1.731,1.775 -0.032,-2.479 c -0.023,-1.86 -1.55,-3.349 -3.409,-3.324 -1.86,0.023 -3.349,1.549 -3.325,3.409 l 0.032,2.48 -1.777,-1.731 c -1.331,-1.299 -3.462,-1.272 -4.761,0.059 -1.298,1.332 -1.272,3.464 0.06,4.763 l 1.776,1.732 -2.48,0.031 C 1.465,-3.386 -0.023,-1.859 0,0"
             style="fill:#ffd238;fill-opacity:1;fill-rule:nonzero;stroke:none"
             id="path612" />
        </g>
        <g
           id="g614"
           transform="translate(671.4482,71.2578)">
          <path
             d="m 0,0 c 0,-2.841 2.304,-5.145 5.145,-5.145 2.84,0 5.144,2.304 5.144,5.145 0,2.841 -2.304,5.145 -5.144,5.145 C 2.304,5.145 0,2.841 0,0"
             style="fill:#ffffff;fill-opacity:1;fill-rule:nonzero;stroke:none"
             id="path616" />
        </g>
        <g
           id="g618"
           transform="translate(670.4619,288.9849)">
          <path
             d="M 0,0 C 0.024,1.86 1.551,3.348 3.41,3.325 L 5.89,3.293 4.159,5.069 C 2.86,6.4 2.888,8.532 4.22,9.831 c 1.331,1.298 3.463,1.271 4.761,-0.06 l 1.731,-1.776 0.032,2.479 c 0.024,1.86 1.55,3.348 3.409,3.325 1.861,-0.024 3.349,-1.55 3.326,-3.41 L 17.446,7.91 19.223,9.64 c 1.331,1.299 3.463,1.272 4.761,-0.06 1.298,-1.331 1.272,-3.464 -0.06,-4.762 l -1.776,-1.731 2.48,-0.031 c 1.859,-0.024 3.349,-1.551 3.324,-3.41 -0.023,-1.86 -1.55,-3.348 -3.409,-3.325 l -2.481,0.032 1.732,-1.776 c 1.299,-1.332 1.271,-3.464 -0.061,-4.762 -1.331,-1.298 -3.462,-1.271 -4.761,0.06 l -1.732,1.776 -0.031,-2.48 c -0.023,-1.859 -1.55,-3.348 -3.41,-3.324 -1.86,0.024 -3.348,1.55 -3.324,3.41 l 0.031,2.48 -1.776,-1.732 c -1.332,-1.298 -3.463,-1.271 -4.761,0.06 -1.298,1.332 -1.272,3.464 0.06,4.763 l 1.776,1.731 -2.48,0.031 C 1.465,-3.386 -0.023,-1.86 0,0"
             style="fill:#ffd238;fill-opacity:1;fill-rule:nonzero;stroke:none"
             id="path620" />
        </g>
        <g
           id="g622"
           transform="translate(679.2939,288.8076)">
          <path
             d="m 0,0 c 0,-2.841 2.304,-5.144 5.145,-5.144 2.84,0 5.143,2.303 5.143,5.144 0,2.841 -2.303,5.144 -5.143,5.144 C 2.304,5.144 0,2.841 0,0"
             style="fill:#ffffff;fill-opacity:1;fill-rule:nonzero;stroke:none"
             id="path624" />
        </g>
      </g>
    </g>
  </g>
</svg>
