<svg width="48" height="47" viewBox="0 0 48 47" fill="none" xmlns="http://www.w3.org/2000/svg">
<g clip-path="url(#clip0_717_357)">
<path d="M24 4.19382C30.4125 4.19382 31.1719 4.22111 33.6938 4.33028C36.0375 4.43035 37.3031 4.81243 38.1469 5.13083C39.2625 5.54931 40.0688 6.05875 40.9031 6.8684C41.7469 7.68715 42.2625 8.46042 42.6938 9.54299C43.0219 10.3617 43.4156 11.599 43.5188 13.8642C43.6313 16.3204 43.6594 17.0573 43.6594 23.2707C43.6594 29.4932 43.6313 30.2301 43.5188 32.6772C43.4156 34.9515 43.0219 36.1797 42.6938 36.9984C42.2625 38.081 41.7375 38.8633 40.9031 39.673C40.0594 40.4917 39.2625 40.9921 38.1469 41.4106C37.3031 41.729 36.0281 42.111 33.6938 42.2111C31.1625 42.3203 30.4031 42.3476 24 42.3476C17.5875 42.3476 16.8281 42.3203 14.3063 42.2111C11.9625 42.111 10.6969 41.729 9.85313 41.4106C8.7375 40.9921 7.93125 40.4826 7.09688 39.673C6.25313 38.8542 5.7375 38.081 5.30625 36.9984C4.97813 36.1797 4.58438 34.9424 4.48125 32.6772C4.36875 30.221 4.34063 29.4841 4.34063 23.2707C4.34063 17.0482 4.36875 16.3113 4.48125 13.8642C4.58438 11.5899 4.97813 10.3617 5.30625 9.54299C5.7375 8.46042 6.2625 7.67806 7.09688 6.8684C7.94063 6.04965 8.7375 5.54931 9.85313 5.13083C10.6969 4.81243 11.9719 4.43035 14.3063 4.33028C16.8281 4.22111 17.5875 4.19382 24 4.19382ZM24 0C17.4844 0 16.6688 0.0272917 14.1094 0.136458C11.5594 0.245625 9.80625 0.645903 8.2875 1.21903C6.70312 1.81944 5.3625 2.6109 4.03125 3.91181C2.69063 5.20361 1.875 6.50452 1.25625 8.03285C0.665625 9.5157 0.253125 11.2078 0.140625 13.6822C0.028125 16.1749 0 16.9663 0 23.2889C0 29.6115 0.028125 30.4029 0.140625 32.8865C0.253125 35.3609 0.665625 37.0621 1.25625 38.5358C1.875 40.0733 2.69063 41.3742 4.03125 42.666C5.3625 43.9578 6.70313 44.7583 8.27813 45.3497C9.80625 45.9228 11.55 46.3231 14.1 46.4322C16.6594 46.5414 17.475 46.5687 23.9906 46.5687C30.5063 46.5687 31.3219 46.5414 33.8813 46.4322C36.4313 46.3231 38.1844 45.9228 39.7031 45.3497C41.2781 44.7583 42.6188 43.9578 43.95 42.666C45.2812 41.3742 46.1063 40.0733 46.7156 38.5449C47.3063 37.0621 47.7188 35.37 47.8313 32.8956C47.9438 30.412 47.9719 29.6206 47.9719 23.298C47.9719 16.9754 47.9438 16.184 47.8313 13.7004C47.7188 11.226 47.3063 9.52479 46.7156 8.05104C46.125 6.50451 45.3094 5.20361 43.9688 3.91181C42.6375 2.62 41.2969 1.81944 39.7219 1.22813C38.1938 0.655 36.45 0.254722 33.9 0.145556C31.3313 0.0272917 30.5156 0 24 0Z" fill="#363A6C"/>
<path d="M24 11.326C17.1938 11.326 11.6719 16.6843 11.6719 23.2889C11.6719 29.8935 17.1938 35.2517 24 35.2517C30.8062 35.2517 36.3281 29.8935 36.3281 23.2889C36.3281 16.6843 30.8062 11.326 24 11.326ZM24 31.0488C19.5844 31.0488 16.0031 27.5737 16.0031 23.2889C16.0031 19.0041 19.5844 15.529 24 15.529C28.4156 15.529 31.9969 19.0041 31.9969 23.2889C31.9969 27.5737 28.4156 31.0488 24 31.0488Z" fill="#363A6C"/>
<path d="M39.6937 10.8529C39.6937 12.3994 38.4 13.6458 36.8156 13.6458C35.2219 13.6458 33.9375 12.3903 33.9375 10.8529C33.9375 9.30638 35.2313 8.06006 36.8156 8.06006C38.4 8.06006 39.6937 9.31548 39.6937 10.8529Z" fill="#363A6C"/>
</g>
<defs>
<clipPath id="clip0_717_357">
<rect width="48" height="46.5778" fill="white"/>
</clipPath>
</defs>
</svg>
