<svg width="48" height="47" viewBox="0 0 48 47" fill="none" xmlns="http://www.w3.org/2000/svg">
<g clip-path="url(#clip0_717_355)">
<path d="M44.4469 0H3.54375C1.58437 0 0 1.50104 0 3.35688V43.2118C0 45.0676 1.58437 46.5778 3.54375 46.5778H44.4469C46.4062 46.5778 48 45.0676 48 43.2209V3.35688C48 1.50104 46.4062 0 44.4469 0ZM14.2406 39.6912H7.11563V17.4576H14.2406V39.6912ZM10.6781 14.4282C8.39062 14.4282 6.54375 12.636 6.54375 10.4254C6.54375 8.21479 8.39062 6.42264 10.6781 6.42264C12.9563 6.42264 14.8031 8.21479 14.8031 10.4254C14.8031 12.6269 12.9563 14.4282 10.6781 14.4282ZM40.9031 39.6912H33.7875V28.8837C33.7875 26.3092 33.7406 22.9887 30.0844 22.9887C26.3812 22.9887 25.8187 25.7997 25.8187 28.7017V39.6912H18.7125V17.4576H25.5375V20.496H25.6312C26.5781 18.7494 28.9031 16.9026 32.3625 16.9026C39.5719 16.9026 40.9031 21.5058 40.9031 27.4918V39.6912Z" fill="#363A6C"/>
</g>
<defs>
<clipPath id="clip0_717_355">
<rect width="48" height="46.5778" fill="white"/>
</clipPath>
</defs>
</svg>
